<?xml version="1.0" encoding="utf-8"?>
<!-- Generator: Adobe Illustrator 26.0.2, SVG Export Plug-In . SVG Version: 6.00 Build 0)  -->
<svg version="1.1" id="Layer_1" xmlns="http://www.w3.org/2000/svg" xmlns:xlink="http://www.w3.org/1999/xlink" x="0px" y="0px"
	 viewBox="0 0 50 60" style="enable-background:new 0 0 50 60;" xml:space="preserve">
<style type="text/css">
	.st0{enable-background:new    ;}
	.st1{fill:#707070;}
	.st2{clip-path:url(#SVGID_00000063633653811287036470000011678503699225709208_);}
	.st3{fill:#CDDCDC;}
	.st4{fill:#0F8CB4;}
	.st5{fill:#545454;}
	.st6{fill:none;}
</style>
<g class="st0">
	<path class="st1" d="M23.7,53L23,51.2h-2.3L20,53h-0.7l2.3-5.7h0.6l2.2,5.7H23.7z M22.8,50.6l-0.7-1.8C22,48.6,22,48.3,21.9,48
		c-0.1,0.2-0.1,0.5-0.2,0.8l-0.7,1.8H22.8z"/>
	<path class="st1" d="M28.8,49c0,0.6-0.2,1-0.6,1.3c-0.4,0.3-1,0.5-1.7,0.5h-0.7V53h-0.7v-5.7h1.5C28.1,47.3,28.8,47.9,28.8,49z
		 M25.8,50.2h0.6c0.6,0,1-0.1,1.3-0.3c0.3-0.2,0.4-0.5,0.4-0.9c0-0.4-0.1-0.7-0.4-0.8c-0.2-0.2-0.6-0.3-1.2-0.3h-0.7V50.2z"/>
	<path class="st1" d="M30,53v-5.7h0.7V53H30z"/>
</g>
<g id="Group_2222" transform="translate(8159.915 955.286)">
	<g>
		<g>
			<defs>
				<rect id="SVGID_1_" x="-8151.9" y="-951.3" width="34" height="35"/>
			</defs>
			<clipPath id="SVGID_00000108289291670955799730000015898838734744783024_">
				<use xlink:href="#SVGID_1_"  style="overflow:visible;"/>
			</clipPath>
			<g id="Group_1539" style="clip-path:url(#SVGID_00000108289291670955799730000015898838734744783024_);">
				<path id="Path_1716" class="st3" d="M-8145.8-928.3c0,0-5.1-1.5-5.4-4.2c-0.3-2.7,1.9-5.4,1.9-5.4l2.9-1.4c0,0-1.3-5.6,0.7-7.7
					s3-3.3,5-3.2c2,0.1,5.5,0.2,7,2.2c0.7,0.9,1.3,1.8,1.8,2.8c0,0,3.3-1.6,5.7-0.3c2.4,1.3,3.3,2,3.8,4.3c0.3,1.5,0.2,3-0.2,4.4
					c0,0,2.3,0.3,3.1,1.1c1,1,1.4,2.5,1.2,3.9c-0.5,1.5-1.7,2.7-3.2,3.2c-0.9,0.3-1.8,0.4-2.8,0.5"/>
				<path id="Path_1717" class="st3" d="M-8129.5-929.3c0,2.9-2.4,5.3-5.3,5.3c-2.9,0-5.3-2.4-5.3-5.3c0-2.9,2.4-5.3,5.3-5.3
					C-8131.9-934.6-8129.5-932.2-8129.5-929.3"/>
				<path id="Path_1718" class="st4" d="M-8126.1-927.4l2.2-0.9l-0.4-2l-2.2-0.4l-0.3-1.9l1.2-1.9l-1.3-1.8l-2.6,0.7l-1.3-1.1
					l0.5-2.7l-2.2-0.5l-1.5,2.3l-2-0.1l-1.4-2l-1.6,0.8l-0.3,2.3l-1.3,1.1c0,0-2-0.8-2.2-0.9l-1.5,1.8l1.8,2.1l-0.7,1.9l-2.6,0.2
					v2.1l2.1,0.9l1.1,1.7l-1.4,1.8l1.2,1.9l2.3-0.6l1.4,0.9l-0.2,2.8l2.1,0.7l1.3-2.3l1.7-0.2l1.6,2.1l2.2-0.4l-0.4-2.5l1.9-1.2
					l2.3,0.7l1.2-1.6l-1.5-2L-8126.1-927.4z M-8134.9-923.8c-2.9,0-5.3-2.4-5.3-5.3c0-2.9,2.4-5.3,5.3-5.3s5.3,2.4,5.3,5.3
					C-8129.6-926.2-8132-923.8-8134.9-923.8"/>
				<path id="Path_1719" class="st5" d="M-8130.3-925.9c0,0.3-0.3,0.6-0.6,0.6c-0.3,0-0.6-0.3-0.6-0.6c0-0.3,0.3-0.6,0.6-0.6l0,0
					C-8130.5-926.5-8130.3-926.2-8130.3-925.9"/>
				<path id="Path_1720" class="st5" d="M-8132.6-917.9c-0.2,0-0.4-0.1-0.5-0.3l-1-1.8c-0.5,0-1,0-1.5,0l-1,1.8
					c-0.1,0.2-0.4,0.3-0.7,0.3l-2.2-0.7c-0.3-0.1-0.4-0.3-0.4-0.6l0.2-2.1c-0.4-0.3-0.8-0.5-1.2-0.9l-1.9,0.9
					c-0.2,0.1-0.5,0-0.7-0.2l-1.3-1.9c-0.2-0.2-0.1-0.5,0-0.7l1.4-1.6c-0.2-0.5-0.3-0.9-0.5-1.4l-2.1-0.4c-0.3-0.1-0.5-0.3-0.5-0.6
					v-2.3c0-0.3,0.2-0.5,0.5-0.6l2.1-0.4c0.1-0.5,0.3-0.9,0.5-1.4l-1.4-1.6c-0.2-0.2-0.2-0.5,0-0.7l1.3-1.9c0.2-0.2,0.5-0.3,0.7-0.2
					l1.9,0.9c0.4-0.3,0.8-0.6,1.2-0.9l-0.2-1.8c0-0.3,0.1-0.5,0.4-0.6l2.2-0.7c0.3-0.1,0.5,0,0.7,0.3l1,1.9c0.5,0,1,0,1.5,0l1-1.9
					c0.1-0.2,0.4-0.3,0.7-0.3l2.2,0.7c0.3,0.1,0.4,0.3,0.4,0.6l-0.2,2.1c0.4,0.3,0.8,0.5,1.2,0.9l1.8-1c0.2-0.1,0.5,0,0.7,0.2
					l1.3,1.9c0.2,0.2,0.1,0.5,0,0.7l-1.4,1.6c0.2,0.5,0.3,0.9,0.5,1.4l2.1,0.4c0.3,0.1,0.5,0.3,0.5,0.6v2.2c0,0.3-0.2,0.5-0.5,0.6
					l-2.2,0.4c-0.1,0.5-0.3,0.9-0.5,1.4l1.4,1.6c0.2,0.2,0.2,0.5,0,0.7l-1.3,1.9c-0.2,0.2-0.5,0.3-0.7,0.2l-1.9-0.9
					c-0.4,0.3-0.8,0.6-1.2,0.9l0.2,2.1c0,0.3-0.1,0.5-0.4,0.6l-2.2,0.7C-8132.5-917.9-8132.5-917.9-8132.6-917.9 M-8133.8-921.2
					c0.2,0,0.4,0.1,0.5,0.3l1,1.8l1.3-0.4l-0.2-2c0-0.2,0.1-0.5,0.3-0.6c0.6-0.3,1.1-0.7,1.6-1.2c0.2-0.2,0.4-0.2,0.6-0.1l1.8,0.9
					l0.8-1.1l-1.4-1.5c-0.2-0.2-0.2-0.4-0.1-0.6c0.3-0.6,0.5-1.2,0.6-1.9c0-0.2,0.2-0.4,0.4-0.5l2-0.4v-1.3l-2-0.4
					c-0.2,0-0.4-0.2-0.4-0.5c-0.1-0.6-0.3-1.3-0.6-1.9c-0.1-0.2-0.1-0.5,0.1-0.6l1.4-1.5l-0.8-1.1l-1.8,0.8
					c-0.2,0.1-0.5,0.1-0.6-0.1c-0.5-0.4-1-0.8-1.6-1.2c-0.2-0.1-0.3-0.3-0.3-0.6l0.2-2l-1.3-0.4l-1,1.8c-0.1,0.2-0.3,0.3-0.6,0.3
					c-0.6-0.1-1.3-0.1-2,0c-0.2,0-0.5-0.1-0.6-0.3l-1-1.8l-1.3,0.4l0.2,2c0,0.2-0.1,0.5-0.3,0.6c-0.6,0.3-1.1,0.7-1.6,1.2
					c-0.2,0.2-0.4,0.2-0.6,0.1l-1.9-0.8l-0.8,1.1l1.4,1.5c0.2,0.2,0.2,0.4,0.1,0.6c-0.3,0.6-0.5,1.2-0.6,1.9c0,0.2-0.2,0.4-0.4,0.5
					l-2,0.4v1.3l2,0.4c0.2,0,0.4,0.2,0.4,0.5c0.1,0.6,0.3,1.3,0.6,1.9c0.1,0.2,0.1,0.5-0.1,0.6l-1.4,1.5l0.8,1.1l1.8-0.9
					c0.2-0.1,0.5-0.1,0.6,0.1c0.5,0.4,1,0.8,1.6,1.2c0.2,0.1,0.3,0.3,0.3,0.6l-0.2,2l1.3,0.4l1-1.8c0.1-0.2,0.3-0.3,0.6-0.3
					C-8135.2-921.1-8134.5-921.1-8133.8-921.2C-8133.9-921.2-8133.8-921.2-8133.8-921.2 M-8134.9-923.4c-3.2,0-5.7-2.6-5.7-5.7
					c0-3.2,2.6-5.7,5.7-5.7c3.2,0,5.7,2.6,5.7,5.7c0,0.4,0,0.8-0.1,1.2c-0.1,0.3-0.4,0.5-0.7,0.4s-0.5-0.4-0.4-0.7l0,0
					c0.5-2.5-1-4.9-3.5-5.4s-4.9,1-5.4,3.5s1,4.9,3.5,5.4c0.3,0.1,0.6,0.1,1,0.1c0.6,0,1.2-0.1,1.8-0.4c0.3-0.1,0.6,0,0.8,0.3
					c0.2,0.3,0,0.6-0.3,0.8C-8133.3-923.6-8134.1-923.4-8134.9-923.4"/>
				<path id="Path_1721" class="st5" d="M-8148-928.4c-0.1,0-0.1,0-0.2,0c-3-1.2-4.5-4.6-3.4-7.6c0.7-1.9,2.5-3.4,4.5-3.7
					c-1-2.6-0.6-5.5,1-7.8c0.2-0.3,0.5-0.3,0.8-0.1c0.3,0.2,0.3,0.5,0.1,0.8c-1.4,2-1.7,4.7-0.8,7l0.2,0.4c0.1,0.3,0,0.6-0.3,0.7
					c-0.1,0-0.1,0-0.2,0h-0.4c-2.6,0.3-4.5,2.6-4.2,5.2c0.2,1.8,1.4,3.3,3,3.9c0.3,0.1,0.4,0.5,0.3,0.7
					C-8147.6-928.5-8147.8-928.4-8148-928.4"/>
				<path id="Path_1722" class="st5" d="M-8121.5-928.1c-0.3,0-0.6-0.3-0.6-0.6s0.2-0.5,0.5-0.6c1.9-0.4,3.1-2.3,2.7-4.2
					c-0.3-1.6-1.7-2.7-3.3-2.7h-0.4c-0.3,0-0.6-0.3-0.6-0.6c0-0.1,0-0.1,0-0.2l0.2-0.4c1.2-3.1-0.3-6.6-3.4-7.8
					c-1.6-0.6-3.4-0.5-4.9,0.2l-0.3,0.2c-0.3,0.1-0.6,0-0.8-0.2c0,0,0,0,0-0.1l-0.1-0.3c-1.3-3.4-4.9-5.2-8.4-4.4
					c-0.1,0-0.3,0.1-0.4,0.1c-0.3,0.1-0.6-0.1-0.7-0.4c-0.1-0.3,0.1-0.6,0.4-0.7c0.2,0,0.3-0.1,0.5-0.1c4-1,8,1.1,9.7,4.8
					c0.9-0.4,1.9-0.6,3-0.6c3.9,0,7.1,3.2,7.1,7.1c0,0.8-0.1,1.5-0.4,2.3c2.4,0.2,4.1,2.2,4.1,4.6c0,2.2-1.5,4.1-3.7,4.5
					C-8121.4-928.1-8121.5-928.1-8121.5-928.1"/>
				<path id="Path_1723" class="st5" d="M-8142.9-949.3c0,0.3-0.3,0.6-0.6,0.6c-0.2,0-0.5-0.3-0.5-0.6s0.3-0.6,0.6-0.6
					C-8143.1-949.9-8142.9-949.6-8142.9-949.3"/>
				<path id="Path_1724" class="st5" d="M-8127.9-916.9c-0.3,0-0.6-0.3-0.6-0.6c0-0.2,0.1-0.4,0.3-0.5c2.5-1.5,4.5-3.7,5.6-6.4
					c0.1-0.3,0.5-0.4,0.7-0.3c0.3,0.1,0.4,0.5,0.3,0.7c-1.2,2.9-3.3,5.4-6,7C-8127.7-916.9-8127.8-916.9-8127.9-916.9"/>
				<path id="Path_1725" class="st5" d="M-8143.4-918c-0.1,0-0.3,0-0.4-0.1c-2.6-2.1-4.4-5-5-8.2c-0.1-0.3,0.1-0.6,0.5-0.7
					c0.3-0.1,0.6,0.1,0.7,0.4c0.6,3,2.3,5.6,4.6,7.5c0.2,0.2,0.3,0.6,0.1,0.8C-8143.1-918.1-8143.3-918-8143.4-918"/>
				<path id="Path_1726" class="st5" d="M-8140.6-917.3c0,0.3-0.3,0.6-0.6,0.6c-0.3,0-0.6-0.3-0.6-0.6s0.3-0.6,0.6-0.6
					C-8140.8-917.9-8140.6-917.6-8140.6-917.3"/>
				<path id="Path_1727" class="st5" d="M-8121.1-926.5c0,0.3-0.3,0.6-0.6,0.6c-0.3,0-0.6-0.3-0.6-0.6s0.3-0.6,0.6-0.6
					C-8121.4-927-8121.1-926.8-8121.1-926.5"/>
				<path id="Path_1728" class="st5" d="M-8135.9-927.4l-0.2-0.4h-1.3l-0.2,0.4c0,0.1-0.1,0.2-0.2,0.3c0,0.1,0,0.1-0.1,0.1
					s-0.2,0-0.2-0.1c-0.1-0.1-0.1-0.1-0.1-0.2v-0.1c0,0,0-0.1,0.1-0.2l0.8-2.1l0.1-0.2c0-0.1,0.1-0.1,0.1-0.2c0-0.1,0.1-0.1,0.1-0.1
					c0.1,0,0.1-0.1,0.2-0.1c0.1,0,0.2,0,0.2,0.1c0.1,0,0.1,0.1,0.1,0.1c0,0.1,0.1,0.1,0.1,0.2c0,0.1,0.1,0.1,0.1,0.3l0.9,2.1
					c0.1,0.1,0.1,0.2,0.1,0.4c0,0.1,0,0.2-0.1,0.2c-0.1,0.1-0.1,0.1-0.2,0.1h-0.1c0,0-0.1,0-0.1-0.1l-0.1-0.1
					C-8135.9-927.3-8135.9-927.4-8135.9-927.4 M-8137.2-928.4h1l-0.5-1.4L-8137.2-928.4z"/>
				<path id="Path_1729" class="st5" d="M-8133.6-928.4h-0.6v0.9c0,0.1,0,0.2-0.1,0.3c-0.1,0.1-0.1,0.1-0.2,0.1s-0.2,0-0.2-0.1
					c-0.1-0.1-0.1-0.2-0.1-0.3v-2.5c0-0.1,0-0.2,0.1-0.3c0.1-0.1,0.2-0.1,0.3-0.1h0.9c0.2,0,0.4,0,0.6,0.1c0.1,0,0.2,0.1,0.3,0.2
					c0.1,0.1,0.2,0.2,0.2,0.3c0.1,0.1,0.1,0.3,0.1,0.4c0,0.3-0.1,0.6-0.3,0.8C-8133-928.4-8133.3-928.3-8133.6-928.4 M-8133.8-929.8
					h-0.4v1h0.4c0.1,0,0.3,0,0.4,0s0.2-0.1,0.2-0.2c0.1-0.1,0.1-0.2,0.1-0.3c0-0.1,0-0.3-0.1-0.4
					C-8133.4-929.8-8133.6-929.9-8133.8-929.8"/>
				<path id="Path_1730" class="st5" d="M-8132-927.4v-2.6c0-0.1,0-0.2,0.1-0.3c0.1-0.1,0.1-0.1,0.2-0.1c0.1,0,0.2,0,0.2,0.1
					c0.1,0.1,0.1,0.2,0.1,0.3v2.6c0,0.1,0,0.2-0.1,0.3c-0.1,0.1-0.2,0.1-0.2,0.1c-0.1,0-0.2,0-0.2-0.1
					C-8132-927.2-8132-927.3-8132-927.4"/>
			</g>
		</g>
	</g>
</g>
<g id="Group_2223" transform="translate(8160 955)">
	<g id="Group_2221">
		<path id="Path_1720-2" class="st1" d="M-8132.8-917.9c-0.2,0-0.4-0.1-0.5-0.3l-1-1.8c-0.5,0-1,0-1.5,0l-1,1.8
			c-0.1,0.2-0.4,0.3-0.7,0.3l-2.2-0.7c-0.3-0.1-0.4-0.3-0.4-0.6l0.2-2.1c-0.4-0.3-0.8-0.5-1.2-0.9l-1.9,0.9c-0.2,0.1-0.5,0-0.7-0.2
			l-1.3-1.8c-0.2-0.2-0.1-0.5,0-0.7l1.4-1.5c-0.2-0.4-0.3-0.9-0.5-1.4l-2.1-0.4c-0.3-0.1-0.5-0.3-0.5-0.6v-2.3
			c0-0.3,0.2-0.5,0.5-0.6l2.1-0.4c0.1-0.5,0.3-0.9,0.5-1.4l-1.4-1.5c-0.2-0.2-0.2-0.5,0-0.7l1.3-1.8c0.2-0.2,0.4-0.3,0.7-0.2
			l1.9,0.9c0.4-0.3,0.8-0.6,1.2-0.9l-0.1-2.1c0-0.3,0.1-0.5,0.4-0.6l2.2-0.7c0.3-0.1,0.5,0,0.7,0.3l1,1.8c0.5,0,1,0,1.5,0l1-1.8
			c0.1-0.2,0.4-0.3,0.7-0.3l2.2,0.7c0.3,0.1,0.4,0.3,0.4,0.6l-0.2,2.1c0.4,0.3,0.8,0.5,1.2,0.9l1.9-0.9c0.2-0.1,0.5,0,0.7,0.2
			l1.3,1.8c0.2,0.2,0.1,0.5,0,0.7l-1.4,1.6c0.2,0.4,0.3,0.9,0.5,1.4l2.1,0.4c0.3,0.1,0.5,0.3,0.5,0.6v2.3c0,0.3-0.2,0.5-0.5,0.6
			l-2.1,0.4c-0.1,0.5-0.3,0.9-0.5,1.4l1.4,1.6c0.2,0.2,0.2,0.5,0,0.7l-1.3,1.8c-0.2,0.2-0.4,0.3-0.7,0.2l-1.9-0.9
			c-0.4,0.3-0.8,0.6-1.2,0.9l0.2,2.1c0,0.3-0.1,0.5-0.4,0.6l-2.2,0.7C-8132.6-917.9-8132.7-917.9-8132.8-917.9 M-8134-921.2
			c0.2,0,0.4,0.1,0.5,0.3l1,1.8l1.3-0.4l-0.2-2c0-0.2,0.1-0.4,0.3-0.6c0.6-0.3,1.1-0.7,1.6-1.1c0.2-0.2,0.4-0.2,0.6-0.1l1.8,0.8
			l0.8-1.1l-1.4-1.5c-0.2-0.2-0.2-0.4-0.1-0.6c0.3-0.6,0.5-1.2,0.6-1.8c0-0.2,0.2-0.4,0.4-0.4l2-0.4v-1.3l-2-0.4
			c-0.2,0-0.4-0.2-0.4-0.5c-0.1-0.6-0.3-1.3-0.6-1.8c-0.1-0.2-0.1-0.5,0.1-0.6l1.4-1.5l-0.8-1.1l-1.9,0.8c-0.2,0.1-0.5,0.1-0.6-0.1
			c-0.5-0.4-1-0.8-1.6-1.1c-0.2-0.1-0.3-0.3-0.3-0.6l0.2-2l-1.3-0.4l-1,1.8c-0.1,0.2-0.3,0.3-0.6,0.3c-0.6-0.1-1.3-0.1-1.9,0
			c-0.2,0-0.4-0.1-0.6-0.3l-1-1.8l-1.3,0.4l0.2,2c0,0.2-0.1,0.4-0.3,0.6c-0.6,0.3-1.1,0.7-1.6,1.1c-0.2,0.2-0.4,0.2-0.6,0.1
			l-1.8-0.8l-0.8,1.1l1.4,1.5c0.2,0.2,0.2,0.4,0.1,0.6c-0.3,0.6-0.5,1.2-0.6,1.8c0,0.2-0.2,0.4-0.4,0.5l-2,0.4v1.3l2,0.4
			c0.2,0,0.4,0.2,0.4,0.4c0.1,0.6,0.3,1.3,0.6,1.8c0.1,0.2,0.1,0.5-0.1,0.6l-1.4,1.5l0.8,1.1l1.8-0.8c0.2-0.1,0.5-0.1,0.6,0.1
			c0.5,0.4,1,0.8,1.6,1.1c0.2,0.1,0.3,0.3,0.3,0.6l-0.2,2l1.3,0.4l1-1.8c0.1-0.2,0.3-0.3,0.6-0.3
			C-8135.3-921.1-8134.7-921.1-8134-921.2L-8134-921.2 M-8135-923.4c-3.1,0-5.7-2.5-5.7-5.7c0-3.1,2.5-5.7,5.7-5.7s5.7,2.5,5.7,5.7
			c0,0.4,0,0.8-0.1,1.2c-0.1,0.3-0.4,0.5-0.7,0.4c-0.3-0.1-0.5-0.4-0.4-0.7l0,0c0.5-2.4-1-4.9-3.5-5.4s-4.9,1-5.4,3.5
			c-0.5,2.4,1,4.9,3.5,5.4c0.3,0.1,0.6,0.1,1,0.1c0.6,0,1.2-0.1,1.8-0.4c0.3-0.1,0.6,0,0.7,0.3s0,0.6-0.3,0.7l0,0
			C-8133.5-923.5-8134.2-923.4-8135-923.4"/>
		<path id="Path_1721-2" class="st1" d="M-8148.1-928.3c-0.1,0-0.1,0-0.2,0c-3-1.2-4.5-4.5-3.3-7.6c0.7-1.9,2.4-3.3,4.5-3.6
			c-1-2.6-0.6-5.5,1-7.7c0.2-0.3,0.5-0.3,0.8-0.1c0.3,0.2,0.3,0.5,0.1,0.8c-1.4,2-1.7,4.6-0.8,6.9l0.2,0.4c0.1,0.3,0,0.6-0.3,0.7
			c-0.1,0-0.1,0-0.2,0h-0.4c-2.6,0.3-4.4,2.6-4.2,5.2c0.2,1.8,1.3,3.2,3,3.9c0.3,0.1,0.4,0.4,0.3,0.7
			C-8147.6-928.4-8147.8-928.3-8148.1-928.3"/>
		<path id="Path_1722-2" class="st1" d="M-8121.8-928c-0.3,0-0.6-0.3-0.6-0.6c0-0.3,0.2-0.5,0.4-0.6c1.9-0.4,3.1-2.2,2.7-4.1
			c-0.3-1.6-1.7-2.7-3.3-2.7h-0.4c-0.3,0-0.6-0.3-0.5-0.6c0-0.1,0-0.1,0-0.2l0.2-0.4c1.2-3.1-0.3-6.5-3.3-7.7
			c-1.6-0.6-3.3-0.5-4.9,0.2l-0.3,0.2c-0.3,0.1-0.6,0-0.8-0.2c0,0,0,0,0-0.1l-0.1-0.3c-1.3-3.3-4.9-5.2-8.3-4.3
			c-0.1,0-0.3,0.1-0.4,0.1c-0.3,0.1-0.6-0.1-0.7-0.4s0.1-0.6,0.4-0.7l0,0c0.2,0,0.3-0.1,0.5-0.1c3.9-1,8,1,9.6,4.7
			c0.9-0.4,1.9-0.6,2.9-0.6c3.9,0,7.1,3.2,7.1,7.1c0,0.8-0.1,1.5-0.4,2.3c2.3,0.2,4.1,2.2,4.1,4.6c0,2.2-1.5,4-3.6,4.5
			C-8121.7-928-8121.7-928-8121.8-928"/>
		<path id="Path_1723-2" class="st1" d="M-8142.9-949c0,0.3-0.3,0.6-0.6,0.6s-0.6-0.3-0.6-0.6s0.3-0.6,0.6-0.6l0,0
			C-8143.2-949.6-8142.9-949.4-8142.9-949"/>
		<path id="Path_1724-2" class="st1" d="M-8128.1-916.9c-0.3,0-0.6-0.3-0.6-0.6c0-0.2,0.1-0.4,0.3-0.5c2.5-1.5,4.4-3.7,5.5-6.4
			c0.1-0.3,0.5-0.4,0.7-0.3c0.3,0.1,0.4,0.4,0.3,0.7c-1.2,2.9-3.3,5.3-6,6.9C-8127.9-916.9-8128-916.9-8128.1-916.9"/>
		<path id="Path_1725-2" class="st1" d="M-8143.5-918c-0.1,0-0.3,0-0.4-0.1c-2.6-2-4.3-4.9-5-8.1c-0.1-0.3,0.1-0.6,0.4-0.7
			c0.3-0.1,0.6,0.1,0.7,0.4c0.6,2.9,2.3,5.6,4.6,7.5c0.2,0.2,0.3,0.6,0.1,0.8C-8143.2-918.1-8143.3-918-8143.5-918"/>
		<path id="Path_1726-2" class="st1" d="M-8140.7-917.3c0,0.3-0.3,0.6-0.6,0.6c-0.3,0-0.6-0.3-0.6-0.6s0.3-0.6,0.6-0.6l0,0
			C-8140.9-917.9-8140.7-917.6-8140.7-917.3"/>
		<path id="Path_1727-2" class="st1" d="M-8121.4-926.4c0,0.3-0.3,0.6-0.6,0.6s-0.6-0.3-0.6-0.6c0-0.3,0.3-0.6,0.6-0.6l0,0
			C-8121.7-926.9-8121.4-926.7-8121.4-926.4"/>
		<path id="Path_3539" class="st1" d="M-8130.5-925.8c0,0.3-0.3,0.6-0.6,0.6c-0.3,0-0.6-0.3-0.6-0.6s0.3-0.6,0.6-0.6l0,0
			C-8130.7-926.4-8130.5-926.1-8130.5-925.8"/>
		<path id="Path_3540" class="st1" d="M-8136-927.4l-0.2-0.4h-1.3l-0.2,0.4c0,0.1-0.1,0.2-0.2,0.3c0,0.1-0.1,0.2-0.1,0.2
			c-0.1,0-0.2,0-0.2-0.1c-0.1-0.1-0.1-0.1-0.1-0.2v-0.1c0,0,0-0.1,0.1-0.2l0.8-2.1l0.1-0.2c0-0.1,0.1-0.1,0.1-0.2s0.1-0.1,0.1-0.1
			c0.1,0,0.1-0.1,0.2-0.1s0.2,0,0.2,0.1c0.1,0,0.1,0.1,0.1,0.1c0,0.1,0.1,0.1,0.1,0.2c0,0.1,0.1,0.1,0.1,0.3l0.8,2.1
			c0.1,0.1,0.1,0.2,0.1,0.3c0,0.1,0,0.2-0.1,0.2c-0.1,0.1-0.1,0.1-0.2,0.1h-0.1c0,0-0.1,0-0.1-0.1l-0.1-0.1
			C-8136-927.3-8136-927.3-8136-927.4 M-8137.3-928.3h1l-0.5-1.3L-8137.3-928.3z"/>
		<path id="Path_3541" class="st1" d="M-8133.8-928.3h-0.6v0.9c0,0.1,0,0.2-0.1,0.3c-0.1,0.1-0.1,0.1-0.2,0.1c-0.1,0-0.2,0-0.2-0.1
			c-0.1,0-0.1-0.1-0.1-0.2v-2.5c0-0.1,0-0.2,0.1-0.3c0.1-0.1,0.2-0.1,0.3-0.1h0.8c0.2,0,0.4,0,0.6,0.1c0.1,0,0.2,0.1,0.3,0.2
			c0.1,0.1,0.2,0.2,0.2,0.3c0.1,0.1,0.1,0.3,0.1,0.4c0,0.3-0.1,0.6-0.3,0.8C-8133.1-928.3-8133.4-928.2-8133.8-928.3 M-8133.9-929.8
			h-0.4v1h0.4c0.1,0,0.3,0,0.4,0s0.2-0.1,0.2-0.2c0.1-0.1,0.1-0.2,0.1-0.3c0-0.1,0-0.3-0.1-0.4
			C-8133.5-929.7-8133.7-929.8-8133.9-929.8"/>
		<path id="Path_3542" class="st1" d="M-8132.2-927.3v-2.6c0-0.1,0-0.2,0.1-0.3c0.1-0.1,0.1-0.1,0.2-0.1s0.2,0,0.2,0.1
			c0.1,0.1,0.1,0.2,0.1,0.3v2.6c0,0.1,0,0.2-0.1,0.3c-0.1,0.1-0.1,0.1-0.2,0.1s-0.2,0-0.2-0.1S-8132.2-927.2-8132.2-927.3"/>
	</g>
	<rect id="Rectangle_1148-2" x="-8151.9" y="-951" class="st6" width="33.7" height="34.7"/>
</g>
</svg>
