<?xml version="1.0" encoding="utf-8"?>
<!-- Generator: Adobe Illustrator 26.0.2, SVG Export Plug-In . SVG Version: 6.00 Build 0)  -->
<svg version="1.1" id="Layer_1" xmlns="http://www.w3.org/2000/svg" xmlns:xlink="http://www.w3.org/1999/xlink" x="0px" y="0px"
	 viewBox="0 0 50 60" style="enable-background:new 0 0 50 60;" xml:space="preserve">
<style type="text/css">
	.st0{fill:#707070;}
	.st1{enable-background:new    ;}
	.st2{fill:#82CDD7;}
	.st3{fill:#E1E6E6;}
	.st4{fill:#263238;}
</style>
<path id="Path_1741" class="st0" d="M24,14.8V16c0,0.3,0.2,0.5,0.5,0.5S25,16.3,25,16v-1h-0.5C24.3,15,24.2,14.9,24,14.8"/>
<path id="Path_1742" class="st0" d="M24,15v1c0,0.3,0.2,0.5,0.5,0.5S25,16.3,25,16v-1.2c-0.2,0.1-0.3,0.2-0.5,0.2H24z"/>
<path id="Path_1745" class="st0" d="M37.5,15.8h-25c-0.9,0-1.6-0.7-1.6-1.6V9c0-0.9,0.7-1.6,1.6-1.6l0,0h1c0.3,0,0.5,0.2,0.5,0.5
	s-0.2,0.5-0.5,0.5h-1c-0.3,0-0.5,0.2-0.5,0.5v5.2c0,0.3,0.2,0.5,0.5,0.5h25c0.3,0,0.5-0.2,0.5-0.5V8.9c0-0.3-0.2-0.5-0.5-0.5H15.6
	c-0.3,0-0.5-0.2-0.5-0.5s0.2-0.5,0.5-0.5h21.9c0.9,0,1.6,0.7,1.6,1.6v5.2C39.1,15.1,38.4,15.8,37.5,15.8"/>
<g id="Group_2228" transform="translate(-6 114.566)">
	<path id="Path_1737" class="st0" d="M43.5-78.7h-25c-0.9,0-1.6-0.7-1.6-1.6v-5.2c0-0.9,0.7-1.6,1.6-1.6l0,0h1
		c0.3,0,0.5,0.2,0.5,0.5s-0.2,0.5-0.5,0.5h-1c-0.3,0-0.5,0.2-0.5,0.5v5.2c0,0.3,0.2,0.5,0.5,0.5h25c0.3,0,0.5-0.2,0.5-0.5v-5.2
		c0-0.3-0.2-0.5-0.5-0.5H21.6c-0.3,0-0.5-0.2-0.5-0.5s0.2-0.5,0.5-0.5h21.9c0.9,0,1.6,0.7,1.6,1.6v5.2
		C45.1-79.4,44.4-78.7,43.5-78.7"/>
	<path id="Path_1739" class="st0" d="M18-79.4v2.2c0,0.3,0.2,0.5,0.5,0.5s0.5-0.2,0.5-0.5l0,0v-2h-0.5C18.4-79.3,18.2-79.3,18-79.4"
		/>
	<path id="Path_1740" class="st0" d="M43-79.2v2.1c0,0.3,0.2,0.5,0.5,0.5s0.5-0.2,0.5-0.5v-2.2c-0.2,0.1-0.3,0.2-0.5,0.2L43-79.2
		L43-79.2z"/>
	<path id="Path_1746" class="st0" d="M40.4-76.6H21.7c-0.3,0-0.5-0.2-0.5-0.5s0.2-0.5,0.5-0.5h18.7c0.3,0,0.5,0.2,0.5,0.5
		C40.9-76.9,40.7-76.6,40.4-76.6L40.4-76.6"/>
	<path id="Path_1747" class="st0" d="M21.7-81.6c-0.9,0-1.6-0.7-1.6-1.6s0.7-1.6,1.6-1.6s1.6,0.7,1.6,1.6
		C23.2-82.3,22.5-81.6,21.7-81.6 M21.7-83.7c-0.3,0-0.5,0.2-0.5,0.5s0.2,0.5,0.5,0.5s0.5-0.2,0.5-0.5S22-83.7,21.7-83.7"/>
	<path id="Path_1748" class="st0" d="M35.2-81.6c-0.3,0-0.5-0.2-0.5-0.5l0,0v-2.1c0-0.3,0.2-0.5,0.5-0.5s0.5,0.2,0.5,0.5v2.1
		C35.7-81.9,35.5-81.6,35.2-81.6"/>
	<path id="Path_1749" class="st0" d="M37.3-81.6c-0.3,0-0.5-0.2-0.5-0.5l0,0v-2.1c0-0.3,0.2-0.5,0.5-0.5s0.5,0.2,0.5,0.5v2.1
		C37.8-81.9,37.6-81.6,37.3-81.6"/>
	<path id="Path_1750" class="st0" d="M39.4-81.6c-0.3,0-0.5-0.2-0.5-0.5l0,0v-2.1c0-0.3,0.2-0.5,0.5-0.5s0.5,0.2,0.5,0.5v2.1
		C39.9-81.9,39.7-81.6,39.4-81.6"/>
	<path id="Path_1751" class="st0" d="M41.5-81.6c-0.3,0-0.5-0.2-0.5-0.5l0,0v-2.1c0-0.3,0.2-0.5,0.5-0.5s0.5,0.2,0.5,0.5v2.1
		C42-81.9,41.7-81.6,41.5-81.6"/>
	<path id="Path_1752" class="st0" d="M26.4-82.2c0,0.3-0.2,0.5-0.5,0.5s-0.5-0.2-0.5-0.5s0.2-0.5,0.5-0.5
		C26.1-82.7,26.4-82.4,26.4-82.2"/>
	<path id="Path_1753" class="st0" d="M26.4-84.2c0,0.3-0.2,0.5-0.5,0.5s-0.5-0.2-0.5-0.5s0.2-0.5,0.5-0.5
		C26.1-84.7,26.4-84.4,26.4-84.2"/>
	<path id="Path_1754" class="st0" d="M28.4-82.2c0,0.3-0.2,0.5-0.5,0.5s-0.5-0.2-0.5-0.5s0.2-0.5,0.5-0.5
		C28.2-82.7,28.4-82.4,28.4-82.2"/>
	<path id="Path_1755" class="st0" d="M30.5-82.2c0,0.3-0.2,0.5-0.5,0.5s-0.5-0.2-0.5-0.5s0.2-0.5,0.5-0.5S30.5-82.4,30.5-82.2"/>
	<path id="Path_1756" class="st0" d="M32.6-82.2c0,0.3-0.2,0.5-0.5,0.5s-0.5-0.2-0.5-0.5s0.2-0.5,0.5-0.5S32.6-82.4,32.6-82.2"/>
	<path id="Path_1757" class="st0" d="M28.4-84.2c0,0.3-0.2,0.5-0.5,0.5s-0.5-0.2-0.5-0.5s0.2-0.5,0.5-0.5
		C28.2-84.7,28.4-84.4,28.4-84.2"/>
	<path id="Path_1758" class="st0" d="M30.5-84.2c0,0.3-0.2,0.5-0.5,0.5s-0.5-0.2-0.5-0.5s0.2-0.5,0.5-0.5S30.5-84.4,30.5-84.2"/>
	<path id="Path_1759" class="st0" d="M32.6-84.2c0,0.3-0.2,0.5-0.5,0.5s-0.5-0.2-0.5-0.5s0.2-0.5,0.5-0.5S32.6-84.4,32.6-84.2"/>
</g>
<path id="Path_1773" class="st0" d="M24.6,12.7c-0.9,0-1.6-0.7-1.6-1.6s0.7-1.6,1.6-1.6s1.6,0.7,1.6,1.6
	C26.1,12,25.4,12.7,24.6,12.7 M24.6,10.6c-0.3,0-0.5,0.2-0.5,0.5s0.2,0.5,0.5,0.5s0.5-0.2,0.5-0.5l0,0
	C25.1,10.9,24.8,10.6,24.6,10.6"/>
<path id="Path_1774" class="st0" d="M24.5,12.7c-0.3,0-0.5-0.2-0.5-0.5l0,0v-2.1c0-0.3,0.2-0.5,0.5-0.5S25,9.8,25,10.1v2.1
	C25,12.5,24.8,12.7,24.5,12.7"/>
<path id="Path_1775" class="st0" d="M24.5,12.7c-0.3,0-0.5-0.2-0.5-0.5l0,0v-2.1c0-0.3,0.2-0.5,0.5-0.5S25,9.8,25,10.1v2.1
	C25,12.5,24.8,12.7,24.5,12.7"/>
<path id="Path_1776" class="st0" d="M24.5,12.7c-0.3,0-0.5-0.2-0.5-0.5l0,0v-2.1c0-0.3,0.2-0.5,0.5-0.5S25,9.8,25,10.1v2.1
	C25,12.5,24.8,12.7,24.5,12.7"/>
<path id="Path_1777" class="st0" d="M24.5,12.7c-0.3,0-0.5-0.2-0.5-0.5l0,0v-2.1c0-0.3,0.2-0.5,0.5-0.5S25,9.8,25,10.1v2.1
	C25,12.5,24.8,12.7,24.5,12.7"/>
<path id="Path_1778" class="st0" d="M25,12.2c0,0.3-0.2,0.5-0.5,0.5S24,12.5,24,12.2s0.2-0.5,0.5-0.5S25,11.9,25,12.2"/>
<path id="Path_1780" class="st0" d="M25,12.2c0,0.3-0.2,0.5-0.5,0.5S24,12.5,24,12.2s0.2-0.5,0.5-0.5S25,11.9,25,12.2"/>
<path id="Path_1781" class="st0" d="M25,12.2c0,0.3-0.2,0.5-0.5,0.5S24,12.5,24,12.2s0.2-0.5,0.5-0.5S25,11.9,25,12.2"/>
<path id="Path_1782" class="st0" d="M25,12.2c0,0.3-0.2,0.5-0.5,0.5S24,12.5,24,12.2s0.2-0.5,0.5-0.5S25,11.9,25,12.2"/>
<g class="st1">
	<path class="st0" d="M12.7,46.5c0,0.9-0.3,1.7-0.8,2.2s-1.2,0.7-2.2,0.7H8.2v-5.7h1.8c0.9,0,1.6,0.2,2.1,0.7S12.7,45.7,12.7,46.5z
		 M12,46.6c0-0.7-0.2-1.3-0.6-1.7s-0.9-0.6-1.7-0.6h-1v4.6h0.8c0.8,0,1.4-0.2,1.8-0.6S12,47.3,12,46.6z"/>
	<path class="st0" d="M16.5,49.4l-0.1-0.6h0c-0.2,0.3-0.4,0.5-0.6,0.5s-0.5,0.1-0.8,0.1c-0.4,0-0.8-0.1-1-0.3s-0.4-0.5-0.4-0.9
		c0-0.9,0.7-1.3,2.1-1.4l0.7,0v-0.3c0-0.3-0.1-0.6-0.2-0.7s-0.4-0.2-0.7-0.2c-0.4,0-0.8,0.1-1.2,0.3l-0.2-0.5
		c0.2-0.1,0.4-0.2,0.7-0.3s0.5-0.1,0.8-0.1c0.5,0,0.9,0.1,1.1,0.3S17,46,17,46.5v2.9H16.5z M15.1,49c0.4,0,0.7-0.1,1-0.3
		s0.3-0.5,0.3-0.9v-0.4l-0.6,0c-0.5,0-0.9,0.1-1.1,0.2s-0.3,0.4-0.3,0.7c0,0.2,0.1,0.4,0.2,0.5S14.8,49,15.1,49z"/>
	<path class="st0" d="M19.7,49c0.1,0,0.2,0,0.3,0s0.2,0,0.3-0.1v0.5c-0.1,0-0.2,0.1-0.3,0.1s-0.3,0-0.4,0c-0.8,0-1.2-0.4-1.2-1.3
		v-2.5h-0.6v-0.3l0.6-0.3l0.3-0.9h0.4v1h1.2v0.5h-1.2v2.5c0,0.3,0.1,0.5,0.2,0.6S19.5,49,19.7,49z"/>
	<path class="st0" d="M23.8,49.4l-0.1-0.6h0c-0.2,0.3-0.4,0.5-0.6,0.5s-0.5,0.1-0.8,0.1c-0.4,0-0.8-0.1-1-0.3s-0.4-0.5-0.4-0.9
		c0-0.9,0.7-1.3,2.1-1.4l0.7,0v-0.3c0-0.3-0.1-0.6-0.2-0.7s-0.4-0.2-0.7-0.2c-0.4,0-0.8,0.1-1.2,0.3l-0.2-0.5
		c0.2-0.1,0.4-0.2,0.7-0.3s0.5-0.1,0.8-0.1c0.5,0,0.9,0.1,1.1,0.3s0.4,0.6,0.4,1.1v2.9H23.8z M22.4,49c0.4,0,0.7-0.1,1-0.3
		s0.3-0.5,0.3-0.9v-0.4l-0.6,0c-0.5,0-0.9,0.1-1.1,0.2s-0.3,0.4-0.3,0.7c0,0.2,0.1,0.4,0.2,0.5S22.1,49,22.4,49z"/>
	<path class="st0" d="M27.6,45.1c0.6,0,1,0.2,1.3,0.6s0.5,0.9,0.5,1.6s-0.2,1.2-0.5,1.6s-0.8,0.6-1.3,0.6c-0.3,0-0.5-0.1-0.8-0.2
		s-0.4-0.3-0.6-0.5h0l-0.1,0.6h-0.5v-6.1h0.6v1.5c0,0.3,0,0.6,0,0.9h0C26.6,45.3,27,45.1,27.6,45.1z M27.5,45.6
		c-0.4,0-0.8,0.1-1,0.4s-0.3,0.7-0.3,1.3s0.1,1,0.3,1.3s0.5,0.4,1,0.4c0.4,0,0.7-0.1,0.9-0.4s0.3-0.7,0.3-1.3c0-0.6-0.1-1-0.3-1.2
		S27.9,45.6,27.5,45.6z"/>
	<path class="st0" d="M33.2,49.4L33,48.8h0c-0.2,0.3-0.4,0.5-0.6,0.5s-0.5,0.1-0.8,0.1c-0.4,0-0.8-0.1-1-0.3s-0.4-0.5-0.4-0.9
		c0-0.9,0.7-1.3,2.1-1.4l0.7,0v-0.3c0-0.3-0.1-0.6-0.2-0.7s-0.4-0.2-0.7-0.2c-0.4,0-0.8,0.1-1.2,0.3l-0.2-0.5
		c0.2-0.1,0.4-0.2,0.7-0.3s0.5-0.1,0.8-0.1c0.5,0,0.9,0.1,1.1,0.3s0.4,0.6,0.4,1.1v2.9H33.2z M31.7,49c0.4,0,0.7-0.1,1-0.3
		s0.3-0.5,0.3-0.9v-0.4l-0.6,0c-0.5,0-0.9,0.1-1.1,0.2s-0.3,0.4-0.3,0.7c0,0.2,0.1,0.4,0.2,0.5S31.5,49,31.7,49z"/>
	<path class="st0" d="M37.8,48.3c0,0.4-0.1,0.7-0.4,0.9s-0.7,0.3-1.2,0.3c-0.6,0-1-0.1-1.3-0.3v-0.6c0.2,0.1,0.4,0.2,0.7,0.2
		s0.5,0.1,0.7,0.1c0.3,0,0.6-0.1,0.8-0.2s0.3-0.3,0.3-0.5c0-0.2-0.1-0.3-0.2-0.4s-0.4-0.3-0.8-0.4c-0.4-0.1-0.7-0.3-0.8-0.4
		s-0.3-0.2-0.4-0.4s-0.1-0.3-0.1-0.5c0-0.3,0.1-0.6,0.4-0.8s0.7-0.3,1.2-0.3c0.5,0,0.9,0.1,1.4,0.3l-0.2,0.5
		c-0.4-0.2-0.8-0.3-1.2-0.3c-0.3,0-0.5,0-0.7,0.1s-0.2,0.2-0.2,0.4c0,0.1,0,0.2,0.1,0.3s0.2,0.2,0.3,0.2s0.4,0.2,0.8,0.3
		c0.5,0.2,0.9,0.4,1,0.6S37.8,48,37.8,48.3z"/>
	<path class="st0" d="M40.6,49.5c-0.6,0-1.1-0.2-1.5-0.6s-0.5-0.9-0.5-1.6c0-0.7,0.2-1.2,0.5-1.6s0.8-0.6,1.4-0.6
		c0.5,0,1,0.2,1.3,0.5s0.5,0.8,0.5,1.4v0.4h-2.9c0,0.5,0.1,0.9,0.4,1.1s0.6,0.4,1,0.4c0.5,0,0.9-0.1,1.4-0.3v0.6
		c-0.2,0.1-0.4,0.2-0.7,0.2S40.9,49.5,40.6,49.5z M40.4,45.6c-0.3,0-0.6,0.1-0.8,0.3s-0.3,0.5-0.4,0.9h2.2c0-0.4-0.1-0.7-0.3-0.9
		S40.8,45.6,40.4,45.6z"/>
</g>
<g id="Group_2226" transform="translate(-6 114.307)">
	<path id="Path_1738" class="st0" d="M43.5-88.5h-25c-0.9,0-1.6-0.7-1.6-1.6v-5.1c0-0.9,0.7-1.6,1.6-1.6l0,0h1
		c0.3,0,0.5,0.2,0.5,0.5s-0.2,0.5-0.5,0.5h-1c-0.3,0-0.5,0.2-0.5,0.5v5.2c0,0.3,0.2,0.5,0.5,0.5h25c0.3,0,0.5-0.2,0.5-0.5v-5.1
		c0-0.3-0.2-0.5-0.5-0.5H21.6c-0.3,0-0.5-0.2-0.5-0.5s0.2-0.5,0.5-0.5h21.9c0.9,0,1.6,0.7,1.6,1.6v5.2
		C45.1-89.2,44.4-88.5,43.5-88.5"/>
	<path id="Path_1743" class="st0" d="M18-89.3v1.2c0,0.3,0.2,0.5,0.5,0.5s0.5-0.2,0.5-0.5v-1h-0.5C18.4-89.2,18.2-89.2,18-89.3"/>
	<path id="Path_1744" class="st0" d="M43-89.2v1c0,0.3,0.2,0.5,0.5,0.5s0.5-0.2,0.5-0.5l0,0v-1.2c-0.2,0.1-0.3,0.2-0.5,0.2H43z"/>
	<path id="Path_1760" class="st0" d="M21.7-91.6c-0.9,0-1.6-0.7-1.6-1.6s0.7-1.6,1.6-1.6s1.6,0.7,1.6,1.6l0,0
		C23.2-92.3,22.5-91.6,21.7-91.6 M21.7-93.7c-0.3,0-0.5,0.2-0.5,0.5s0.2,0.5,0.5,0.5s0.5-0.2,0.5-0.5l0,0
		C22.2-93.4,22-93.7,21.7-93.7"/>
	<path id="Path_1761" class="st0" d="M35.2-91.6c-0.3,0-0.5-0.2-0.5-0.5l0,0v-2.1c0-0.3,0.2-0.5,0.5-0.5s0.5,0.2,0.5,0.5v2.1
		C35.7-91.8,35.5-91.6,35.2-91.6"/>
	<path id="Path_1762" class="st0" d="M37.3-91.6c-0.3,0-0.5-0.2-0.5-0.5l0,0v-2.1c0-0.3,0.2-0.5,0.5-0.5s0.5,0.2,0.5,0.5v2.1
		C37.8-91.8,37.6-91.6,37.3-91.6"/>
	<path id="Path_1763" class="st0" d="M39.4-91.6c-0.3,0-0.5-0.2-0.5-0.5l0,0v-2.1c0-0.3,0.2-0.5,0.5-0.5s0.5,0.2,0.5,0.5v2.1
		C39.9-91.8,39.7-91.6,39.4-91.6"/>
	<path id="Path_1764" class="st0" d="M41.5-91.6c-0.3,0-0.5-0.2-0.5-0.5l0,0v-2.1c0-0.3,0.2-0.5,0.5-0.5s0.5,0.2,0.5,0.5v2.1
		C42-91.8,41.7-91.6,41.5-91.6"/>
	<path id="Path_1765" class="st0" d="M26.4-92.1c0,0.3-0.2,0.5-0.5,0.5s-0.5-0.2-0.5-0.5s0.2-0.5,0.5-0.5
		C26.1-92.7,26.4-92.4,26.4-92.1"/>
	<path id="Path_1766" class="st0" d="M26.4-94.1c0,0.3-0.2,0.5-0.5,0.5s-0.5-0.2-0.5-0.5s0.2-0.5,0.5-0.5
		C26.1-94.7,26.4-94.4,26.4-94.1"/>
	<path id="Path_1767" class="st0" d="M28.4-92.1c0,0.3-0.2,0.5-0.5,0.5s-0.5-0.2-0.5-0.5s0.2-0.5,0.5-0.5
		C28.2-92.7,28.4-92.4,28.4-92.1"/>
	<path id="Path_1768" class="st0" d="M30.5-92.1c0,0.3-0.2,0.5-0.5,0.5s-0.5-0.2-0.5-0.5s0.2-0.5,0.5-0.5
		C30.3-92.7,30.5-92.4,30.5-92.1"/>
	<path id="Path_1769" class="st0" d="M32.6-92.1c0,0.3-0.2,0.5-0.5,0.5s-0.5-0.2-0.5-0.5s0.2-0.5,0.5-0.5
		C32.4-92.7,32.6-92.4,32.6-92.1"/>
	<path id="Path_1770" class="st0" d="M28.4-94.1c0,0.3-0.2,0.5-0.5,0.5s-0.5-0.2-0.5-0.5s0.2-0.5,0.5-0.5
		C28.2-94.7,28.4-94.4,28.4-94.1"/>
	<path id="Path_1771" class="st0" d="M30.5-94.1c0,0.3-0.2,0.5-0.5,0.5s-0.5-0.2-0.5-0.5s0.2-0.5,0.5-0.5
		C30.3-94.7,30.5-94.4,30.5-94.1"/>
	<path id="Path_1772" class="st0" d="M32.6-94.1c0,0.3-0.2,0.5-0.5,0.5s-0.5-0.2-0.5-0.5s0.2-0.5,0.5-0.5
		C32.4-94.7,32.6-94.4,32.6-94.1"/>
</g>
<g id="Group_2229" transform="translate(-6 114.159)">
	<g id="Group_2224" transform="translate(-37.172)">
		<path id="Path_1731" class="st2" d="M80-99.1H56.3c-0.9,0-1.6-0.7-1.6-1.6v-4c0-0.9,0.7-1.6,1.6-1.6H80c0.9,0,1.6,0.7,1.6,1.6v4
			C81.7-99.8,80.9-99.1,80-99.1"/>
		<path id="Path_1734" class="st3" d="M59.9-102.7c0,0.6-0.5,1.1-1.1,1.1s-1.1-0.5-1.1-1.1s0.5-1.1,1.1-1.1S59.9-103.3,59.9-102.7"
			/>
		<path id="Path_1741-2" class="st4" d="M55.2-99v1.2c0,0.3,0.2,0.5,0.5,0.5s0.5-0.2,0.5-0.5v-1h-0.5C55.5-98.8,55.4-98.9,55.2-99"
			/>
		<path id="Path_1742-2" class="st4" d="M80.2-98.8v1c0,0.3,0.2,0.5,0.5,0.5s0.5-0.2,0.5-0.5V-99c-0.2,0.1-0.3,0.2-0.5,0.2H80.2z"/>
		<path id="Path_1745-2" class="st4" d="M80.7-98.3h-25c-0.9,0-1.6-0.7-1.6-1.6l0,0v-5.2c0-0.9,0.7-1.6,1.6-1.6h1
			c0.3,0,0.5,0.2,0.5,0.5s-0.2,0.5-0.5,0.5l0,0h-1c-0.3,0-0.5,0.2-0.5,0.5v5.2c0,0.3,0.2,0.5,0.5,0.5h25c0.3,0,0.5-0.2,0.5-0.5v-5.2
			c0-0.3-0.2-0.5-0.5-0.5H58.8c-0.3,0-0.5-0.2-0.5-0.5s0.2-0.5,0.5-0.5l0,0h21.9c0.9,0,1.6,0.7,1.6,1.6v5.2
			C82.3-99,81.6-98.3,80.7-98.3"/>
		<path id="Path_1773-2" class="st4" d="M58.9-101.4c-0.9,0-1.6-0.7-1.6-1.6s0.7-1.6,1.6-1.6c0.9,0,1.6,0.7,1.6,1.6l0,0
			C60.4-102.1,59.7-101.4,58.9-101.4 M58.9-103.5c-0.3,0-0.5,0.2-0.5,0.5s0.2,0.5,0.5,0.5s0.5-0.2,0.5-0.5l0,0
			C59.4-103.3,59.1-103.5,58.9-103.5"/>
		<path id="Path_1774-2" class="st4" d="M72.4-101.4c-0.3,0-0.5-0.2-0.5-0.5l0,0v-2.1c0-0.3,0.2-0.5,0.5-0.5s0.5,0.2,0.5,0.5v2.1
			C72.9-101.7,72.7-101.4,72.4-101.4"/>
		<path id="Path_1775-2" class="st4" d="M74.5-101.4c-0.3,0-0.5-0.2-0.5-0.5l0,0v-2.1c0-0.3,0.2-0.5,0.5-0.5s0.5,0.2,0.5,0.5v2.1
			C75-101.7,74.8-101.4,74.5-101.4"/>
		<path id="Path_1776-2" class="st4" d="M76.6-101.4c-0.3,0-0.5-0.2-0.5-0.5l0,0v-2.1c0-0.3,0.2-0.5,0.5-0.5s0.5,0.2,0.5,0.5v2.1
			C77.1-101.7,76.9-101.4,76.6-101.4"/>
		<path id="Path_1777-2" class="st4" d="M78.7-101.4c-0.3,0-0.5-0.2-0.5-0.5l0,0v-2.1c0-0.3,0.2-0.5,0.5-0.5s0.5,0.2,0.5,0.5v2.1
			C79.2-101.7,78.9-101.4,78.7-101.4"/>
		<path id="Path_1778-2" class="st4" d="M63.5-102c0,0.3-0.2,0.5-0.5,0.5s-0.5-0.2-0.5-0.5s0.2-0.5,0.5-0.5l0,0
			C63.3-102.5,63.5-102.2,63.5-102"/>
		<path id="Path_1779" class="st4" d="M63.5-104c0,0.3-0.2,0.5-0.5,0.5s-0.5-0.2-0.5-0.5s0.2-0.5,0.5-0.5l0,0
			C63.3-104.6,63.5-104.3,63.5-104"/>
		<path id="Path_1780-2" class="st4" d="M65.6-102c0,0.3-0.2,0.5-0.5,0.5s-0.5-0.2-0.5-0.5s0.2-0.5,0.5-0.5l0,0
			C65.4-102.5,65.6-102.2,65.6-102"/>
		<path id="Path_1781-2" class="st4" d="M67.7-102c0,0.3-0.2,0.5-0.5,0.5s-0.5-0.2-0.5-0.5s0.2-0.5,0.5-0.5l0,0
			C67.5-102.5,67.7-102.2,67.7-102"/>
		<path id="Path_1782-2" class="st4" d="M69.8-102c0,0.3-0.2,0.5-0.5,0.5s-0.5-0.2-0.5-0.5s0.2-0.5,0.5-0.5l0,0
			C69.6-102.5,69.8-102.2,69.8-102"/>
		<path id="Path_1783" class="st4" d="M65.6-104c0,0.3-0.2,0.5-0.5,0.5s-0.5-0.2-0.5-0.5s0.2-0.5,0.5-0.5l0,0
			C65.4-104.6,65.6-104.3,65.6-104"/>
		<path id="Path_1784" class="st4" d="M67.7-104c0,0.3-0.2,0.5-0.5,0.5s-0.5-0.2-0.5-0.5s0.2-0.5,0.5-0.5l0,0
			C67.5-104.6,67.7-104.3,67.7-104"/>
		<path id="Path_1785" class="st4" d="M69.8-104c0,0.3-0.2,0.5-0.5,0.5s-0.5-0.2-0.5-0.5s0.2-0.5,0.5-0.5l0,0
			C69.6-104.6,69.8-104.3,69.8-104"/>
	</g>
	<g id="Group_2225" transform="translate(-37.172 -0.419)">
		<path id="Path_1732" class="st2" d="M80-88.7H56.3c-0.9,0-1.6-0.7-1.6-1.6v-4c0-0.9,0.7-1.6,1.6-1.6H80c0.9,0,1.6,0.7,1.6,1.6v4
			C81.7-89.4,80.9-88.7,80-88.7"/>
		<path id="Path_1735" class="st3" d="M60-92.6c0,0.6-0.5,1.1-1.1,1.1s-1.1-0.5-1.1-1.1s0.5-1.1,1.1-1.1S60-93.2,60-92.6"/>
		<path id="Path_1738-2" class="st4" d="M80.7-87.9h-25c-0.9,0-1.6-0.7-1.6-1.6l0,0v-5.2c0-0.9,0.7-1.6,1.6-1.6h1
			c0.3,0,0.5,0.2,0.5,0.5s-0.2,0.5-0.5,0.5l0,0h-1c-0.3,0-0.5,0.2-0.5,0.5v5.2c0,0.3,0.2,0.5,0.5,0.5h25c0.3,0,0.5-0.2,0.5-0.5v-5.2
			c0-0.3-0.2-0.5-0.5-0.5H58.8c-0.3,0-0.5-0.2-0.5-0.5s0.2-0.5,0.5-0.5l0,0h21.9c0.9,0,1.6,0.7,1.6,1.6v5.2
			C82.3-88.6,81.6-87.9,80.7-87.9"/>
		<path id="Path_1743-2" class="st4" d="M55.2-88.6v1.2c0,0.3,0.2,0.5,0.5,0.5s0.5-0.2,0.5-0.5v-1h-0.5
			C55.5-88.4,55.4-88.5,55.2-88.6"/>
		<path id="Path_1744-2" class="st4" d="M80.2-88.4v1c0,0.3,0.2,0.5,0.5,0.5s0.5-0.2,0.5-0.5l0,0v-1.2c-0.2,0.1-0.3,0.2-0.5,0.2
			H80.2z"/>
		<path id="Path_1760-2" class="st4" d="M58.9-91c-0.9,0-1.6-0.7-1.6-1.6s0.7-1.6,1.6-1.6c0.9,0,1.6,0.7,1.6,1.6
			C60.4-91.7,59.7-91,58.9-91 M58.9-93.1c-0.3,0-0.5,0.2-0.5,0.5s0.2,0.5,0.5,0.5s0.5-0.2,0.5-0.5l0,0
			C59.4-92.9,59.1-93.1,58.9-93.1"/>
		<path id="Path_1761-2" class="st4" d="M72.4-91c-0.3,0-0.5-0.2-0.5-0.5l0,0v-2.1c0-0.3,0.2-0.5,0.5-0.5s0.5,0.2,0.5,0.5v2.1
			C72.9-91.3,72.7-91,72.4-91"/>
		<path id="Path_1762-2" class="st4" d="M74.5-91c-0.3,0-0.5-0.2-0.5-0.5l0,0v-2.1c0-0.3,0.2-0.5,0.5-0.5s0.5,0.2,0.5,0.5l0,0v2.1
			C75-91.3,74.8-91,74.5-91"/>
		<path id="Path_1763-2" class="st4" d="M76.6-91c-0.3,0-0.5-0.2-0.5-0.5l0,0v-2.1c0-0.3,0.2-0.5,0.5-0.5s0.5,0.2,0.5,0.5v2.1
			C77.1-91.3,76.9-91,76.6-91"/>
		<path id="Path_1764-2" class="st4" d="M78.7-91c-0.3,0-0.5-0.2-0.5-0.5l0,0v-2.1c0-0.3,0.2-0.5,0.5-0.5s0.5,0.2,0.5,0.5l0,0v2.1
			C79.2-91.3,78.9-91,78.7-91"/>
		<path id="Path_1765-2" class="st4" d="M63.5-91.5c0,0.3-0.2,0.5-0.5,0.5s-0.5-0.2-0.5-0.5S62.7-92,63-92l0,0
			C63.3-92.1,63.5-91.8,63.5-91.5"/>
		<path id="Path_1766-2" class="st4" d="M63.5-93.6c0,0.3-0.2,0.5-0.5,0.5s-0.5-0.2-0.5-0.5s0.2-0.5,0.5-0.5l0,0
			C63.3-94.1,63.5-93.9,63.5-93.6"/>
		<path id="Path_1767-2" class="st4" d="M65.6-91.5c0,0.3-0.2,0.5-0.5,0.5s-0.5-0.2-0.5-0.5s0.2-0.5,0.5-0.5l0,0
			C65.4-92.1,65.6-91.8,65.6-91.5"/>
		<path id="Path_1768-2" class="st4" d="M67.7-91.5c0,0.3-0.2,0.5-0.5,0.5s-0.5-0.2-0.5-0.5s0.2-0.5,0.5-0.5l0,0
			C67.5-92.1,67.7-91.8,67.7-91.5"/>
		<path id="Path_1769-2" class="st4" d="M69.8-91.5c0,0.3-0.2,0.5-0.5,0.5s-0.5-0.2-0.5-0.5S69-92,69.3-92l0,0
			C69.6-92.1,69.8-91.8,69.8-91.5"/>
		<path id="Path_1770-2" class="st4" d="M65.6-93.6c0,0.3-0.2,0.5-0.5,0.5s-0.5-0.2-0.5-0.5s0.2-0.5,0.5-0.5l0,0
			C65.4-94.1,65.6-93.9,65.6-93.6"/>
		<path id="Path_1771-2" class="st4" d="M67.7-93.6c0,0.3-0.2,0.5-0.5,0.5s-0.5-0.2-0.5-0.5s0.2-0.5,0.5-0.5l0,0
			C67.5-94.1,67.7-93.9,67.7-93.6"/>
		<path id="Path_1772-2" class="st4" d="M69.8-93.6c0,0.3-0.2,0.5-0.5,0.5s-0.5-0.2-0.5-0.5s0.2-0.5,0.5-0.5l0,0
			C69.6-94.1,69.8-93.9,69.8-93.6"/>
	</g>
	<g id="Group_2227" transform="translate(-37.172 -0.837)">
		<path id="Path_1733" class="st2" d="M80-78.1H56.3c-0.9,0-1.6-0.7-1.6-1.6v-4c0-0.9,0.7-1.6,1.6-1.6H80c0.9,0,1.6,0.7,1.6,1.6v4
			C81.7-78.8,80.9-78.1,80-78.1"/>
		<path id="Path_1736" class="st3" d="M60-82.2c0,0.6-0.5,1.1-1.1,1.1s-1.1-0.5-1.1-1.1s0.5-1.1,1.1-1.1l0,0
			C59.5-83.3,60-82.8,60-82.2"/>
		<path id="Path_1737-2" class="st4" d="M80.7-77.5h-25c-0.9,0-1.6-0.7-1.6-1.6l0,0v-5.1c0-0.9,0.7-1.6,1.6-1.6h1
			c0.3,0,0.5,0.2,0.5,0.5s-0.2,0.5-0.5,0.5l0,0h-1c-0.3,0-0.5,0.2-0.5,0.5v5.2c0,0.3,0.2,0.5,0.5,0.5h25c0.3,0,0.5-0.2,0.5-0.5v-5.1
			c0-0.3-0.2-0.5-0.5-0.5H58.8c-0.3,0-0.5-0.2-0.5-0.5s0.2-0.5,0.5-0.5l0,0h21.9c0.9,0,1.6,0.7,1.6,1.6v5.2
			C82.3-78.2,81.6-77.5,80.7-77.5"/>
		<path id="Path_1739-2" class="st4" d="M55.2-78.2v2.2c0,0.3,0.2,0.5,0.5,0.5s0.5-0.2,0.5-0.5v-2.1h-0.5
			C55.5-78,55.4-78.1,55.2-78.2"/>
		<path id="Path_1740-2" class="st4" d="M80.2-78v2.1c0,0.3,0.2,0.5,0.5,0.5s0.5-0.2,0.5-0.5v-2.3C81-78.1,80.9-78,80.7-78H80.2z"/>
		<path id="Path_1746-2" class="st4" d="M77.6-75.4H58.8c-0.3,0-0.5-0.2-0.5-0.5s0.2-0.5,0.5-0.5l0,0h18.8c0.3,0,0.5,0.2,0.5,0.5
			S77.9-75.4,77.6-75.4L77.6-75.4"/>
		<path id="Path_1747-2" class="st4" d="M58.9-80.6c-0.9,0-1.6-0.7-1.6-1.6s0.7-1.6,1.6-1.6c0.9,0,1.6,0.7,1.6,1.6
			C60.4-81.3,59.7-80.6,58.9-80.6 M58.9-82.7c-0.3,0-0.5,0.2-0.5,0.5s0.2,0.5,0.5,0.5s0.5-0.2,0.5-0.5l0,0
			C59.4-82.4,59.1-82.7,58.9-82.7"/>
		<path id="Path_1748-2" class="st4" d="M72.4-80.6c-0.3,0-0.5-0.2-0.5-0.5l0,0v-2.1c0-0.3,0.2-0.5,0.5-0.5s0.5,0.2,0.5,0.5v2.1
			C72.9-80.8,72.7-80.6,72.4-80.6"/>
		<path id="Path_1749-2" class="st4" d="M74.5-80.6c-0.3,0-0.5-0.2-0.5-0.5l0,0v-2.1c0-0.3,0.2-0.5,0.5-0.5s0.5,0.2,0.5,0.5v2.1
			C75-80.8,74.8-80.6,74.5-80.6"/>
		<path id="Path_1750-2" class="st4" d="M76.6-80.6c-0.3,0-0.5-0.2-0.5-0.5l0,0v-2.1c0-0.3,0.2-0.5,0.5-0.5s0.5,0.2,0.5,0.5v2.1
			C77.1-80.8,76.9-80.6,76.6-80.6"/>
		<path id="Path_1751-2" class="st4" d="M78.7-80.6c-0.3,0-0.5-0.2-0.5-0.5l0,0v-2.1c0-0.3,0.2-0.5,0.5-0.5s0.5,0.2,0.5,0.5v2.1
			C79.2-80.8,78.9-80.6,78.7-80.6"/>
		<path id="Path_1752-2" class="st4" d="M63.5-81.1c0,0.3-0.2,0.5-0.5,0.5s-0.5-0.2-0.5-0.5s0.2-0.5,0.5-0.5l0,0
			C63.3-81.6,63.5-81.4,63.5-81.1"/>
		<path id="Path_1753-2" class="st4" d="M63.5-83.2c0,0.3-0.2,0.5-0.5,0.5s-0.5-0.2-0.5-0.5s0.2-0.5,0.5-0.5l0,0
			C63.3-83.7,63.5-83.5,63.5-83.2"/>
		<path id="Path_1754-2" class="st4" d="M65.6-81.1c0,0.3-0.2,0.5-0.5,0.5s-0.5-0.2-0.5-0.5s0.2-0.5,0.5-0.5l0,0
			C65.4-81.6,65.6-81.4,65.6-81.1"/>
		<path id="Path_1755-2" class="st4" d="M67.7-81.1c0,0.3-0.2,0.5-0.5,0.5s-0.5-0.2-0.5-0.5s0.2-0.5,0.5-0.5l0,0
			C67.5-81.6,67.7-81.4,67.7-81.1"/>
		<path id="Path_1756-2" class="st4" d="M69.8-81.1c0,0.3-0.2,0.5-0.5,0.5s-0.5-0.2-0.5-0.5s0.2-0.5,0.5-0.5l0,0
			C69.6-81.6,69.8-81.4,69.8-81.1"/>
		<path id="Path_1757-2" class="st4" d="M65.6-83.2c0,0.3-0.2,0.5-0.5,0.5s-0.5-0.2-0.5-0.5s0.2-0.5,0.5-0.5l0,0
			C65.4-83.7,65.6-83.5,65.6-83.2"/>
		<path id="Path_1758-2" class="st4" d="M67.7-83.2c0,0.3-0.2,0.5-0.5,0.5s-0.5-0.2-0.5-0.5s0.2-0.5,0.5-0.5l0,0
			C67.5-83.7,67.7-83.5,67.7-83.2"/>
		<path id="Path_1759-2" class="st4" d="M69.8-83.2c0,0.3-0.2,0.5-0.5,0.5s-0.5-0.2-0.5-0.5s0.2-0.5,0.5-0.5l0,0
			C69.6-83.7,69.8-83.5,69.8-83.2"/>
	</g>
</g>
</svg>
