<svg xmlns="http://www.w3.org/2000/svg" width="24.813" height="24.813" viewBox="0 0 24.813 24.813">
  <path id="Icon_ionic-md-settings" data-name="Icon ionic-md-settings" d="M25.2,17.022a7.759,7.759,0,0,0,.063-1.241c0-.434-.063-.806-.063-1.241l2.664-2.047a.57.57,0,0,0,.127-.806l-2.538-4.28a.618.618,0,0,0-.761-.248L21.523,8.4a9.234,9.234,0,0,0-2.157-1.241l-.444-3.287a.68.68,0,0,0-.635-.5H13.212a.68.68,0,0,0-.634.5L12.07,7.159A10.744,10.744,0,0,0,9.912,8.4L6.74,7.159a.594.594,0,0,0-.761.248l-2.538,4.28a.749.749,0,0,0,.127.806L6.3,14.541c0,.434-.063.806-.063,1.241s.063.806.063,1.241L3.632,19.069a.57.57,0,0,0-.127.806l2.538,4.28A.618.618,0,0,0,6.8,24.4l3.172-1.241A9.233,9.233,0,0,0,12.133,24.4l.507,3.287a.615.615,0,0,0,.634.5h5.076a.68.68,0,0,0,.635-.5l.508-3.287a10.738,10.738,0,0,0,2.157-1.241L24.822,24.4a.594.594,0,0,0,.761-.248l2.538-4.28a.748.748,0,0,0-.127-.806Zm-9.454,3.1a4.343,4.343,0,1,1,4.441-4.342A4.365,4.365,0,0,1,15.749,20.123Z" transform="translate(-3.375 -3.375)" fill="#666"/>
</svg>
