<svg xmlns="http://www.w3.org/2000/svg" width="19.161" height="19.451" viewBox="0 0 19.161 19.451">
  <g id="Group_2637" data-name="Group 2637" transform="translate(2636.5 553.018)">
    <g id="Group_2632" data-name="Group 2632" transform="translate(-2636.5 -553.018)">
      <path id="Path_3858" data-name="Path 3858" d="M20.622,2.1a6.246,6.246,0,0,0-5.6,9L8.641,17.488l-.128,3.357,2.55.127,1.317-.892.085-1.487,1.53-.17.17-1.02s.85.17.85.042S15.143,16,15.143,16l2.082-.255,1.1-1.487.049-.081A6.245,6.245,0,1,0,20.622,2.1" transform="translate(-8.081 -1.997)" fill="#8db2ea"/>
      <path id="Path_3859" data-name="Path 3859" d="M265.659,65.375a1.317,1.317,0,1,1-1.318-1.317,1.317,1.317,0,0,1,1.318,1.317" transform="translate(-249.672 -60.806)" fill="#fff"/>
      <path id="Path_3860" data-name="Path 3860" d="M.347,19.451A.632.632,0,0,1,0,18.8c.013-1.045.01-2.089,0-3.134a.744.744,0,0,1,.237-.572q3.027-3.018,6.048-6.041a.262.262,0,0,0,.09-.321A6.573,6.573,0,1,1,14,12.99a6.411,6.411,0,0,1-3.589-.215.239.239,0,0,0-.294.07c-.438.448-.887.886-1.326,1.334a.655.655,0,0,1-.507.212c-.3-.006-.606,0-.938,0,0,.342,0,.669,0,1a.462.462,0,0,1-.359.493,1.7,1.7,0,0,1-.284.019c-.093,0-.186,0-.3,0,0,.154,0,.285,0,.415a.475.475,0,0,1-.528.529c-.366,0-.732,0-1.119,0,0,.366-.007.712,0,1.058a.669.669,0,0,1-.223.54c-.226.212-.438.44-.661.655-.13.125-.273.238-.409.357Zm6.045-4.528c0-.317,0-.62,0-.923a.5.5,0,0,1,.568-.574c.355,0,.709.007,1.064-.006A.457.457,0,0,0,8.3,13.3c.472-.459.941-.922,1.4-1.4a.591.591,0,0,1,.733-.151,5.569,5.569,0,0,0,2.975.369A5.617,5.617,0,1,0,7.363,8.648c.176.435.158.524-.172.854q-3.049,3.049-6.1,6.1c-.052.052-.124.116-.127.177-.014.255-.006.511-.006.766l.075.047a1.078,1.078,0,0,1,.124-.19q2.462-2.467,4.928-4.931a1.793,1.793,0,0,1,.166-.156.426.426,0,0,1,.613.58,1.447,1.447,0,0,1-.166.182q-2.8,2.8-5.6,5.6c-.056.056-.128.125-.134.194-.018.2-.006.4-.006.591.033.015.044.025.055.025q.655,0,1.31.005a2.074,2.074,0,0,0,.77-.025,2.085,2.085,0,0,0,.59-.551.435.435,0,0,0,.108-.261c.011-.418,0-.836.006-1.254a.48.48,0,0,1,.521-.52c.1,0,.2,0,.3,0h.809c-.03-.761.043-.991.959-.961" transform="translate(0 0)" fill="#5d5d5d"/>
      <path id="Path_3861" data-name="Path 3861" d="M251.919,56.42a1.795,1.795,0,1,1,1.738,1.839,1.8,1.8,0,0,1-1.738-1.839m1.8.878a.836.836,0,0,0,.835-.831.845.845,0,0,0-.831-.839.834.834,0,0,0-.839.844.825.825,0,0,0,.835.825" transform="translate(-239.129 -51.895)" fill="#5d5d5d"/>
    </g>
  </g>
</svg>
