<?xml version="1.0" encoding="utf-8"?>
<!-- Generator: Adobe Illustrator 26.0.2, SVG Export Plug-In . SVG Version: 6.00 Build 0)  -->
<svg version="1.1" id="Layer_1" xmlns="http://www.w3.org/2000/svg" xmlns:xlink="http://www.w3.org/1999/xlink" x="0px" y="0px"
	 viewBox="0 0 50 60" style="enable-background:new 0 0 50 60;" xml:space="preserve">
<style type="text/css">
	.st0{enable-background:new    ;}
	.st1{fill:#707070;}
</style>
<g class="st0">
	<path class="st1" d="M10.4,50c0,0.5-0.2,0.9-0.5,1.2S9,51.6,8.4,51.6c-0.7,0-1.2-0.1-1.6-0.3v-0.6c0.2,0.1,0.5,0.2,0.8,0.2
		S8.1,51,8.4,51c0.4,0,0.8-0.1,1-0.3s0.3-0.4,0.3-0.7c0-0.2,0-0.4-0.1-0.5s-0.2-0.2-0.4-0.3S8.8,49,8.4,48.8
		c-0.5-0.2-0.9-0.4-1.1-0.7s-0.3-0.6-0.3-1c0-0.4,0.2-0.8,0.5-1.1s0.8-0.4,1.3-0.4c0.6,0,1.1,0.1,1.6,0.3l-0.2,0.6
		c-0.5-0.2-0.9-0.3-1.4-0.3c-0.4,0-0.6,0.1-0.8,0.2s-0.3,0.4-0.3,0.6c0,0.2,0,0.4,0.1,0.5S7.9,47.9,8,48s0.4,0.2,0.8,0.3
		c0.6,0.2,1,0.4,1.2,0.7S10.4,49.6,10.4,50z"/>
	<path class="st1" d="M13.2,51.6c-0.6,0-1.1-0.2-1.4-0.6s-0.5-0.9-0.5-1.6c0-0.7,0.2-1.3,0.5-1.7s0.8-0.6,1.5-0.6
		c0.2,0,0.4,0,0.6,0.1s0.4,0.1,0.5,0.2l-0.2,0.6c-0.1-0.1-0.3-0.1-0.5-0.1s-0.3-0.1-0.4-0.1c-0.9,0-1.3,0.6-1.3,1.7
		c0,0.5,0.1,0.9,0.3,1.2s0.5,0.4,0.9,0.4c0.4,0,0.7-0.1,1.1-0.2v0.6C14,51.5,13.6,51.6,13.2,51.6z"/>
	<path class="st1" d="M18.2,51.5v-2.8c0-0.3-0.1-0.6-0.2-0.8s-0.4-0.3-0.7-0.3c-0.5,0-0.8,0.1-1,0.4s-0.3,0.6-0.3,1.2v2.2h-0.6v-6.1
		h0.6v1.8c0,0.2,0,0.4,0,0.6h0c0.1-0.2,0.3-0.4,0.5-0.5s0.5-0.2,0.8-0.2c0.5,0,0.9,0.1,1.2,0.4s0.4,0.6,0.4,1.2v2.8H18.2z"/>
	<path class="st1" d="M22,51.6c-0.6,0-1.1-0.2-1.5-0.6S20,50.1,20,49.4c0-0.7,0.2-1.2,0.5-1.6s0.8-0.6,1.4-0.6c0.5,0,1,0.2,1.3,0.5
		s0.5,0.8,0.5,1.4v0.4h-2.9c0,0.5,0.1,0.9,0.4,1.1s0.6,0.4,1,0.4c0.5,0,0.9-0.1,1.4-0.3v0.6c-0.2,0.1-0.4,0.2-0.7,0.2
		S22.3,51.6,22,51.6z M21.8,47.7c-0.3,0-0.6,0.1-0.8,0.3s-0.3,0.5-0.4,0.9h2.2c0-0.4-0.1-0.7-0.3-0.9S22.2,47.7,21.8,47.7z"/>
	<path class="st1" d="M27.6,50.9L27.6,50.9c-0.3,0.4-0.8,0.7-1.4,0.7c-0.6,0-1-0.2-1.3-0.6s-0.5-0.9-0.5-1.6s0.2-1.3,0.5-1.6
		s0.7-0.6,1.3-0.6c0.6,0,1,0.2,1.3,0.6h0.1l0-0.3l0-0.3v-1.7h0.6v6.1h-0.5L27.6,50.9z M26.3,51c0.4,0,0.8-0.1,1-0.4s0.3-0.6,0.3-1.2
		v-0.1c0-0.6-0.1-1-0.3-1.3s-0.5-0.4-1-0.4c-0.4,0-0.7,0.1-0.9,0.4s-0.3,0.7-0.3,1.3c0,0.5,0.1,1,0.3,1.2S25.9,51,26.3,51z"/>
	<path class="st1" d="M30.2,47.2V50c0,0.3,0.1,0.6,0.2,0.8s0.4,0.3,0.7,0.3c0.4,0,0.8-0.1,1-0.4s0.3-0.6,0.3-1.2v-2.2h0.6v4.3h-0.5
		l-0.1-0.6h0c-0.1,0.2-0.3,0.4-0.6,0.5s-0.5,0.2-0.8,0.2c-0.5,0-0.9-0.1-1.2-0.4s-0.4-0.6-0.4-1.2v-2.8H30.2z"/>
	<path class="st1" d="M35.2,51.5h-0.6v-6.1h0.6V51.5z"/>
	<path class="st1" d="M38.3,51.6c-0.6,0-1.1-0.2-1.5-0.6s-0.5-0.9-0.5-1.6c0-0.7,0.2-1.2,0.5-1.6s0.8-0.6,1.4-0.6
		c0.5,0,1,0.2,1.3,0.5s0.5,0.8,0.5,1.4v0.4H37c0,0.5,0.1,0.9,0.4,1.1s0.6,0.4,1,0.4c0.5,0,0.9-0.1,1.4-0.3v0.6
		c-0.2,0.1-0.4,0.2-0.7,0.2S38.6,51.6,38.3,51.6z M38.2,47.7c-0.3,0-0.6,0.1-0.8,0.3S37,48.6,37,48.9h2.2c0-0.4-0.1-0.7-0.3-0.9
		S38.5,47.7,38.2,47.7z"/>
	<path class="st1" d="M43,47.1c0.2,0,0.4,0,0.5,0l-0.1,0.6c-0.2,0-0.3-0.1-0.5-0.1c-0.3,0-0.6,0.1-0.9,0.4s-0.4,0.6-0.4,1.1v2.3H41
		v-4.3h0.5l0.1,0.8h0c0.2-0.3,0.3-0.5,0.6-0.6S42.7,47.1,43,47.1z"/>
</g>
<g id="Group_2219" transform="translate(3027.22 868.401)">
	<g id="Group_1565" transform="translate(5197.78 155.599)">
		<path id="Path_1788" class="st1" d="M-8196.9-1008.9c0.1-0.3,0.5-0.4,0.7-0.3c0.3,0.1,0.4,0.5,0.3,0.7c-0.1,0.3-0.5,0.4-0.7,0.3
			l0,0C-8196.9-1008.2-8197-1008.6-8196.9-1008.9L-8196.9-1008.9"/>
		<path id="Path_1789" class="st1" d="M-8204.3-990.9c0.1-0.3,0.4-0.4,0.7-0.3c0.3,0.1,0.4,0.4,0.3,0.7l0,0
			c-0.1,0.3-0.5,0.4-0.8,0.3C-8204.3-990.3-8204.4-990.6-8204.3-990.9"/>
		<path id="Path_1790" class="st1" d="M-8193.6-1006.9c0.2-0.2,0.6-0.2,0.8,0c0.2,0.2,0.2,0.6,0,0.8c-0.2,0.2-0.6,0.2-0.8,0
			C-8193.8-1006.3-8193.8-1006.7-8193.6-1006.9L-8193.6-1006.9"/>
		<path id="Path_1791" class="st1" d="M-8207.3-993.2c0.2-0.2,0.6-0.2,0.8,0s0.2,0.6,0,0.8c-0.2,0.2-0.6,0.2-0.8,0
			C-8207.6-992.6-8207.6-993-8207.3-993.2"/>
		<path id="Path_1792" class="st1" d="M-8191.3-1003.9c0.3-0.1,0.6,0,0.7,0.3c0.1,0.3,0,0.6-0.3,0.7c-0.3,0.1-0.6,0-0.7-0.3
			S-8191.6-1003.8-8191.3-1003.9"/>
		<path id="Path_1793" class="st1" d="M-8209.3-996.5c0.3-0.1,0.6,0,0.7,0.3c0.1,0.3,0,0.6-0.3,0.7c-0.3,0.1-0.6,0-0.7-0.3
			C-8209.7-996-8209.6-996.3-8209.3-996.5"/>
		<path id="Path_1794" class="st1" d="M-8190.4-1000.2c0.3,0,0.6,0.3,0.6,0.6c0,0.3-0.3,0.6-0.6,0.6c-0.3,0-0.6-0.3-0.6-0.6
			C-8190.9-1000-8190.7-1000.2-8190.4-1000.2L-8190.4-1000.2"/>
		<path id="Path_1795" class="st1" d="M-8209.8-1000.2c0.3,0,0.6,0.3,0.6,0.6c0,0.3-0.3,0.6-0.6,0.6s-0.6-0.3-0.6-0.6l0,0
			C-8210.4-1000-8210.1-1000.2-8209.8-1000.2"/>
		<path id="Path_1796" class="st1" d="M-8190.9-996.5c0.3,0.1,0.4,0.5,0.3,0.7c-0.1,0.3-0.5,0.4-0.7,0.3c-0.3-0.1-0.4-0.5-0.3-0.7
			C-8191.5-996.5-8191.2-996.6-8190.9-996.5L-8190.9-996.5"/>
		<path id="Path_1797" class="st1" d="M-8208.8-1003.9c0.3,0.1,0.4,0.5,0.3,0.7c-0.1,0.3-0.5,0.4-0.7,0.3c-0.2-0.1-0.4-0.5-0.3-0.7
			l0,0C-8209.5-1003.9-8209.1-1004-8208.8-1003.9"/>
		<path id="Path_1798" class="st1" d="M-8192.8-993.2c0.2,0.2,0.2,0.6,0,0.8c-0.2,0.2-0.6,0.2-0.8,0c-0.2-0.2-0.2-0.6,0-0.8
			C-8193.4-993.4-8193-993.4-8192.8-993.2L-8192.8-993.2"/>
		<path id="Path_1799" class="st1" d="M-8206.5-1006.9c0.2,0.2,0.2,0.6,0,0.8c-0.2,0.2-0.6,0.2-0.8,0c-0.2-0.2-0.2-0.6,0-0.8
			C-8207.1-1007.2-8206.8-1007.2-8206.5-1006.9"/>
		<path id="Path_1800" class="st1" d="M-8195.8-990.9c0.1,0.3,0,0.6-0.3,0.7c-0.3,0.1-0.6,0-0.7-0.3c-0.1-0.3,0-0.6,0.3-0.7
			C-8196.3-991.3-8195.9-991.2-8195.8-990.9L-8195.8-990.9"/>
		<path id="Path_1801" class="st1" d="M-8203.3-1008.9c0.1,0.3,0,0.6-0.3,0.7c-0.3,0.1-0.6,0-0.7-0.3c-0.1-0.3,0-0.6,0.3-0.7l0,0
			C-8203.7-1009.3-8203.4-1009.1-8203.3-1008.9"/>
		<path id="Path_1802" class="st1" d="M-8199.5-989.9c0,0.3-0.3,0.6-0.6,0.6c-0.3,0-0.6-0.3-0.6-0.6c0-0.3,0.3-0.6,0.6-0.6l0,0
			C-8199.8-990.5-8199.5-990.3-8199.5-989.9"/>
		<path id="Path_1803" class="st1" d="M-8199.5-1009.4c0,0.3-0.3,0.6-0.6,0.6c-0.3,0-0.6-0.3-0.6-0.6c0-0.3,0.3-0.6,0.6-0.6
			C-8199.8-1009.9-8199.5-1009.7-8199.5-1009.4"/>
		<path id="Path_1804" class="st1" d="M-8200.1-1000.2c-0.3,0-0.6-0.3-0.6-0.6v-6.9c0-0.3,0.3-0.6,0.6-0.6c0.3,0,0.6,0.3,0.6,0.6
			v6.9C-8199.5-1000.5-8199.8-1000.2-8200.1-1000.2"/>
		<path id="Path_1805" class="st1" d="M-8200.1-997.9c-0.9,0-1.7-0.8-1.7-1.7c0-0.9,0.8-1.7,1.7-1.7c0.9,0,1.7,0.8,1.7,1.7
			C-8198.4-998.7-8199.1-997.9-8200.1-997.9 M-8200.1-1000.2c-0.3,0-0.6,0.3-0.6,0.6c0,0.3,0.3,0.6,0.6,0.6c0.3,0,0.6-0.3,0.6-0.6
			l0,0C-8199.5-1000-8199.8-1000.2-8200.1-1000.2"/>
		<path id="Path_1806" class="st1" d="M-8200.1-984.2c-8.5,0-15.4-6.9-15.4-15.4c0-3.9,1.5-7.7,4.1-10.5c0.2-0.2,0.6-0.2,0.8,0
			c0.2,0.2,0.2,0.6,0,0.8l0,0c-5.4,5.8-5.1,14.8,0.7,20.2c2.6,2.5,6.1,3.8,9.7,3.8c0.8,0,1.7-0.1,2.5-0.2c0.3-0.1,0.6,0.2,0.7,0.5
			s-0.2,0.6-0.5,0.7C-8198.3-984.3-8199.2-984.2-8200.1-984.2"/>
		<path id="Path_1807" class="st1" d="M-8185.3-1000.5c-0.3,0-0.5-0.2-0.6-0.5c-0.4-3.9-2.4-7.6-5.5-10c-0.3-0.2-0.3-0.6-0.1-0.8
			c0.2-0.3,0.6-0.3,0.8-0.1c3.4,2.6,5.6,6.5,6,10.8C-8184.7-1000.8-8184.9-1000.6-8185.3-1000.5L-8185.3-1000.5"/>
		<path id="Path_1808" class="st1" d="M-8209-1010.9c-0.3,0-0.6-0.3-0.6-0.6c0-0.2,0.1-0.3,0.2-0.5c4.7-3.6,11-4.1,16.3-1.5
			c0.3,0.1,0.4,0.5,0.3,0.8c-0.1,0.3-0.5,0.4-0.8,0.3c-4.9-2.5-10.7-1.9-15.1,1.4C-8208.8-1011-8208.9-1010.9-8209-1010.9"/>
		<path id="Path_1809" class="st1" d="M-8191.1-1011c-0.3,0-0.6-0.3-0.6-0.6c0-0.1,0-0.2,0.1-0.3l1.3-1.8c0.2-0.3,0.5-0.3,0.8-0.2
			c0.3,0.2,0.3,0.5,0.2,0.8l0,0l-1.3,1.8C-8190.7-1011.1-8190.9-1011-8191.1-1011"/>
		<path id="Path_1810" class="st1" d="M-8209-1010.9c-0.2,0-0.4-0.1-0.5-0.2l-1.3-1.9c-0.2-0.2-0.2-0.6,0.1-0.8s0.6-0.1,0.8,0.1
			l1.3,1.8c0.2,0.3,0.1,0.6-0.1,0.8C-8208.8-1010.9-8208.9-1010.9-8209-1010.9"/>
		<path id="Path_1811" class="st1" d="M-8198.9-1013.9c-0.3,0-0.6-0.3-0.6-0.6v-2.9h-1.1v0.6c0,0.3-0.3,0.6-0.6,0.6
			s-0.6-0.3-0.6-0.6v-1.1c0-0.3,0.3-0.6,0.6-0.6l0,0h2.3c0.3,0,0.6,0.2,0.6,0.5l0,0v3.4C-8198.4-1014.2-8198.6-1013.9-8198.9-1013.9
			"/>
		<path id="Path_1812" class="st1" d="M-8200.1-987.1c-6.9,0-12.6-5.6-12.6-12.6c0-6.9,5.6-12.6,12.6-12.6c6,0,11.1,4.2,12.3,10.1
			c0.1,0.3-0.1,0.6-0.4,0.7c-0.3,0.1-0.6-0.1-0.7-0.4l0,0c-1.3-6.2-7.3-10.2-13.5-8.9c-6.2,1.3-10.1,7.2-8.9,13.4
			c1.1,5.3,5.8,9.2,11.2,9.2c0.2,0,0.3,0,0.5,0c0.3,0,0.6,0.2,0.6,0.5l0,0c0,0.3-0.2,0.6-0.5,0.6l0,0
			C-8199.7-987.1-8199.9-987.1-8200.1-987.1"/>
		<path id="Path_1813" class="st1" d="M-8200.1-984.2c-0.3,0-0.6-0.3-0.6-0.6s0.3-0.6,0.6-0.6c7.9,0,14.3-6.4,14.3-14.3
			c0-1.3-0.2-2.5-0.5-3.7c-0.1-0.3,0.1-0.6,0.4-0.7c0.3-0.1,0.6,0.1,0.7,0.4c2.2,8.2-2.6,16.7-10.8,19
			C-8197.3-984.4-8198.7-984.2-8200.1-984.2"/>
		<path id="Path_1814" class="st1" d="M-8200.1-987.1c-6.9,0-12.6-5.6-12.6-12.6s5.7-12.5,12.6-12.5c6.9,0,12.6,5.6,12.6,12.6
			C-8187.5-992.7-8193.1-987.1-8200.1-987.1 M-8200.1-1011.1c-6.3,0-11.4,5.1-11.4,11.4s5.1,11.4,11.4,11.4
			c6.3,0,11.4-5.1,11.4-11.4l0,0C-8188.7-1006-8193.8-1011.1-8200.1-1011.1"/>
	</g>
</g>
</svg>
