<?xml version="1.0" encoding="utf-8"?>
<!-- Generator: Adobe Illustrator 26.0.2, SVG Export Plug-In . SVG Version: 6.00 Build 0)  -->
<svg version="1.1" id="Layer_1" xmlns="http://www.w3.org/2000/svg" xmlns:xlink="http://www.w3.org/1999/xlink" x="0px" y="0px"
	 viewBox="0 0 50 60" style="enable-background:new 0 0 50 60;" xml:space="preserve">
<style type="text/css">
	.st0{enable-background:new    ;}
	.st1{fill:#707070;}
	.st2{clip-path:url(#SVGID_00000134247708515733794150000011909876743230158738_);}
	.st3{fill:#9BBE87;}
	.st4{fill:#F5F5FF;}
	.st5{fill:#263238;}
</style>
<g class="st0">
	<path class="st1" d="M10.4,50c0,0.5-0.2,0.9-0.5,1.2S9,51.6,8.4,51.6c-0.7,0-1.2-0.1-1.6-0.3v-0.6c0.2,0.1,0.5,0.2,0.8,0.2
		S8.1,51,8.4,51c0.4,0,0.8-0.1,1-0.3s0.3-0.4,0.3-0.7c0-0.2,0-0.4-0.1-0.5s-0.2-0.2-0.4-0.3S8.8,49,8.4,48.8
		c-0.5-0.2-0.9-0.4-1.1-0.7s-0.3-0.6-0.3-1c0-0.4,0.2-0.8,0.5-1.1s0.8-0.4,1.3-0.4c0.6,0,1.1,0.1,1.6,0.3l-0.2,0.6
		c-0.5-0.2-0.9-0.3-1.4-0.3c-0.4,0-0.6,0.1-0.8,0.2s-0.3,0.4-0.3,0.6c0,0.2,0,0.4,0.1,0.5S7.9,47.9,8,48s0.4,0.2,0.8,0.3
		c0.6,0.2,1,0.4,1.2,0.7S10.4,49.6,10.4,50z"/>
	<path class="st1" d="M13.2,51.6c-0.6,0-1.1-0.2-1.4-0.6s-0.5-0.9-0.5-1.6c0-0.7,0.2-1.3,0.5-1.7s0.8-0.6,1.5-0.6
		c0.2,0,0.4,0,0.6,0.1s0.4,0.1,0.5,0.2l-0.2,0.6c-0.1-0.1-0.3-0.1-0.5-0.1s-0.3-0.1-0.4-0.1c-0.9,0-1.3,0.6-1.3,1.7
		c0,0.5,0.1,0.9,0.3,1.2s0.5,0.4,0.9,0.4c0.4,0,0.7-0.1,1.1-0.2v0.6C14,51.5,13.6,51.6,13.2,51.6z"/>
	<path class="st1" d="M18.2,51.5v-2.8c0-0.3-0.1-0.6-0.2-0.8s-0.4-0.3-0.7-0.3c-0.5,0-0.8,0.1-1,0.4s-0.3,0.6-0.3,1.2v2.2h-0.6v-6.1
		h0.6v1.8c0,0.2,0,0.4,0,0.6h0c0.1-0.2,0.3-0.4,0.5-0.5s0.5-0.2,0.8-0.2c0.5,0,0.9,0.1,1.2,0.4s0.4,0.6,0.4,1.2v2.8H18.2z"/>
	<path class="st1" d="M22,51.6c-0.6,0-1.1-0.2-1.5-0.6S20,50.1,20,49.4c0-0.7,0.2-1.2,0.5-1.6s0.8-0.6,1.4-0.6c0.5,0,1,0.2,1.3,0.5
		s0.5,0.8,0.5,1.4v0.4h-2.9c0,0.5,0.1,0.9,0.4,1.1s0.6,0.4,1,0.4c0.5,0,0.9-0.1,1.4-0.3v0.6c-0.2,0.1-0.4,0.2-0.7,0.2
		S22.3,51.6,22,51.6z M21.8,47.7c-0.3,0-0.6,0.1-0.8,0.3s-0.3,0.5-0.4,0.9h2.2c0-0.4-0.1-0.7-0.3-0.9S22.2,47.7,21.8,47.7z"/>
	<path class="st1" d="M27.6,50.9L27.6,50.9c-0.3,0.4-0.8,0.7-1.4,0.7c-0.6,0-1-0.2-1.3-0.6s-0.5-0.9-0.5-1.6s0.2-1.3,0.5-1.6
		s0.7-0.6,1.3-0.6c0.6,0,1,0.2,1.3,0.6h0.1l0-0.3l0-0.3v-1.7h0.6v6.1h-0.5L27.6,50.9z M26.3,51c0.4,0,0.8-0.1,1-0.4s0.3-0.6,0.3-1.2
		v-0.1c0-0.6-0.1-1-0.3-1.3s-0.5-0.4-1-0.4c-0.4,0-0.7,0.1-0.9,0.4s-0.3,0.7-0.3,1.3c0,0.5,0.1,1,0.3,1.2S25.9,51,26.3,51z"/>
	<path class="st1" d="M30.2,47.2V50c0,0.3,0.1,0.6,0.2,0.8s0.4,0.3,0.7,0.3c0.4,0,0.8-0.1,1-0.4s0.3-0.6,0.3-1.2v-2.2h0.6v4.3h-0.5
		l-0.1-0.6h0c-0.1,0.2-0.3,0.4-0.6,0.5s-0.5,0.2-0.8,0.2c-0.5,0-0.9-0.1-1.2-0.4s-0.4-0.6-0.4-1.2v-2.8H30.2z"/>
	<path class="st1" d="M35.2,51.5h-0.6v-6.1h0.6V51.5z"/>
	<path class="st1" d="M38.3,51.6c-0.6,0-1.1-0.2-1.5-0.6s-0.5-0.9-0.5-1.6c0-0.7,0.2-1.2,0.5-1.6s0.8-0.6,1.4-0.6
		c0.5,0,1,0.2,1.3,0.5s0.5,0.8,0.5,1.4v0.4H37c0,0.5,0.1,0.9,0.4,1.1s0.6,0.4,1,0.4c0.5,0,0.9-0.1,1.4-0.3v0.6
		c-0.2,0.1-0.4,0.2-0.7,0.2S38.6,51.6,38.3,51.6z M38.2,47.7c-0.3,0-0.6,0.1-0.8,0.3S37,48.6,37,48.9h2.2c0-0.4-0.1-0.7-0.3-0.9
		S38.5,47.7,38.2,47.7z"/>
	<path class="st1" d="M43,47.1c0.2,0,0.4,0,0.5,0l-0.1,0.6c-0.2,0-0.3-0.1-0.5-0.1c-0.3,0-0.6,0.1-0.9,0.4s-0.4,0.6-0.4,1.1v2.3H41
		v-4.3h0.5l0.1,0.8h0c0.2-0.3,0.3-0.5,0.6-0.6S42.7,47.1,43,47.1z"/>
</g>
<g id="Group_1972" transform="translate(21 307)">
	<g>
		<g>
			<defs>
				<rect id="SVGID_1_" x="-11.5" y="-301.5" width="30.9" height="34.3"/>
			</defs>
			<clipPath id="SVGID_00000069392273776364757620000008296015966778835610_">
				<use xlink:href="#SVGID_1_"  style="overflow:visible;"/>
			</clipPath>
			
				<g id="Group_1543" transform="translate(0 0)" style="clip-path:url(#SVGID_00000069392273776364757620000008296015966778835610_);">
				<path id="Path_1786" class="st3" d="M18.9-282.7c0,8.2-6.6,14.8-14.8,14.8s-14.9-6.6-14.9-14.8c0-8.2,6.7-14.8,14.8-14.8l0,0
					C12.2-297.5,18.9-290.9,18.9-282.7"/>
				<path id="Path_1787" class="st4" d="M16.1-282.7c0,6.7-5.4,12.1-12.1,12.1c-6.6,0-12-5.4-12-12.1c0-6.7,5.4-12.1,12.1-12.1l0,0
					C10.7-294.8,16.1-289.4,16.1-282.7"/>
				<path id="Path_1788" class="st5" d="M7.1-291.9c0.1-0.3,0.5-0.4,0.7-0.3c0.3,0.1,0.4,0.5,0.3,0.7c-0.1,0.3-0.5,0.4-0.7,0.3l0,0
					C7.1-291.2,7-291.6,7.1-291.9L7.1-291.9"/>
				<path id="Path_1789" class="st5" d="M-0.3-273.9c0.1-0.3,0.4-0.4,0.7-0.3c0.3,0.1,0.4,0.4,0.3,0.7l0,0c-0.1,0.3-0.5,0.4-0.8,0.3
					C-0.3-273.3-0.4-273.6-0.3-273.9"/>
				<path id="Path_1790" class="st5" d="M10.4-289.9c0.2-0.2,0.6-0.2,0.8,0c0.2,0.2,0.2,0.6,0,0.8c-0.2,0.2-0.6,0.2-0.8,0
					C10.2-289.3,10.2-289.7,10.4-289.9L10.4-289.9"/>
				<path id="Path_1791" class="st5" d="M-3.3-276.2c0.2-0.2,0.6-0.2,0.8,0c0.2,0.2,0.2,0.6,0,0.8c-0.2,0.2-0.6,0.2-0.8,0
					C-3.6-275.6-3.6-276-3.3-276.2"/>
				<path id="Path_1792" class="st5" d="M12.7-286.9c0.3-0.1,0.6,0,0.7,0.3c0.1,0.3,0,0.6-0.3,0.7s-0.6,0-0.7-0.3
					C12.3-286.5,12.4-286.8,12.7-286.9"/>
				<path id="Path_1793" class="st5" d="M-5.3-279.5c0.3-0.1,0.6,0,0.7,0.3c0.1,0.3,0,0.6-0.3,0.7s-0.6,0-0.7-0.3
					C-5.7-279-5.6-279.3-5.3-279.5"/>
				<path id="Path_1794" class="st5" d="M13.6-283.2c0.3,0,0.6,0.3,0.6,0.6c0,0.3-0.3,0.6-0.6,0.6c-0.3,0-0.6-0.3-0.6-0.6
					C13.1-283,13.3-283.2,13.6-283.2L13.6-283.2"/>
				<path id="Path_1795" class="st5" d="M-5.8-283.2c0.3,0,0.6,0.3,0.6,0.6c0,0.3-0.3,0.6-0.6,0.6s-0.6-0.3-0.6-0.6l0,0
					C-6.4-283-6.1-283.2-5.8-283.2"/>
				<path id="Path_1796" class="st5" d="M13.1-279.5c0.3,0.1,0.4,0.5,0.3,0.7c-0.1,0.3-0.5,0.4-0.7,0.3c-0.3-0.1-0.4-0.5-0.3-0.7
					C12.5-279.5,12.8-279.6,13.1-279.5L13.1-279.5"/>
				<path id="Path_1797" class="st5" d="M-4.8-286.9c0.3,0.1,0.4,0.5,0.3,0.7c-0.1,0.3-0.5,0.4-0.7,0.3c-0.3-0.1-0.4-0.5-0.3-0.7
					l0,0C-5.5-286.9-5.1-287-4.8-286.9"/>
				<path id="Path_1798" class="st5" d="M11.2-276.2c0.2,0.2,0.2,0.6,0,0.8c-0.2,0.2-0.6,0.2-0.8,0c-0.2-0.2-0.2-0.6,0-0.8
					C10.6-276.4,11-276.4,11.2-276.2L11.2-276.2"/>
				<path id="Path_1799" class="st5" d="M-2.5-289.9c0.2,0.2,0.2,0.6,0,0.8c-0.2,0.2-0.6,0.2-0.8,0c-0.2-0.2-0.2-0.6,0-0.8
					C-3.1-290.2-2.8-290.2-2.5-289.9"/>
				<path id="Path_1800" class="st5" d="M8.2-273.9c0.1,0.3,0,0.6-0.3,0.7c-0.3,0.1-0.6,0-0.7-0.3s0-0.6,0.3-0.7
					C7.7-274.3,8.1-274.2,8.2-273.9L8.2-273.9"/>
				<path id="Path_1801" class="st5" d="M0.7-291.9c0.1,0.3,0,0.6-0.3,0.7c-0.3,0.1-0.6,0-0.7-0.3c-0.1-0.3,0-0.6,0.3-0.7l0,0
					C0.3-292.3,0.6-292.1,0.7-291.9"/>
				<path id="Path_1802" class="st5" d="M4.5-272.9c0,0.3-0.3,0.6-0.6,0.6c-0.3,0-0.6-0.3-0.6-0.6c0-0.3,0.3-0.6,0.6-0.6l0,0
					C4.2-273.5,4.5-273.3,4.5-272.9"/>
				<path id="Path_1803" class="st5" d="M4.5-292.4c0,0.3-0.3,0.6-0.6,0.6c-0.3,0-0.6-0.3-0.6-0.6c0-0.3,0.3-0.6,0.6-0.6
					C4.2-292.9,4.5-292.7,4.5-292.4"/>
				<path id="Path_1804" class="st5" d="M3.9-283.2c-0.3,0-0.6-0.3-0.6-0.6v-6.9c0-0.3,0.3-0.6,0.6-0.6c0.3,0,0.6,0.3,0.6,0.6v6.9
					C4.5-283.5,4.2-283.2,3.9-283.2"/>
				<path id="Path_1805" class="st5" d="M3.9-280.9c-0.9,0-1.7-0.8-1.7-1.7s0.8-1.7,1.7-1.7c0.9,0,1.7,0.8,1.7,1.7
					S4.9-280.9,3.9-280.9 M3.9-283.2c-0.3,0-0.6,0.3-0.6,0.6c0,0.3,0.3,0.6,0.6,0.6c0.3,0,0.6-0.3,0.6-0.6l0,0
					C4.5-283,4.2-283.2,3.9-283.2"/>
				<path id="Path_1806" class="st5" d="M3.9-267.2c-8.5,0-15.4-6.9-15.4-15.4c0-3.9,1.5-7.7,4.1-10.5c0.2-0.2,0.6-0.2,0.8,0
					c0.2,0.2,0.2,0.6,0,0.8l0,0c-5.4,5.8-5.1,14.8,0.7,20.2c2.6,2.5,6.1,3.8,9.7,3.8c0.8,0,1.7-0.1,2.5-0.2c0.3-0.1,0.6,0.2,0.7,0.5
					s-0.2,0.6-0.5,0.7C5.7-267.3,4.8-267.2,3.9-267.2"/>
				<path id="Path_1807" class="st5" d="M18.7-283.5c-0.3,0-0.5-0.2-0.6-0.5c-0.4-3.9-2.4-7.6-5.5-10c-0.3-0.2-0.3-0.6-0.1-0.8
					c0.2-0.3,0.6-0.3,0.8-0.1c3.4,2.6,5.6,6.5,6,10.8C19.3-283.8,19.1-283.6,18.7-283.5L18.7-283.5"/>
				<path id="Path_1808" class="st5" d="M-5-293.9c-0.3,0-0.6-0.3-0.6-0.6c0-0.2,0.1-0.3,0.2-0.5c4.7-3.6,11-4.1,16.3-1.5
					c0.3,0.1,0.4,0.5,0.3,0.8c-0.1,0.3-0.5,0.4-0.8,0.3c-4.9-2.5-10.7-1.9-15.1,1.3C-4.8-294-4.9-293.9-5-293.9"/>
				<path id="Path_1809" class="st5" d="M12.9-294c-0.3,0-0.6-0.3-0.6-0.6c0-0.1,0-0.2,0.1-0.3l1.3-1.8c0.2-0.3,0.5-0.3,0.8-0.2
					c0.3,0.2,0.3,0.5,0.2,0.8l0,0l-1.3,1.8C13.3-294.1,13.1-294,12.9-294"/>
				<path id="Path_1810" class="st5" d="M-5-293.9c-0.2,0-0.4-0.1-0.5-0.2l-1.3-1.9c-0.2-0.2-0.2-0.6,0.1-0.8
					c0.3-0.2,0.6-0.1,0.8,0.1l1.3,1.8c0.2,0.3,0.1,0.6-0.1,0.8C-4.8-293.9-4.9-293.9-5-293.9"/>
				<path id="Path_1811" class="st5" d="M5.1-296.9c-0.3,0-0.6-0.3-0.6-0.6v-2.9H3.4v0.6c0,0.3-0.3,0.6-0.6,0.6
					c-0.3,0-0.6-0.3-0.6-0.6v-1.1c0-0.3,0.3-0.6,0.6-0.6l0,0h2.3c0.3,0,0.6,0.2,0.6,0.5l0,0v3.4C5.6-297.2,5.4-296.9,5.1-296.9"/>
				<path id="Path_1812" class="st5" d="M3.9-270.1c-6.9,0-12.6-5.6-12.6-12.6s5.7-12.5,12.6-12.5c6,0,11.1,4.2,12.3,10.1
					c0.1,0.3-0.1,0.6-0.4,0.7s-0.6-0.1-0.7-0.4l0,0c-1.3-6.2-7.3-10.2-13.5-8.9c-6.2,1.3-10.2,7.3-8.9,13.5
					c1.1,5.3,5.8,9.2,11.2,9.2c0.2,0,0.3,0,0.5,0c0.3,0,0.6,0.2,0.6,0.5l0,0c0,0.3-0.2,0.6-0.5,0.6l0,0
					C4.3-270.1,4.1-270.1,3.9-270.1"/>
				<path id="Path_1813" class="st5" d="M3.9-267.2c-0.3,0-0.6-0.3-0.6-0.6c0-0.3,0.3-0.6,0.6-0.6c7.9,0,14.3-6.4,14.3-14.3
					c0-1.3-0.2-2.5-0.5-3.7c-0.1-0.3,0.1-0.6,0.4-0.7c0.3-0.1,0.6,0.1,0.7,0.4c2.2,8.2-2.6,16.7-10.8,19
					C6.7-267.4,5.3-267.2,3.9-267.2"/>
				<path id="Path_1814" class="st5" d="M3.9-270.1c-6.9,0-12.6-5.6-12.6-12.6s5.7-12.5,12.6-12.5s12.6,5.6,12.6,12.6
					C16.5-275.7,10.9-270.1,3.9-270.1 M3.9-294.1c-6.3,0-11.4,5.1-11.4,11.4c0,6.3,5.1,11.4,11.4,11.4s11.4-5.1,11.4-11.4l0,0
					C15.3-289,10.2-294.1,3.9-294.1"/>
			</g>
		</g>
	</g>
</g>
<g id="Group_2219" transform="translate(-5176.781 151.401)">
	<g id="Group_1565" transform="translate(5197.78 155.599)">
		<path id="Path_1788-2" class="st1" d="M7.1-291.9c0.1-0.3,0.5-0.4,0.7-0.3c0.3,0.1,0.4,0.5,0.3,0.7c-0.1,0.3-0.5,0.4-0.7,0.3l0,0
			C7.1-291.2,7-291.6,7.1-291.9L7.1-291.9"/>
		<path id="Path_1789-2" class="st1" d="M-0.3-273.9c0.1-0.3,0.4-0.4,0.7-0.3c0.3,0.1,0.4,0.4,0.3,0.7l0,0c-0.1,0.3-0.5,0.4-0.8,0.3
			C-0.3-273.3-0.4-273.6-0.3-273.9"/>
		<path id="Path_1790-2" class="st1" d="M10.4-289.9c0.2-0.2,0.6-0.2,0.8,0c0.2,0.2,0.2,0.6,0,0.8c-0.2,0.2-0.6,0.2-0.8,0
			C10.2-289.3,10.2-289.7,10.4-289.9L10.4-289.9"/>
		<path id="Path_1791-2" class="st1" d="M-3.3-276.2c0.2-0.2,0.6-0.2,0.8,0c0.2,0.2,0.2,0.6,0,0.8c-0.2,0.2-0.6,0.2-0.8,0
			C-3.6-275.6-3.6-276-3.3-276.2"/>
		<path id="Path_1792-2" class="st1" d="M12.7-286.9c0.3-0.1,0.6,0,0.7,0.3c0.1,0.3,0,0.6-0.3,0.7s-0.6,0-0.7-0.3
			C12.3-286.5,12.4-286.8,12.7-286.9"/>
		<path id="Path_1793-2" class="st1" d="M-5.3-279.5c0.3-0.1,0.6,0,0.7,0.3c0.1,0.3,0,0.6-0.3,0.7s-0.6,0-0.7-0.3
			C-5.7-279-5.6-279.3-5.3-279.5"/>
		<path id="Path_1794-2" class="st1" d="M13.6-283.2c0.3,0,0.6,0.3,0.6,0.6c0,0.3-0.3,0.6-0.6,0.6c-0.3,0-0.6-0.3-0.6-0.6
			C13.1-283,13.3-283.2,13.6-283.2L13.6-283.2"/>
		<path id="Path_1795-2" class="st1" d="M-5.8-283.2c0.3,0,0.6,0.3,0.6,0.6c0,0.3-0.3,0.6-0.6,0.6s-0.6-0.3-0.6-0.6l0,0
			C-6.4-283-6.1-283.2-5.8-283.2"/>
		<path id="Path_1796-2" class="st1" d="M13.1-279.5c0.3,0.1,0.4,0.5,0.3,0.7c-0.1,0.3-0.5,0.4-0.7,0.3c-0.3-0.1-0.4-0.5-0.3-0.7
			C12.5-279.5,12.8-279.6,13.1-279.5L13.1-279.5"/>
		<path id="Path_1797-2" class="st1" d="M-4.8-286.9c0.3,0.1,0.4,0.5,0.3,0.7c-0.1,0.2-0.5,0.5-0.8,0.4c-0.3-0.1-0.4-0.5-0.3-0.7
			l0,0C-5.5-286.9-5.1-287-4.8-286.9"/>
		<path id="Path_1798-2" class="st1" d="M11.2-276.2c0.2,0.2,0.2,0.6,0,0.8c-0.2,0.2-0.6,0.2-0.8,0c-0.2-0.2-0.2-0.6,0-0.8
			C10.6-276.4,11-276.4,11.2-276.2L11.2-276.2"/>
		<path id="Path_1799-2" class="st1" d="M-2.5-289.9c0.2,0.2,0.2,0.6,0,0.8c-0.2,0.2-0.6,0.2-0.8,0c-0.2-0.2-0.2-0.6,0-0.8
			C-3.1-290.2-2.8-290.2-2.5-289.9"/>
		<path id="Path_1800-2" class="st1" d="M8.2-273.9c0.1,0.3,0,0.6-0.3,0.7c-0.3,0.1-0.6,0-0.7-0.3s0-0.6,0.3-0.7
			C7.7-274.3,8.1-274.2,8.2-273.9L8.2-273.9"/>
		<path id="Path_1801-2" class="st1" d="M0.7-291.9c0.1,0.3,0,0.6-0.3,0.7c-0.3,0.1-0.6,0-0.7-0.3c-0.1-0.3,0-0.6,0.3-0.7l0,0
			C0.3-292.3,0.6-292.1,0.7-291.9"/>
		<path id="Path_1802-2" class="st1" d="M4.5-272.9c0,0.3-0.3,0.6-0.6,0.6c-0.3,0-0.6-0.3-0.6-0.6c0-0.3,0.3-0.6,0.6-0.6l0,0
			C4.2-273.5,4.5-273.3,4.5-272.9"/>
		<path id="Path_1803-2" class="st1" d="M4.5-292.4c0,0.3-0.3,0.6-0.6,0.6c-0.3,0-0.6-0.3-0.6-0.6c0-0.3,0.3-0.6,0.6-0.6
			C4.2-292.9,4.5-292.7,4.5-292.4"/>
		<path id="Path_1804-2" class="st1" d="M3.9-283.2c-0.3,0-0.6-0.3-0.6-0.6v-6.9c0-0.3,0.3-0.6,0.6-0.6c0.3,0,0.6,0.3,0.6,0.6v6.9
			C4.5-283.5,4.2-283.2,3.9-283.2"/>
		<path id="Path_1805-2" class="st1" d="M3.9-280.9c-0.9,0-1.7-0.8-1.7-1.7s0.8-1.7,1.7-1.7c0.9,0,1.7,0.8,1.7,1.7
			S4.9-280.9,3.9-280.9 M3.9-283.2c-0.3,0-0.6,0.3-0.6,0.6c0,0.3,0.3,0.6,0.6,0.6c0.3,0,0.6-0.3,0.6-0.6l0,0
			C4.5-283,4.2-283.2,3.9-283.2"/>
		<path id="Path_1806-2" class="st1" d="M3.9-267.2c-8.5,0-15.4-6.9-15.4-15.4c0-3.9,1.5-7.7,4.1-10.5c0.2-0.2,0.6-0.2,0.8,0
			c0.2,0.2,0.2,0.6,0,0.8l0,0c-5.4,5.8-5.1,14.8,0.7,20.2c2.6,2.5,6.1,3.8,9.7,3.8c0.8,0,1.7-0.1,2.5-0.2c0.3-0.1,0.6,0.2,0.7,0.5
			s-0.2,0.6-0.5,0.7C5.7-267.3,4.8-267.2,3.9-267.2"/>
		<path id="Path_1807-2" class="st1" d="M18.7-283.5c-0.3,0-0.5-0.2-0.6-0.5c-0.4-3.9-2.4-7.6-5.5-10c-0.3-0.2-0.3-0.6-0.1-0.8
			c0.2-0.3,0.6-0.3,0.8-0.1c3.4,2.6,5.6,6.5,6,10.8C19.3-283.8,19.1-283.6,18.7-283.5L18.7-283.5"/>
		<path id="Path_1808-2" class="st1" d="M-5-293.9c-0.3,0-0.6-0.3-0.6-0.6c0-0.2,0.1-0.3,0.2-0.5c4.7-3.6,11-4.1,16.3-1.5
			c0.3,0.1,0.4,0.5,0.3,0.8c-0.1,0.3-0.5,0.4-0.8,0.3c-4.9-2.5-10.7-1.9-15.1,1.4C-4.8-294-4.9-293.9-5-293.9"/>
		<path id="Path_1809-2" class="st1" d="M12.9-294c-0.3,0-0.6-0.3-0.6-0.6c0-0.1,0-0.2,0.1-0.3l1.3-1.8c0.2-0.3,0.5-0.3,0.8-0.2
			c0.3,0.2,0.3,0.5,0.2,0.8l0,0l-1.3,1.8C13.3-294.1,13.1-294,12.9-294"/>
		<path id="Path_1810-2" class="st1" d="M-5-293.9c-0.2,0-0.4-0.1-0.5-0.2l-1.3-1.9c-0.2-0.2-0.2-0.6,0.1-0.8
			c0.3-0.2,0.6-0.1,0.8,0.1l1.3,1.8c0.2,0.3,0.1,0.6-0.1,0.8C-4.8-293.9-4.9-293.9-5-293.9"/>
		<path id="Path_1811-2" class="st1" d="M5.1-296.9c-0.3,0-0.6-0.3-0.6-0.6v-2.9H3.4v0.6c0,0.3-0.3,0.6-0.6,0.6
			c-0.3,0-0.6-0.3-0.6-0.6v-1.1c0-0.3,0.3-0.6,0.6-0.6l0,0h2.3c0.3,0,0.6,0.2,0.6,0.5l0,0v3.4C5.6-297.2,5.4-296.9,5.1-296.9"/>
		<path id="Path_1812-2" class="st1" d="M3.9-270.1c-6.9,0-12.6-5.6-12.6-12.6s5.7-12.5,12.6-12.5c6,0,11.1,4.2,12.3,10.1
			c0.1,0.3-0.1,0.6-0.4,0.7s-0.6-0.1-0.7-0.4l0,0c-1.3-6.2-7.3-10.2-13.5-8.9c-6.2,1.3-10.1,7.1-8.9,13.3c1.1,5.3,5.8,9.2,11.2,9.2
			c0.2,0,0.3,0,0.4,0c0.3,0,0.6,0.2,0.6,0.5l0,0c0,0.3-0.2,0.6-0.5,0.6l0,0C4.3-270.1,4.1-270.1,3.9-270.1"/>
		<path id="Path_1813-2" class="st1" d="M3.9-267.2c-0.3,0-0.6-0.3-0.6-0.6c0-0.3,0.3-0.6,0.6-0.6c7.9,0,14.3-6.4,14.3-14.3
			c0-1.3-0.2-2.5-0.5-3.7c-0.1-0.3,0.1-0.6,0.4-0.7c0.3-0.1,0.6,0.1,0.7,0.4c2.2,8.2-2.6,16.7-10.8,19
			C6.7-267.4,5.3-267.2,3.9-267.2"/>
		<path id="Path_1814-2" class="st1" d="M3.9-270.1c-6.9,0-12.6-5.6-12.6-12.6s5.7-12.5,12.6-12.5s12.6,5.6,12.6,12.6
			C16.5-275.7,10.9-270.1,3.9-270.1 M3.9-294.1c-6.3,0-11.4,5.1-11.4,11.4c0,6.3,5.1,11.4,11.4,11.4s11.4-5.1,11.4-11.4l0,0
			C15.3-289,10.2-294.1,3.9-294.1"/>
	</g>
</g>
</svg>
