<?xml version="1.0" encoding="utf-8"?>
<!-- Generator: Adobe Illustrator 26.0.2, SVG Export Plug-In . SVG Version: 6.00 Build 0)  -->
<svg version="1.1" id="Layer_1" xmlns="http://www.w3.org/2000/svg" xmlns:xlink="http://www.w3.org/1999/xlink" x="0px" y="0px"
	 viewBox="0 0 30.6 28" style="enable-background:new 0 0 30.6 28;" xml:space="preserve">
<style type="text/css">
	.st0{clip-path:url(#SVGID_00000003815471633765646280000013824054360224789400_);}
	.st1{fill:#155724;}
</style>
<g>
	<defs>
		<rect id="SVGID_1_" x="4.2" y="3.8" width="22.2" height="20.3"/>
	</defs>
	<clipPath id="SVGID_00000093887392985035628730000007496208290297307798_">
		<use xlink:href="#SVGID_1_"  style="overflow:visible;"/>
	</clipPath>
	<g style="clip-path:url(#SVGID_00000093887392985035628730000007496208290297307798_);">
		<path class="st1" d="M26.4,18.4c-0.2,0.8-0.6,1.5-1.3,2c-0.3,0.2-0.5,0.5-0.8,0.8c0,0-0.1,0.1-0.1,0.1c-0.4,0.4-0.4,1-0.1,1.4
			c0,0,0,0,0,0c0.2,0.2,0.3,0.4,0.3,0.7c0,0.4-0.4,0.8-0.9,0.7c-0.2,0-0.4-0.1-0.5-0.3c-0.9-0.9-1-2.3-0.3-3.3
			c0.1-0.2,0.2-0.3,0.4-0.4c0.4-0.4,0.9-0.8,1.3-1.3c0.4-0.4,0.4-1,0.1-1.4c0,0,0,0,0,0c-0.4-0.4-1-0.4-1.4,0c0,0,0,0,0,0
			c-0.4,0.4-0.9,0.9-1.3,1.3c-1,1.1-2.6,1.1-3.7,0.2c-0.1,0-0.1-0.1-0.2-0.2c-0.6-0.6-1.2-1.2-1.9-1.9c-0.3,0.2-0.5,0.3-0.8,0.4
			c-2,1-4.5,0.6-6.1-1c-0.7-0.7-1.5-1.5-2.2-2.2c-0.1,0.1-0.1,0.1-0.2,0.1c-0.3,0.4-0.8,0.4-1.2,0.2c-0.4-0.3-0.4-0.8-0.2-1.2
			c0-0.1,0.1-0.1,0.2-0.2l1.3-1.3c0-0.1,0.1-0.1,0.2-0.2c-0.1,0-0.1-0.1-0.2-0.1c-0.8-0.8-1.7-1.7-2.5-2.5C4.3,8.6,4.2,8.3,4.2,8
			c0.1-0.4,0.6-0.7,1-0.5c0.1,0,0.2,0.1,0.3,0.1c0.1,0.1,0.1,0.1,0.2,0.2c0.8,0.8,1.6,1.6,2.5,2.5c0,0.1,0.1,0.1,0.1,0.2L10.7,8
			c0,0-0.1-0.1-0.1-0.1C9.8,7,8.9,6.2,8.1,5.3C7.9,5.2,7.8,4.9,7.8,4.7c0-0.3,0.2-0.6,0.4-0.7C8.4,3.8,8.8,3.8,9,4
			c0.1,0.1,0.2,0.1,0.2,0.2c0.8,0.8,1.6,1.6,2.5,2.5c0.1,0.1,0.1,0.1,0.1,0.2c0.3-0.3,0.6-0.6,0.9-0.9c0.3-0.3,0.5-0.5,0.8-0.8
			c0.3-0.3,0.8-0.3,1.1,0C15,5.6,15,6,14.7,6.4c-0.1,0.1-0.2,0.2-0.3,0.3c0.1,0.1,0.1,0.1,0.2,0.2c0.7,0.7,1.3,1.3,2,2
			c0.9,0.9,1.5,2.1,1.6,3.4c0.1,0.4-0.2,0.9-0.7,0.9s-0.9-0.2-0.9-0.7c0,0,0-0.1,0-0.1c-0.1-1-0.5-1.9-1.2-2.5
			c-0.6-0.6-1.3-1.2-1.9-1.9c-0.1-0.1-0.1-0.1-0.2-0.1l-5.1,5.1c0,0,0.1,0.1,0.1,0.1c0.7,0.7,1.4,1.4,2,2c1.4,1.4,3.6,1.5,5.1,0.2
			c0,0,0,0,0,0c0.3-0.4,0.8-0.4,1.2-0.1c0,0,0.1,0.1,0.1,0.1c0.8,0.8,1.5,1.5,2.3,2.3c0.3,0.4,1,0.5,1.4,0.2
			c0.1-0.1,0.1-0.1,0.2-0.2c0.4-0.4,0.9-0.9,1.3-1.3c1-1,2.7-1,3.7,0c0.3,0.3,0.5,0.7,0.7,1.1c0,0.1,0.1,0.3,0.1,0.4L26.4,18.4z"/>
	</g>
</g>
</svg>
