<?xml version="1.0" encoding="utf-8"?>
<!-- Generator: Adobe Illustrator 26.0.2, SVG Export Plug-In . SVG Version: 6.00 Build 0)  -->
<svg version="1.1" id="Layer_1" xmlns="http://www.w3.org/2000/svg" xmlns:xlink="http://www.w3.org/1999/xlink" x="0px" y="0px"
	 viewBox="0 0 510 400" style="enable-background:new 0 0 510 400;" xml:space="preserve">
<style type="text/css">
	.st0{clip-path:url(#SVGID_00000156546082850797433400000001900642517053683632_);}
	.st1{clip-path:url(#SVGID_00000066487091234520218170000005339355266067873173_);}
	.st2{fill:#F4F4F4;}
	.st3{clip-path:url(#SVGID_00000094610949246994395130000003343574078226508976_);}
	.st4{fill:#DBDBDB;}
	.st5{fill:#CACACA;}
	.st6{clip-path:url(#SVGID_00000052792710431452015130000015086208354948611718_);}
	.st7{fill:#A9A9A9;}
	.st8{fill:#717171;}
	.st9{fill:#E8E8E8;}
	.st10{fill:#FFFFFF;}
	.st11{fill:#B4B4B4;}
	.st12{fill:#767676;}
	.st13{fill:#5E5E5E;}
	.st14{fill:#939393;}
	.st15{fill:#C6C6C6;}
	.st16{fill:#999999;}
	.st17{clip-path:url(#SVGID_00000147943199150229229170000018173418069695725980_);}
	.st18{fill:#E7E7E7;}
	.st19{clip-path:url(#SVGID_00000096027770180927095460000003507720893173324466_);}
	.st20{clip-path:url(#SVGID_00000180331508189928967040000018084037641869376186_);}
	.st21{clip-path:url(#SVGID_00000141415758396683447860000013876191733570444458_);}
	.st22{clip-path:url(#SVGID_00000041261439769451567020000015231661218709859733_);}
	.st23{clip-path:url(#SVGID_00000165949548812179921540000017754277240744489372_);}
	.st24{clip-path:url(#SVGID_00000125573484909261572150000008459215825319274152_);}
	.st25{fill:#404040;}
	.st26{fill:#868686;}
	.st27{fill:#363636;}
	.st28{font-family:'Montserrat-Bold';}
	.st29{font-size:13px;}
</style>
<g>
	<defs>
		<rect id="SVGID_1_" x="-71.7" y="11.9" width="647.4" height="510.1"/>
	</defs>
	<clipPath id="SVGID_00000071554954833034785970000015825151907243202464_">
		<use xlink:href="#SVGID_1_"  style="overflow:visible;"/>
	</clipPath>
	<g id="Group_2033" style="clip-path:url(#SVGID_00000071554954833034785970000015825151907243202464_);">
		<g id="Group_2007">
			<g>
				<defs>
					<rect id="SVGID_00000008839216935849551750000002626916875710399664_" x="-71.7" y="11.9" width="647.4" height="510.1"/>
				</defs>
				<clipPath id="SVGID_00000050659664153244853310000017665113974756536236_">
					<use xlink:href="#SVGID_00000008839216935849551750000002626916875710399664_"  style="overflow:visible;"/>
				</clipPath>
				<g id="Group_2006" style="clip-path:url(#SVGID_00000050659664153244853310000017665113974756536236_);">
					<path id="Path_2543" class="st2" d="M132.7,346.9c122.5,78,269.9,16.2,310.4-53.1c39.9-68.2-10.3-169.5-118-163.9
						S194.9,58.6,167.2,39.4C122,7.9,82.1,25.2,56.1,52.2c-0.9,0.9-1.7,1.8-2.5,2.7c-8.5,9.4-15.6,19.9-21.2,31.3
						c-0.6,1.2-1.1,2.4-1.6,3.6c-0.2,0.4-0.4,0.8-0.6,1.3C11.4,135.7,8.9,268.2,132.7,346.9"/>
				</g>
			</g>
		</g>
		<g id="Group_2009" transform="translate(91.674 10.64)">
			<g>
				<defs>
					<path id="SVGID_00000149357370976907817690000015656758514328172980_" d="M-62.1,80.5C-81,125.1-83.4,257.6,40.4,336.4
						c122.5,78,269.9,16.2,310.4-53.1c39.9-68.2-10.3-169.5-118-163.9S102.6,48.1,74.9,28.8c-17.2-12-33.6-16.9-48.8-16.9
						C-16.6,11.9-49.5,50.7-62.1,80.5"/>
				</defs>
				<clipPath id="SVGID_00000033346893041022150570000017805324554894400700_">
					<use xlink:href="#SVGID_00000149357370976907817690000015656758514328172980_"  style="overflow:visible;"/>
				</clipPath>
				<g id="Group_2008" style="clip-path:url(#SVGID_00000033346893041022150570000017805324554894400700_);">
					<rect id="Rectangle_1678" x="-163.4" y="309.5" class="st4" width="647.4" height="201.9"/>
					<path id="Path_2544" class="st5" d="M135.6,335.8c0,7.3-28.3,13.3-63.2,13.3s-63.2-5.9-63.2-13.3s28.3-13.3,63.2-13.3
						S135.6,328.5,135.6,335.8"/>
				</g>
			</g>
		</g>
		<g id="Group_2032">
			<g>
				<defs>
					<rect id="SVGID_00000163044275539060927730000015323600810911621298_" x="-71.7" y="11.9" width="647.4" height="510.1"/>
				</defs>
				<clipPath id="SVGID_00000132053999709522423870000016135627918489576869_">
					<use xlink:href="#SVGID_00000163044275539060927730000015323600810911621298_"  style="overflow:visible;"/>
				</clipPath>
				<g id="Group_2031" style="clip-path:url(#SVGID_00000132053999709522423870000016135627918489576869_);">
					<path id="Path_2546" class="st2" d="M356,63.5c-4.7,14-36.4,40.2-71.3,31.3c-32.9-8.4-47.6-44.1-38.5-61.4
						c8.1-15.4,28.3-18.2,46.2-3.9s34.2,8,44.9,7C348.7,35.2,361.1,48.2,356,63.5"/>
					<path id="Path_2547" class="st4" d="M405.1,128.2l19.1-6.1l0.6-15.4c4.5-3.4,8.4-7.7,11.4-12.5l15-0.8l4.4-20.1l-12.9-8.9
						c-0.7-5.6-2.4-11.1-5.1-16.1l5.8-14.3l-15.4-14l-13.1,7.7c-5.2-2.2-10.8-3.4-16.5-3.6l-9.4-12.2l-19.1,6.1l-0.6,15.4
						c-4.5,3.4-8.4,7.7-11.4,12.5l-15.1,1.1l-4.4,20.3l13,8.4c0.7,5.6,2.4,11.1,5.1,16.1l-6.7,13.4l15.7,14.3l13.6-7.2
						c5.2,2.2,10.8,3.4,16.5,3.6L405.1,128.2z M371.1,78.4c-4.6-14.3,3.3-29.6,17.6-34.1s29.6,3.3,34.1,17.6
						c4.6,14.3-3.3,29.6-17.6,34.1C391,100.5,375.7,92.6,371.1,78.4C371.1,78.4,371.1,78.4,371.1,78.4"/>
					<path id="Path_2548" class="st4" d="M455.1,199.8l13.7-4.4l0.4-11c3.3-2.5,6-5.5,8.2-9l10.8-0.6l3.1-14.5l-9.2-6.4
						c-0.5-4.1-1.8-8-3.7-11.6l4.2-10.2L471.5,122l-9.4,5.5c-3.8-1.6-7.8-2.5-11.9-2.6l-6.8-8.8l-13.7,4.4l-0.4,11
						c-3.3,2.5-6,5.5-8.2,9l-10.8,0.8l-3.2,14.6l9.3,6.1c0.5,4.1,1.8,8,3.7,11.6l-4.8,9.7l11.3,10.3l9.8-5.2
						c3.8,1.6,7.8,2.5,11.9,2.6L455.1,199.8z M430.7,163.9c-3.3-10.3,2.4-21.2,12.6-24.5c10.3-3.3,21.2,2.4,24.5,12.6
						s-2.4,21.2-12.6,24.5c0,0,0,0,0,0C445,179.8,434,174.2,430.7,163.9C430.7,163.9,430.7,163.9,430.7,163.9"/>
					<path id="Path_2549" class="st4" d="M52.1,181.9L58,195l11-0.8c2.8,3,6.2,5.4,9.9,7.1l1.8,10.6l14.7,1.5l5.3-9.9
						c4-1,7.7-2.7,11.1-5l10.7,3l8.7-12.1l-6.6-8.7c1.2-3.9,1.6-8,1.2-12.1l7.9-7.7l-5.9-13.1l-11,0.8c-2.8-3-6.2-5.4-9.9-7.1
						l-2-10.7l-14.9-1.5l-5,10c-4,1-7.7,2.7-11.1,5l-10.2-3.7L55,152.9l6.2,9.1c-1.2,3.9-1.6,8-1.2,12.1L52.1,181.9z M84.9,153.6
						c9.8-4.4,21.4-0.1,25.8,9.8s0.1,21.4-9.8,25.8c-9.8,4.4-21.4,0.1-25.8-9.8C70.7,169.6,75.1,158,84.9,153.6
						C84.9,153.6,84.9,153.6,84.9,153.6"/>
					<path id="Path_2550" class="st7" d="M304.1,105.3c-7.4,0-13.5,6-13.5,13.5v47.6c1.4,1.3,2.8,2.6,4.2,4v-51.6
						c0-5.1,4.2-9.3,9.3-9.3h26.4v-4.2H304.1z"/>
					<path id="Path_2551" class="st7" d="M92.4,216.9c-7.4,0-13.5,6-13.5,13.5v47.6c1.4,1.3,2.8,2.6,4.2,4v-51.6
						c0-5.1,4.2-9.3,9.3-9.3h26.4v-4.2L92.4,216.9z"/>
					<path id="Path_2552" class="st7" d="M209.7,110.1v-4.4h-36.6c-7.4,0-13.5,6-13.5,13.5v133.2c-2.8,0.2-4.8,0.8-4.8,1.5
						c0,0.9,3.1,1.6,6.9,1.6s6.9-0.7,6.9-1.6c0-0.7-2-1.3-4.8-1.5V119.2c0-5.1,4.2-9.3,9.3-9.3h26.4v0.2L209.7,110.1z"/>
					<path id="Path_2553" class="st7" d="M287.4,252.4V119.2c0-7.4-6-13.5-13.5-13.5H179v4.4h84.6v-0.2h10.2c5.1,0,9.3,4.2,9.3,9.3
						v133.2c-2.8,0.2-4.8,0.8-4.8,1.5c0,0.9,3.1,1.6,6.9,1.6s6.9-0.7,6.9-1.6C292.2,253.2,290.2,252.6,287.4,252.4"/>
					<path id="Path_2554" class="st8" d="M451.7,168.2H325.5c-1.3,0-2.3-1-2.3-2.3v-93c0-1.3,1-2.3,2.3-2.3h126.1
						c1.3,0,2.3,1,2.3,2.3c0,0,0,0,0,0v93C454,167.2,452.9,168.2,451.7,168.2L451.7,168.2"/>
					<path id="Path_2555" class="st9" d="M449.3,165.9H327.9c-1.2,0-2.1-1-2.1-2.1l0,0V84.6c0-1.2,1-2.1,2.1-2.1h121.3
						c1.2,0,2.1,1,2.1,2.1v79.2C451.4,165,450.5,165.9,449.3,165.9"/>
					<path id="Path_2556" class="st10" d="M390.4,130h-59c-1.4,0-2.5-1.1-2.5-2.5v0V88.9c0-1.4,1.1-2.5,2.5-2.5l0,0h59
						c1.4,0,2.5,1.1,2.5,2.5v0v38.6C392.9,128.9,391.8,130,390.4,130L390.4,130"/>
					<path id="Path_2557" class="st10" d="M449.5,164.5H396c-0.1,0-0.2-0.1-0.2-0.2c0,0,0,0,0,0V86.6c0-0.1,0.1-0.2,0.2-0.2
						c0,0,0,0,0,0h53.4c0.1,0,0.2,0.1,0.2,0.2v77.7C449.6,164.4,449.6,164.5,449.5,164.5"/>
					<path id="Path_2558" class="st10" d="M392.8,164.5h-63.6c-0.1,0-0.2-0.1-0.2-0.2l0,0v-29.8c0-0.1,0.1-0.2,0.2-0.2l0,0h63.6
						c0.1,0,0.2,0.1,0.2,0.2v0v29.8C392.9,164.4,392.8,164.5,392.8,164.5L392.8,164.5"/>
					<path id="Path_2559" class="st10" d="M334.4,75.6c0,0.9-0.7,1.6-1.6,1.6c-0.9,0-1.6-0.7-1.6-1.6s0.7-1.6,1.6-1.6
						S334.4,74.8,334.4,75.6C334.4,75.6,334.4,75.6,334.4,75.6"/>
					<path id="Path_2560" class="st10" d="M340.4,75.6c0,0.9-0.7,1.6-1.6,1.6c-0.9,0-1.6-0.7-1.6-1.6s0.7-1.6,1.6-1.6
						S340.4,74.8,340.4,75.6C340.4,75.6,340.4,75.6,340.4,75.6"/>
					<path id="Path_2561" class="st10" d="M346.4,75.6c0,0.9-0.7,1.6-1.6,1.6c-0.9,0-1.6-0.7-1.6-1.6s0.7-1.6,1.6-1.6
						S346.4,74.8,346.4,75.6C346.4,75.6,346.4,75.6,346.4,75.6"/>
					<path id="Path_2562" class="st11" d="M44,118.9h3.8v3.8c0,0.8,0.7,1.5,1.5,1.5s1.5-0.7,1.5-1.5v-3.8h3.8c0.8,0,1.5-0.6,1.5-1.5
						c0,0,0,0,0,0c0-0.8-0.7-1.5-1.5-1.5h-3.8v-3.8c0-0.8-0.7-1.5-1.5-1.5s-1.5,0.7-1.5,1.5v3.8H44c-0.8,0-1.5,0.7-1.5,1.5
						C42.5,118.2,43.1,118.9,44,118.9C44,118.9,44,118.9,44,118.9"/>
					<path id="Path_2563" class="st11" d="M275.5,41.8h3.8v3.8c0,0.8,0.7,1.5,1.5,1.5s1.5-0.7,1.5-1.5v-3.8h3.8
						c0.8,0,1.5-0.6,1.5-1.5c0,0,0,0,0,0c0-0.8-0.7-1.5-1.5-1.5h-3.8V35c0-0.8-0.7-1.5-1.5-1.5s-1.5,0.7-1.5,1.5l0,0v3.8h-3.8
						c-0.8,0-1.5,0.7-1.5,1.5C274,41.1,274.7,41.8,275.5,41.8C275.5,41.8,275.5,41.8,275.5,41.8"/>
					<path id="Path_2564" class="st11" d="M68,96.6c0-3.7-3-6.6-6.6-6.6c-3.7,0-6.6,3-6.6,6.6c0,3.7,3,6.6,6.6,6.6
						C65,103.2,68,100.2,68,96.6 M65.4,96.6c0,2.3-1.8,4.1-4.1,4.1s-4.1-1.8-4.1-4.1c0-2.3,1.8-4.1,4.1-4.1
						C63.6,92.5,65.4,94.3,65.4,96.6"/>
					<path id="Path_2565" class="st11" d="M302.5,346.4c0-3.7-3-6.6-6.6-6.6c-3.7,0-6.6,3-6.6,6.6c0,3.7,3,6.6,6.6,6.6
						C299.5,353.1,302.5,350.1,302.5,346.4 M300,346.4c0,2.3-1.8,4.1-4.1,4.1c-2.3,0-4.1-1.8-4.1-4.1c0-2.3,1.8-4.1,4.1-4.1
						C298.1,342.4,300,344.2,300,346.4"/>
					<path id="Path_2566" class="st11" d="M309.6,27.2c0-3.7-3-6.6-6.6-6.6c-3.7,0-6.6,3-6.6,6.6c0,3.7,3,6.6,6.6,6.6
						C306.7,33.8,309.6,30.9,309.6,27.2 M307.1,27.2c0,2.3-1.8,4.1-4.1,4.1c-2.3,0-4.1-1.8-4.1-4.1c0-2.3,1.8-4.1,4.1-4.1
						C305.3,23.1,307.1,25,307.1,27.2"/>
					<path id="Path_2567" class="st11" d="M137.3,48.7c0.9,0,1.7-0.8,1.7-1.7c0-0.9-0.7-1.7-1.6-1.7c0,0,0,0,0,0h-16.7
						c-0.9,0-1.7,0.7-1.7,1.6c0,0,0,0,0,0c0,0.9,0.7,1.7,1.7,1.7H137.3z"/>
					<path id="Path_2568" class="st11" d="M113.4,48.7c0.9,0,1.7-0.8,1.7-1.7c0-0.9-0.7-1.7-1.7-1.7c0,0,0,0,0,0h-3.1
						c-0.9,0-1.7,0.7-1.7,1.6c0,0,0,0,0,0c0,0.9,0.7,1.7,1.7,1.7H113.4z"/>
					<path id="Path_2569" class="st11" d="M372.7,340.6c0.9,0,1.7-0.8,1.7-1.7c0-0.9-0.7-1.7-1.6-1.7c0,0,0,0,0,0H356
						c-0.9,0-1.7,0.7-1.7,1.6c0,0,0,0,0,0c0,0.9,0.7,1.7,1.7,1.7H372.7z"/>
					<path id="Path_2570" class="st11" d="M342.7,340.6c0.9,0,1.7-0.8,1.7-1.7c0-0.9-0.7-1.7-1.7-1.7c0,0,0,0,0,0h-3.1
						c-0.9,0-1.7,0.7-1.7,1.6c0,0,0,0,0,0c0,0.9,0.7,1.7,1.7,1.7H342.7z"/>
					<path id="Path_2571" class="st12" d="M442.3,210.8c0,0,29.3,16.8,20.5,38.8c-0.4,0.7-0.4,6.5,2,10.2c2,3,3.1,6.5,3.2,10.1
						c0.2,6.5-1.6,12.9-5.2,18.3c0,0-14.4-13.1-14.2-22.2c0.2-9.1,5.3-17.5-5-25.9s-11-25-8.9-28.4S442.3,210.8,442.3,210.8"/>
					<path id="Path_2572" class="st13" d="M434.2,210.5c0.1-0.7,0.8-1.2,1.6-1.1c0.2,0,0.3,0.1,0.5,0.2
						c10.9,6.7,18.1,15.8,21.6,26.9c2.2,7.1,2.8,14.5,1.8,21.9c-0.2,1.7,0.1,3.5,1,5c4.8,8.2,3.4,24.3,3.4,25
						c-0.1,0.7-0.7,1.3-1.5,1.2s-1.3-0.7-1.2-1.5c0-0.2,1.3-15.9-3-23.4c-1.2-2-1.7-4.4-1.4-6.7c1.2-9,1.6-31.4-22.1-46.1
						C434.4,211.6,434.1,211,434.2,210.5"/>
					<path id="Path_2573" class="st13" d="M494.5,247c0,0-7-5.5-7.2-9.6s-6-17-13.9-16.9c-0.6-0.2-8.4,0.4-10.4-6.6s-22-8.7-27.1-7
						c-0.3,0,25.1,28.9,25.1,28.9s7.7,2,11.9,0.2s7.2,6.4,7.2,6.4S484.1,248.7,494.5,247"/>
					<path id="Path_2574" class="st12" d="M501.9,202.5c0,0-11.1,14.9-30.2,10c-11-2.8-15.6-2.5-17.6-1.7c-2.8,1.2-5.8,1.7-8.8,1.6
						c-4.4-0.2-9.9-1.1-14-3.7c-7.9-5.2,8.5-16.8,17.6-14.9s9.2,5.7,17.1,2.8s10.9,0,16.9,3.8S501.9,202.5,501.9,202.5"/>
					<path id="Path_2575" class="st13" d="M427.7,203.3c0-0.1,0.1-0.3,0.1-0.4c0.3-0.7,1.2-1,1.8-0.6c0,0,0,0,0,0
						c8.8,4.4,20.2,0.5,21.3,0.1c1.1-0.6,8.2-3.9,21.6,1.5c13,5.3,28.5-2.6,28.7-2.6c0.7-0.3,1.5-0.1,1.8,0.6
						c0.3,0.7,0.1,1.5-0.6,1.8c-0.7,0.4-16.7,8.5-31,2.7c-12.9-5.2-19.3-1.6-19.3-1.6c-0.1,0-0.1,0.1-0.2,0.1
						c-0.5,0.2-13.3,4.9-23.5-0.2C427.9,204.5,427.6,203.9,427.7,203.3"/>
					<path id="Path_2576" class="st13" d="M474.4,161.9c0,0-1.3,16.2-14.7,18.2c-9.1,1.3-11.7,6.7-12.4,10.1
						c-1.8,8.9-10.4,14.7-19.3,12.9c-0.1,0-0.1,0-0.2,0c0,0,6-11.7,3.7-16.8s5.2-20.2,18.2-19.3S470.4,167.1,474.4,161.9"/>
					<path id="Path_2577" class="st12" d="M433.9,204.6c0,0,9.9,8.4,0.7,17.2c-0.3,0.7-7.6,9.1-0.3,18.1
						c-1.1,0.4-11.9-3.3-13.7-13.9c-0.8-4.8,0.4-9.6,3.4-13.5c2.2-2.9,4.9-7,3.6-10C428.3,201.9,433.9,204.6,433.9,204.6"/>
					<path id="Path_2578" class="st13" d="M427.4,202.8c0.1-0.7,0.8-1.2,1.6-1.1c0.2,0,0.5,0.1,0.6,0.3c0.1,0.1,9,7.7,0.6,19.2
						c-5.4,7.3,4.7,17.6,4.8,17.7c0.5,0.5,0.5,1.4,0,1.9c-0.5,0.5-1.4,0.5-1.9,0c0,0,0,0,0,0c-0.5-0.5-11.8-12.1-5.1-21.2
						c6.9-9.4,0.1-15.3-0.1-15.5C427.5,203.8,427.3,203.3,427.4,202.8"/>
					<path id="Path_2579" class="st12" d="M82,245.9c0,0-23.8-19.7-39.8-5c-0.5,0.6-5.4,2.5-9.4,1.6c-3.2-0.8-6.6-0.6-9.7,0.5
						c-5.6,1.9-10.5,5.6-14,10.4c0,0,15.9,8.1,23.6,5s13.3-10.2,23.8-4.1c10.5,6.1,25,1.3,27.2-1.5S82,245.9,82,245.9"/>
					<path id="Path_2580" class="st13" d="M84.8,252.7c0.1-0.1,0.3-0.2,0.4-0.3c0.4-0.5,0.3-1.3-0.2-1.7c0,0,0,0,0,0
						c-9.3-7.1-19.4-10.4-30-9.8c-6.8,0.4-13.3,2.3-19.3,5.5c-1.4,0.8-3,1-4.6,0.7c-8.6-1.4-21.9,4.9-22.5,5.2
						c-0.6,0.3-0.9,1-0.6,1.6c0.3,0.6,1,0.9,1.6,0.6c0,0,0,0,0.1,0c0.1-0.1,13.2-6.2,21-5c2.1,0.4,4.3,0,6.2-1
						c7.3-3.9,26.4-11.4,46.6,4.1C83.9,252.9,84.4,253,84.8,252.7"/>
					<path id="Path_2581" class="st13" d="M19.1,202.8c0,0,9,5.5,13.6,4s21.3-0.4,24.5,8.4c0.5,0.5,3.1,9.5,11.7,8.7
						s18.8,20.7,19,27c0.2,0.3-42.5-15.7-42.5-15.7s-5.5-7.7-5.2-13.1s-10.1-5.2-10.1-5.2S21.6,215.1,19.1,202.8"/>
					<path id="Path_2582" class="st12" d="M65.3,176.1c0,0-11.8,18.5,1.6,37.6c7.7,11,9.3,16.3,9.2,18.8c-0.1,3.6,0.5,7.1,1.8,10.4
						c2.1,4.8,5.3,10.5,9.9,13.9c9,6.6,15-16.5,9.2-25.7s-10.1-7.8-10.2-17.7s-4.6-12.1-11.2-17.1S65.3,176.1,65.3,176.1"/>
					<path id="Path_2583" class="st13" d="M95.3,258.5c0.1-0.1,0.3-0.2,0.4-0.3c0.6-0.7,0.6-1.7-0.1-2.3c-8.5-7.9-8.9-22.1-9-23.5
						c0.2-1.4,0.9-10.8-10.7-23.3c-11.3-12.2-9.1-32.6-9-32.8c0.1-0.9-0.5-1.7-1.4-1.8s-1.7,0.5-1.8,1.4c-0.1,0.9-2.4,22.1,9.9,35.4
						c11.1,12.1,9.8,20.6,9.8,20.7c0,0.1,0,0.2,0,0.3c0,0.7,0.1,16.7,10,26C93.9,258.8,94.7,258.9,95.3,258.5"/>
					<path id="Path_2584" class="st13" d="M121.6,189.6c0,0-17.4,8.2-14,23.9c2.3,10.6-2.5,15.7-6,17.9c-9.1,5.7-11.9,17.6-6.2,26.7
						c0,0.1,0.1,0.1,0.1,0.2c0,0,10.5-11.5,17-11.1s20.2-14.2,13.8-28.2S117.6,196.2,121.6,189.6"/>
					<path id="Path_2585" class="st12" d="M91.3,252.2c0,0-13.4-7.5-19.4,6.4c-0.7,0.7-6.9,12.2-19.9,7.8c0,1.4,8.6,11.8,21.1,9.4
						c5.6-1.1,10.5-4.5,13.5-9.3c2.3-3.7,5.8-8.3,9.5-8.2C96.7,257.2,91.3,252.2,91.3,252.2"/>
					<path id="Path_2586" class="st12" d="M97.7,255.7c0,0,7.6,0.2,11.8-4.1s12.7-0.3,12.7-0.3s-6.5-19.2-18.9-9.3
						S97.7,255.7,97.7,255.7"/>
					<path id="Path_2587" class="st13" d="M96,258.7c0.8-0.4,1-1.4,0.6-2.2c-0.1-0.2-0.3-0.4-0.6-0.6c-0.1-0.1-12.3-6.8-21.5,7.3
						c-5.9,9-21.5,2.1-21.6,2.1c-0.8-0.4-1.8,0-2.1,0.8c-0.3,0.8,0,1.7,0.8,2.1c0.7,0.3,18.3,8.1,25.6-3.2
						c7.5-11.5,16.8-6.5,17.2-6.3C94.9,259,95.5,259,96,258.7"/>
					<path id="Path_2588" class="st13" d="M123,252.6c0.1,0,0.1-0.1,0.2-0.1c0.7-0.5,0.8-1.6,0.3-2.3c0,0,0,0,0,0
						c-5.1-6.6-12.3-8.4-18.6-4.6c-3.2,1.9-9.2,7.5-9.5,7.7c-0.7,0.6-0.7,1.6-0.1,2.3c0.6,0.7,1.6,0.7,2.3,0.1
						c0.1-0.1,6.1-5.5,9-7.3c0.1,0,0.2-0.1,0.2-0.1c4.7-2.7,10.2-1.2,14.1,3.9C121.4,252.8,122.3,253,123,252.6"/>
					<path id="Path_2589" class="st7" d="M261,100.3c-0.2-0.9-0.8-1.7-1.6-2.2c-1.2-0.7-2.8-0.5-4.1-1c-2.9-1-3.7-5.6-1.3-7.5
						c1.2-1,3-1.3,3.9-2.5c1.2-1.7,0.2-4.1-0.8-5.9c-0.8-1.5-1.7-3.1-2.5-4.6c-1.2-2.1-2.9-4.5-5.3-4.1c-1.3,0.2-2.3,1.3-3.6,1.9
						c-2.9,1.3-6.7-1.7-6.1-4.9c0.3-1.7,1.6-3.3,1.3-5c-0.3-1.6-1.9-2.6-3.4-3.3c-1.8-0.9-3.7-1.6-5.6-2.3c-2.5-0.9-6-1.4-7.4,0.9
						c-0.4,1-0.7,2-1,3c-1.2,2.2-3.9,3.1-6.1,1.9c-0.5-0.2-0.9-0.6-1.2-0.9c-0.9-1.2-1.2-2.8-1.9-4.1c-0.9-1.7-2.9-2.4-4.6-1.6
						c-2.3,0.9-4.7,1.1-7,1.9c-2.6,0.9-5.1,3.2-4.7,5.8c0.2,1.1,0.8,2,1,3.1c0.3,2.4-1.4,4.7-3.9,5c-0.5,0.1-1,0-1.6-0.1
						c-1.8-0.6-3.2-2.3-5.1-2.3c-1.9,0.1-3.1,1.8-4.1,3.4l-2.8,4.6c-1.3,2.1-2.6,5-0.9,6.9c0.9,1,2.2,1.3,3.3,2.1
						c2,1.5,2.4,4.2,0.9,6.2c-0.7,0.9-1.7,1.5-2.8,1.7c-0.9,0-1.9,0.2-2.8,0.3c-2.6,0.9-2.9,4.4-2.4,7.1c0.3,2,0.7,4.1,1.2,6.1
						c0.4,1.6,1,3.3,2.5,3.9c1.6,0.6,3.3-0.3,5.1-0.3c3,0,5.3,3.9,3.7,6.5c-0.8,1.4-2.5,2.4-2.9,4c-0.8,3.1,3.4,5.9,6.9,9
						c1.6,1.4,3.7,2.9,5.7,2.1c1.5-0.6,2.1-2.3,3.4-3.3c2.4-2,6.8-0.3,7.2,2.8c0.2,1.5-0.4,3.2,0.2,4.6c0.9,1.9,3.4,2.2,5.5,2.3
						l5.1,0.1c2.5,0.1,5.6-0.3,6.4-2.6c0.5-1.3,0-2.7,0.2-4c0.4-3,4.6-4.7,7-2.8c1.4,1.1,2.2,3.2,3.9,3.8c1.7,0.5,3.4-0.6,4.8-1.7
						l4.1-3.1c1.2-0.8,2.2-1.8,3-2.9c0.8-1.2,1-2.7,0.4-4c-0.6-0.8-1.3-1.6-2-2.3c-1.5-1.9-1.2-4.7,0.8-6.3c0.8-0.7,1.9-1,2.9-0.9
						c1.5,0.1,3.1,0.9,4.6,0.5c2.1-0.5,2.9-3,3.3-5.1l1-5C261.2,103.4,261.3,101.9,261,100.3 M218.3,84.9c2.2-0.1,4.4,0.3,6.4,1.3
						c1.5,0.6,2.9,1.6,4.1,2.7c2.7,2.6,4.3,6.1,4.4,9.8c0.2,4.3-1.6,8.4-4.8,11.3c-1.2,1.1-2.7,2-4.3,2.6c-1.5,0.6-3.1,1-4.8,1.1
						c-7.1,0.3-13.3-4.6-14.7-11.6c-0.2-0.7-0.3-1.5-0.3-2.2c0-0.9,0-1.8,0.2-2.7C205.7,90.3,211.4,85.1,218.3,84.9"/>
					<path id="Path_2590" class="st14" d="M219.6,77.5c-12.2-0.2-22.3,9.5-22.5,21.7s9.5,22.3,21.7,22.5
						c12.2,0.2,22.3-9.5,22.5-21.7c0,0,0,0,0,0C241.5,87.7,231.8,77.7,219.6,77.5"/>
					<rect id="Rectangle_1679" x="102" y="318.4" class="st11" width="86.2" height="4.2"/>
					<rect id="Rectangle_1680" x="97.3" y="201.1" class="st11" width="98" height="99.4"/>
					<path id="Path_2591" class="st11" d="M194.6,172.7H98c-0.4,0-0.7,0.3-0.7,0.7c0,0,0,0,0,0v27.6h98v-27.6
						C195.2,173,194.9,172.7,194.6,172.7L194.6,172.7"/>
					<rect id="Rectangle_1681" x="82.6" y="188.2" class="st15" width="127.3" height="36.8"/>
					<rect id="Rectangle_1682" x="101.7" y="199.7" class="st11" width="89.6" height="14"/>
					<rect id="Rectangle_1683" x="104.6" y="201.6" class="st16" width="83.2" height="10"/>
					<g id="Group_2012" transform="translate(176.339 189.678)">
						<g id="Group_2011">
							<g>
								<defs>
									<rect id="SVGID_00000073706266708949891120000009780890701481125253_" x="-71.7" y="11.9" width="83.2" height="5"/>
								</defs>
								<clipPath id="SVGID_00000143576038027143005880000016592386966060073893_">
									<use xlink:href="#SVGID_00000073706266708949891120000009780890701481125253_"  style="overflow:visible;"/>
								</clipPath>
								<g id="Group_2010" style="clip-path:url(#SVGID_00000143576038027143005880000016592386966060073893_);">
									<path id="Path_2592" class="st18" d="M11.5,17l-83.2-5h83.2V17z"/>
								</g>
							</g>
						</g>
					</g>
					<g id="Group_2015" transform="translate(168.966 213.121)">
						<g id="Group_2014">
							<g>
								<defs>
									<rect id="SVGID_00000121959574246434105270000007998289230607207581_" x="-71.7" y="11.9" width="98" height="5"/>
								</defs>
								<clipPath id="SVGID_00000093146843581583801170000000516894861774546853_">
									<use xlink:href="#SVGID_00000121959574246434105270000007998289230607207581_"  style="overflow:visible;"/>
								</clipPath>
								<g id="Group_2013" style="clip-path:url(#SVGID_00000093146843581583801170000000516894861774546853_);">
									<path id="Path_2593" class="st18" d="M26.3,17l-98-5h98V17z"/>
								</g>
							</g>
						</g>
					</g>
					<g id="Group_2018" transform="translate(168.966 260.99)">
						<g id="Group_2017">
							<g>
								<defs>
									<rect id="SVGID_00000054245612046577764450000003212842377298918549_" x="-71.7" y="11.9" width="98" height="5"/>
								</defs>
								<clipPath id="SVGID_00000064334692745207014760000010848924882584124590_">
									<use xlink:href="#SVGID_00000054245612046577764450000003212842377298918549_"  style="overflow:visible;"/>
								</clipPath>
								<g id="Group_2016" style="clip-path:url(#SVGID_00000064334692745207014760000010848924882584124590_);">
									<path id="Path_2594" class="st18" d="M26.3,17l-98-5h98V17z"/>
								</g>
							</g>
						</g>
					</g>
					<g id="Group_2021" transform="translate(175.977 307.453)">
						<g id="Group_2020">
							<g>
								<defs>
									<rect id="SVGID_00000004516844940565175370000013547818732673503148_" x="-71.7" y="11.9" width="83.9" height="1.8"/>
								</defs>
								<clipPath id="SVGID_00000103244666473593957700000018267532088212341412_">
									<use xlink:href="#SVGID_00000004516844940565175370000013547818732673503148_"  style="overflow:visible;"/>
								</clipPath>
								<g id="Group_2019" style="clip-path:url(#SVGID_00000103244666473593957700000018267532088212341412_);">
									<path id="Path_2595" class="st18" d="M12.2,13.8l-83.9-1.8h83.9V13.8z"/>
								</g>
							</g>
						</g>
					</g>
					<path id="Path_2596" class="st11" d="M95.4,206.6c0,1.7-1.4,3.1-3.1,3.1s-3.1-1.4-3.1-3.1s1.4-3.1,3.1-3.1l0,0
						C94,203.5,95.4,204.9,95.4,206.6"/>
					<path id="Path_2597" class="st11" d="M204.4,206.6c0,1.7-1.4,3.1-3.1,3.1c-1.7,0-3.1-1.4-3.1-3.1c0-1.7,1.4-3.1,3.1-3.1
						S204.4,204.9,204.4,206.6L204.4,206.6"/>
					<rect id="Rectangle_1688" x="82.6" y="282.6" class="st15" width="127.3" height="36.8"/>
					<rect id="Rectangle_1689" x="101.7" y="294" class="st11" width="89.6" height="14"/>
					<rect id="Rectangle_1690" x="104.6" y="296" class="st16" width="83.2" height="10"/>
					<path id="Path_2598" class="st11" d="M95.4,301c0,1.7-1.4,3.1-3.1,3.1s-3.1-1.4-3.1-3.1c0-1.7,1.4-3.1,3.1-3.1
						C94,297.8,95.4,299.2,95.4,301L95.4,301"/>
					<path id="Path_2599" class="st11" d="M204.4,301c0,1.7-1.4,3.1-3.1,3.1s-3.1-1.4-3.1-3.1s1.4-3.1,3.1-3.1
						S204.4,299.2,204.4,301L204.4,301"/>
					<rect id="Rectangle_1691" x="82.6" y="236" class="st15" width="127.3" height="36.8"/>
					<rect id="Rectangle_1692" x="101.7" y="247.4" class="st11" width="89.6" height="14"/>
					<rect id="Rectangle_1693" x="104.6" y="249.3" class="st16" width="83.2" height="10"/>
					<path id="Path_2600" class="st11" d="M95.4,254.4c0,1.7-1.4,3.1-3.1,3.1s-3.1-1.4-3.1-3.1s1.4-3.1,3.1-3.1l0,0
						C94,251.2,95.4,252.6,95.4,254.4"/>
					<path id="Path_2601" class="st11" d="M204.4,254.4c0,1.7-1.4,3.1-3.1,3.1c-1.7,0-3.1-1.4-3.1-3.1c0-1.7,1.4-3.1,3.1-3.1
						S204.4,252.6,204.4,254.4L204.4,254.4"/>
					<path id="Path_2602" class="st16" d="M156.2,184.8h28.7c0.3,0,0.5-0.2,0.5-0.5c0,0,0,0,0,0v-6.6c0-0.3-0.2-0.5-0.5-0.5
						c0,0,0,0,0,0h-28.7c-0.3,0-0.5,0.2-0.5,0.5c0,0,0,0,0,0v6.6C155.7,184.6,155.9,184.8,156.2,184.8
						C156.2,184.8,156.2,184.8,156.2,184.8"/>
					<path id="Path_2603" class="st16" d="M111.6,179.5c0,1.2-1,2.2-2.2,2.2s-2.2-1-2.2-2.2s1-2.2,2.2-2.2S111.6,178.3,111.6,179.5
						L111.6,179.5"/>
					<path id="Path_2604" class="st16" d="M117.8,179.5c0,1.2-1,2.2-2.2,2.2s-2.2-1-2.2-2.2s1-2.2,2.2-2.2S117.8,178.3,117.8,179.5
						L117.8,179.5"/>
					<g id="Group_2024" transform="translate(176.339 284.009)">
						<g id="Group_2023">
							<g>
								<defs>
									<rect id="SVGID_00000033364976584291160470000007536155308016396730_" x="-71.7" y="11.9" width="83.2" height="5"/>
								</defs>
								<clipPath id="SVGID_00000054262612378203691940000003694748934239485364_">
									<use xlink:href="#SVGID_00000033364976584291160470000007536155308016396730_"  style="overflow:visible;"/>
								</clipPath>
								<g id="Group_2022" style="clip-path:url(#SVGID_00000054262612378203691940000003694748934239485364_);">
									<path id="Path_2605" class="st18" d="M11.5,17l-83.2-5h83.2V17z"/>
								</g>
							</g>
						</g>
					</g>
					<g id="Group_2027" transform="translate(176.339 237.41)">
						<g id="Group_2026">
							<g>
								<defs>
									<rect id="SVGID_00000023978779959188098950000006369601819468710815_" x="-71.7" y="11.9" width="83.2" height="5"/>
								</defs>
								<clipPath id="SVGID_00000125586169503314183520000005516493800059515053_">
									<use xlink:href="#SVGID_00000023978779959188098950000006369601819468710815_"  style="overflow:visible;"/>
								</clipPath>
								<g id="Group_2025" style="clip-path:url(#SVGID_00000125586169503314183520000005516493800059515053_);">
									<path id="Path_2606" class="st18" d="M11.5,17l-83.2-5h83.2V17z"/>
								</g>
							</g>
						</g>
					</g>
					<g id="Group_2030" transform="translate(227.423 165.354)">
						<g id="Group_2029">
							<g>
								<defs>
									<rect id="SVGID_00000033333201279689825240000013454887559023425418_" x="-71.7" y="11.9" width="29.7" height="5"/>
								</defs>
								<clipPath id="SVGID_00000104671847113979996400000013602428204750060724_">
									<use xlink:href="#SVGID_00000033333201279689825240000013454887559023425418_"  style="overflow:visible;"/>
								</clipPath>
								<g id="Group_2028" style="clip-path:url(#SVGID_00000104671847113979996400000013602428204750060724_);">
									<path id="Path_2607" class="st18" d="M-42,17l-29.7-5h29.1c0.3,0,0.5,0.2,0.5,0.5l0,0V17z"/>
								</g>
							</g>
						</g>
					</g>
					<path id="Path_2608" class="st25" d="M432,143.5H230.3c-3.6,0-6.5,2.9-6.5,6.5v129.8h214.7V150
						C438.5,146.4,435.6,143.5,432,143.5"/>
					<path id="Path_2609" class="st26" d="M228.6,279.8V150c0-0.9,0.7-1.6,1.6-1.6H432c0.9,0,1.6,0.7,1.6,1.6v129.8H228.6z"/>
					<rect id="Rectangle_1697" x="232.7" y="152.9" class="st4" width="196.8" height="118.6"/>
					<path id="Path_2610" class="st27" d="M298.8,322.8h66.3l2.9-2.1h-72.1L298.8,322.8z"/>
					<path id="Path_2611" class="st25" d="M306.9,315.5c0,0-0.4,3.7-5.1,4.3l-5.9,0.9H368l-5.9-0.9c-4.7-0.6-5.1-4.3-5.1-4.3
						l-0.8-7.1l-48.4-1L306.9,315.5z"/>
					<path id="Path_2612" class="st27" d="M307.8,307.4l48.4,1l-0.7-7h-47L307.8,307.4z"/>
					<path id="Path_2613" class="st25" d="M223.8,279.8V295c0,3.6,2.9,6.5,6.5,6.5H432c3.6,0,6.5-2.9,6.5-6.5c0,0,0,0,0,0v-15.1
						H223.8z"/>
					<path id="Path_2614" class="st26" d="M342.8,290.8c0,1.3-1,2.3-2.3,2.3h-16.9c-1.3,0-2.4-1-2.4-2.3s1-2.4,2.3-2.4
						c0,0,0.1,0,0.1,0h16.9C341.7,288.5,342.8,289.6,342.8,290.8"/>
					<rect id="Rectangle_1698" x="240.4" y="160.5" class="st7" width="183.1" height="18.2"/>
					<rect id="Rectangle_1699" x="363.9" y="186" class="st7" width="59.5" height="9.4"/>
					<rect id="Rectangle_1700" x="363.9" y="195.4" class="st10" width="59.5" height="68.6"/>
					<rect id="Rectangle_1701" x="293.5" y="211.4" class="st7" width="64.6" height="10.2"/>
					<rect id="Rectangle_1702" x="293.5" y="221.6" class="st10" width="64.6" height="42.4"/>
					<rect id="Rectangle_1703" x="240.4" y="186" class="st7" width="117.7" height="9.4"/>
					<path id="Path_2615" class="st10" d="M358.1,195.4v13.1h-67.1V264h-50.6v-68.6H358.1z"/>
				</g>
			</g>
		</g>
		<text transform="matrix(1 0 0 1 204.527 102.2385)" class="st10 st28 st29">API</text>
	</g>
</g>
</svg>
