<?xml version="1.0" encoding="utf-8"?>
<!-- Generator: Adobe Illustrator 26.0.2, SVG Export Plug-In . SVG Version: 6.00 Build 0)  -->
<svg version="1.1" id="Layer_1" xmlns="http://www.w3.org/2000/svg" xmlns:xlink="http://www.w3.org/1999/xlink" x="0px" y="0px"
	 viewBox="0 0 510 400" style="enable-background:new 0 0 510 400;" xml:space="preserve">
<style type="text/css">
	.st0{clip-path:url(#SVGID_00000031174376553740007660000002622934267103937433_);}
	.st1{clip-path:url(#SVGID_00000121260640061094357130000016712380408046061455_);}
	.st2{fill:#F4F4F4;}
	.st3{opacity:0.63;}
	.st4{clip-path:url(#SVGID_00000026158449962509568370000009197040320032956563_);}
	.st5{fill:#C6C6C6;}
	.st6{fill:#E1E1E1;}
	.st7{fill:#D8D8D8;}
	.st8{fill:#383838;}
	.st9{fill:#ECECEC;}
	.st10{fill:#F5F5F5;}
	.st11{fill:#FAFAFA;}
	.st12{fill:#292929;}
	.st13{fill:#858585;}
	.st14{opacity:0.3;}
	.st15{clip-path:url(#SVGID_00000069357833382182042220000006506714969871666106_);}
	.st16{clip-path:url(#SVGID_00000130644432638614254820000003949609335997231272_);}
	.st17{fill:#FFFFFF;}
	.st18{fill:#515151;}
</style>
<g>
	<defs>
		<rect id="SVGID_1_" x="10" y="34.9" width="490" height="330.2"/>
	</defs>
	<clipPath id="SVGID_00000098928114087112501940000013104649768455916714_">
		<use xlink:href="#SVGID_1_"  style="overflow:visible;"/>
	</clipPath>
	<g id="Group_2063" style="clip-path:url(#SVGID_00000098928114087112501940000013104649768455916714_);">
		<g id="Group_2062">
			<g>
				<defs>
					<rect id="SVGID_00000049927597898556346300000007319115327980190130_" x="10" y="34.9" width="490" height="330.2"/>
				</defs>
				<clipPath id="SVGID_00000138546045754135245130000007068993086498123451_">
					<use xlink:href="#SVGID_00000049927597898556346300000007319115327980190130_"  style="overflow:visible;"/>
				</clipPath>
				<g id="Group_2061" style="clip-path:url(#SVGID_00000138546045754135245130000007068993086498123451_);">
					<path id="Path_2922" class="st2" d="M88.4,358.1h317.9c32.2-21.7,50.8-64.8,44.7-103.2c-6.1-38.4-35.9-71.9-73.3-82.5
						c0.2-24.4-3.3-49.7-13.6-71.9s-26.9-41.7-48.3-53.6s-47.5-15.6-70.8-8.3s-43.1,26.4-49.5,50c-24.2-6.1-50.8,1.5-68.9,18.6
						c-18.3,17.7-26.5,43.4-21.8,68.4c-17.6,1.7-33.5,8.7-46.2,21.1c-12.7,12.5-20.8,29-23,46.7c-2.6,21.4,3.9,43.1,14.2,62.1
						C60.4,324.4,74.4,341.7,88.4,358.1"/>
					<g id="Group_2054" class="st3">
						<g id="Group_2053">
							<g>
								<defs>
									<rect id="SVGID_00000007408932589361395470000005171272760589241237_" x="44.3" y="85.3" width="364.1" height="173.1"/>
								</defs>
								<clipPath id="SVGID_00000064315216039720696250000012928842102421509034_">
									<use xlink:href="#SVGID_00000007408932589361395470000005171272760589241237_"  style="overflow:visible;"/>
								</clipPath>
								<g id="Group_2052" style="clip-path:url(#SVGID_00000064315216039720696250000012928842102421509034_);">
									<rect id="Rectangle_1922" x="242.6" y="183.8" class="st5" width="1.1" height="2.3"/>
									<path id="Path_2923" class="st5" d="M243.8,179.1h-1.1v-4.8h1.1V179.1z M243.8,169.5h-1.1v-4.8h1.1V169.5z M243.8,160h-1.1
										v-4.8h1.1V160z M243.8,150.5h-1.1v-4.8h1.1V150.5z M243.8,141h-1.1v-4.8h1.1V141z M243.8,131.4h-1.1v-4.8h1.1V131.4z"/>
									<path id="Path_2924" class="st5" d="M243.8,121.9h-1.1v-1.7h-1.7v-1.1h2.8V121.9z"/>
									<path id="Path_2925" class="st5" d="M236.8,120.2h-4.2v-1.1h4.2V120.2z M228.5,120.2h-4.2v-1.1h4.2V120.2z M220.2,120.2
										H216v-1.1h4.2V120.2z M211.8,120.2h-4.2v-1.1h4.2V120.2z M203.5,120.2h-4.2v-1.1h4.2V120.2z M195.2,120.2h-4.2v-1.1h4.2
										V120.2z"/>
									<path id="Path_2926" class="st5" d="M186.9,120.2h-2.8v-2.8h1.1v1.7h1.7V120.2z"/>
									<path id="Path_2927" class="st5" d="M185.2,113.2h-1.1V109h1.1V113.2z M185.2,104.9h-1.1v-4.2h1.1V104.9z M185.2,96.5h-1.1
										v-4.2h1.1V96.5z"/>
									<path id="Path_2928" class="st5" d="M185.2,88.1h-1.1v-1.7h-1.7v-1.1h2.8V88.1z"/>
									<path id="Path_2929" class="st5" d="M177.7,86.4h-4.7v-1.1h4.7V86.4z M168.4,86.4h-4.7v-1.1h4.7V86.4z M159.1,86.4h-4.7
										v-1.1h4.7V86.4z M149.8,86.4h-4.7v-1.1h4.7V86.4z M140.5,86.4h-4.7v-1.1h4.7L140.5,86.4z M131.2,86.4h-4.7v-1.1h4.7V86.4z
										 M121.9,86.4h-4.7v-1.1h4.7L121.9,86.4z M112.6,86.4h-4.7v-1.1h4.7V86.4z"/>
									<path id="Path_2930" class="st5" d="M101.6,88.1h-1.1v-2.8h2.8v1.1h-1.7V88.1z"/>
									<path id="Path_2931" class="st5" d="M101.6,129.6h-1.1v-4.1h1.1V129.6z M101.6,121.3h-1.1v-4.1h1.1V121.3z M101.6,113h-1.1
										v-4.1h1.1V113z M101.6,104.7h-1.1v-4.1h1.1V104.7z M101.6,96.4h-1.1v-4.1h1.1V96.4z"/>
									<path id="Path_2932" class="st5" d="M103.3,136.5h-2.8v-2.8h1.1v1.7h1.7V136.5z"/>
									<rect id="Rectangle_1923" x="105.8" y="135.4" class="st5" width="2.5" height="1.1"/>
									<path id="Path_2933" class="st5" d="M113.7,138.2h-1.1v-1.7h-1.7v-1.1h2.8V138.2z"/>
									<path id="Path_2934" class="st5" d="M115.3,202.3h-2.8v-2.8h1.1v1.7h1.7V202.3z"/>
									<path id="Path_2935" class="st5" d="M144.1,202.3h-4.8v-1.1h4.8V202.3z M134.5,202.3h-4.8v-1.1h4.8V202.3z M124.9,202.3
										h-4.8v-1.1h4.8V202.3z"/>
									<rect id="Rectangle_1924" x="148.9" y="201.1" class="st5" width="2.3" height="1.1"/>
									<rect id="Rectangle_1925" x="277.5" y="100.3" class="st5" width="2.3" height="1.1"/>
									<path id="Path_2936" class="st5" d="M273,101.5h-4.5v-1.1h4.5V101.5z M263.9,101.5h-4.5v-1.1h4.5V101.5z M254.9,101.5h-4.5
										v-1.1h4.5V101.5z M245.8,101.5h-4.5v-1.1h4.5V101.5z M236.8,101.5h-4.5v-1.1h4.5V101.5z"/>
									<path id="Path_2937" class="st5" d="M226,103.1h-1.1v-2.8h2.8v1.1H226V103.1z"/>
									<path id="Path_2938" class="st5" d="M226,186.7h-1.1v-4.6h1.1V186.7z M226,177.4h-1.1v-4.6h1.1V177.4z M226,168.1h-1.1
										v-4.6h1.1V168.1z M226,158.9h-1.1v-4.6h1.1V158.9z M226,149.6h-1.1v-4.6h1.1V149.6z M226,140.3h-1.1v-4.6h1.1V140.3z
										 M226,131h-1.1v-4.6h1.1V131z M226,121.7h-1.1v-4.6h1.1V121.7z M226,112.4h-1.1v-4.6h1.1V112.4z"/>
									<rect id="Rectangle_1926" x="224.9" y="191.3" class="st5" width="1.1" height="2.3"/>
									<rect id="Rectangle_1927" x="308.7" y="163.8" class="st5" width="1.1" height="2.3"/>
									<path id="Path_2939" class="st5" d="M309.9,159.6h-1.1v-4.2h1.1V159.6z M309.9,151.2h-1.1v-4.2h1.1V151.2z M309.9,142.7
										h-1.1v-4.2h1.1V142.7z M309.9,134.3h-1.1v-4.2h1.1V134.3z"/>
									<path id="Path_2940" class="st5" d="M309.9,125.9h-1.1v-2.8h2.8v1.1h-1.7V125.9z"/>
									<rect id="Rectangle_1928" x="314.1" y="123.1" class="st5" width="2.6" height="1.1"/>
									<path id="Path_2941" class="st5" d="M322.1,124.2h-2.8v-1.1h1.7v-1.7h1.1V124.2z"/>
									<path id="Path_2942" class="st5" d="M322.1,117.1H321v-4.3h1.1V117.1z M322.1,108.5H321v-4.3h1.1V108.5z"/>
									<path id="Path_2943" class="st5" d="M322.1,99.9H321v-2.8h2.8v1.1h-1.7V99.9z"/>
									<path id="Path_2944" class="st5" d="M347.8,98.2h-4v-1.1h4V98.2z M339.8,98.2h-4v-1.1h4V98.2z M331.8,98.2h-4v-1.1h4V98.2z
										"/>
									<path id="Path_2945" class="st5" d="M354.6,99.9h-1.1v-1.7h-1.7v-1.1h2.8V99.9z"/>
									<path id="Path_2946" class="st5" d="M354.6,123.3h-1.1v-3.9h1.1V123.3z M354.6,115.5h-1.1v-3.9h1.1V115.5z M354.6,107.7
										h-1.1v-3.9h1.1V107.7z"/>
									<path id="Path_2947" class="st5" d="M356.3,130h-2.8v-2.8h1.1v1.7h1.7V130z"/>
									<path id="Path_2948" class="st5" d="M383.2,130h-4.5v-1.1h4.5V130z M374.2,130h-4.5v-1.1h4.5V130z M365.3,130h-4.5v-1.1
										h4.5V130z"/>
									<path id="Path_2949" class="st5" d="M390.5,131.7h-1.1V130h-1.7v-1.1h2.8V131.7z"/>
									<path id="Path_2950" class="st5" d="M390.5,218.3h-1.1V214h1.1V218.3z M390.5,209.7h-1.1v-4.3h1.1V209.7z M390.5,201h-1.1
										v-4.3h1.1V201z M390.5,192.4h-1.1V188h1.1V192.4z M390.5,183.7h-1.1v-4.3h1.1V183.7z M390.5,175h-1.1v-4.3h1.1V175z
										 M390.5,166.4h-1.1V162h1.1V166.4z M390.5,157.7h-1.1v-4.3h1.1V157.7z M390.5,149.1h-1.1v-4.3h1.1V149.1z M390.5,140.4
										h-1.1v-4.3h1.1V140.4z"/>
									<path id="Path_2951" class="st5" d="M392.2,225.5h-2.8v-2.8h1.1v1.7h1.7V225.5z"/>
									<rect id="Rectangle_1929" x="396.6" y="224.4" class="st5" width="4.4" height="1.1"/>
									<path id="Path_2952" class="st5" d="M408.3,227.2h-1.1v-1.7h-1.7v-1.1h2.8V227.2z"/>
									<path id="Path_2953" class="st5" d="M408.3,251.6h-1.1v-4.1h1.1V251.6z M408.3,243.4h-1.1v-4.1h1.1V243.4z M408.3,235.3
										h-1.1v-4.1h1.1V235.3z"/>
									<path id="Path_2954" class="st5" d="M408.3,258.4h-2.8v-1.1h1.7v-1.7h1.1V258.4z"/>
									<path id="Path_2955" class="st5" d="M401,258.4h-4.5v-1.1h4.5V258.4z M392,258.4h-4.5v-1.1h4.5V258.4z M383,258.4h-4.5
										v-1.1h4.5V258.4z M374.1,258.4h-4.5v-1.1h4.5L374.1,258.4z M365.1,258.4h-4.5v-1.1h4.5V258.4z M356.1,258.4h-4.5v-1.1h4.5
										V258.4z"/>
									<path id="Path_2956" class="st5" d="M347.1,258.4h-2.8v-2.8h1.1v1.7h1.7V258.4z"/>
									<path id="Path_2957" class="st5" d="M345.4,250.9h-1.1v-4.7h1.1V250.9z M345.4,241.4h-1.1v-4.7h1.1V241.4z M345.4,232h-1.1
										v-4.7h1.1V232z"/>
									<path id="Path_2958" class="st5" d="M345.4,222.5h-1.1v-1.7h-1.7v-1.1h2.8V222.5z"/>
									<path id="Path_2959" class="st5" d="M338,220.8h-4.6v-1.1h4.6V220.8z M328.7,220.8H324v-1.1h4.6V220.8z M319.4,220.8h-4.6
										v-1.1h4.6V220.8z M310.1,220.8h-4.6v-1.1h4.6V220.8z M300.8,220.8h-4.6v-1.1h4.6V220.8z"/>
									<rect id="Rectangle_1930" x="289.3" y="219.7" class="st5" width="2.3" height="1.1"/>
									<rect id="Rectangle_1931" x="85.3" y="225.5" class="st5" width="2.3" height="1.1"/>
									<path id="Path_2960" class="st5" d="M70.7,225.5h3.6v1.1h-3.6V225.5z M78,225.5h3.6v1.1H78L78,225.5z"/>
									<path id="Path_2961" class="st5" d="M64.3,226.7v-2.8h1.1v1.7h1.7v1.1H64.3z"/>
									<path id="Path_2962" class="st5" d="M64.3,215.5h1.1v4.2h-1.1V215.5z M64.3,207.1h1.1v4.2h-1.1V207.1z"/>
									<path id="Path_2963" class="st5" d="M62.6,201.3v-1.1h2.8v2.8h-1.1v-1.7H62.6z"/>
									<rect id="Rectangle_1932" x="52.3" y="200.2" class="st5" width="5.2" height="1.1"/>
									<path id="Path_2964" class="st5" d="M44.3,201.3v-2.8h1.1v1.7h1.7v1.1H44.3z"/>
									<path id="Path_2965" class="st5" d="M44.3,190.2h1.1v4.2h-1.1V190.2z M44.3,181.8h1.1v4.2h-1.1V181.8z M44.3,173.5h1.1v4.2
										h-1.1V173.5z"/>
									<path id="Path_2966" class="st5" d="M44.3,169.4v-2.8h2.8v1.1h-1.7v1.7H44.3z"/>
									<path id="Path_2967" class="st5" d="M51.1,166.6h4v1.1h-4V166.6z M59.1,166.6h4v1.1h-4L59.1,166.6z M67.1,166.6h4v1.1h-4
										L67.1,166.6z M75.1,166.6h4v1.1h-4L75.1,166.6z"/>
									<path id="Path_2968" class="st5" d="M83.1,167.7v-1.1h1.7v-1.7h1.1v2.8H83.1z"/>
									<path id="Path_2969" class="st5" d="M84.8,157.7h1.1v3.6h-1.1V157.7z M84.8,150.5h1.1v3.6h-1.1V150.5z"/>
									<path id="Path_2970" class="st5" d="M84.8,146.9v-2.8h2.8v1.1h-1.7v1.7H84.8z"/>
									<rect id="Rectangle_1933" x="91.9" y="144.1" class="st5" width="4.3" height="1.1"/>
									<rect id="Rectangle_1934" x="100.4" y="144.1" class="st5" width="4.3" height="1.1"/>
									<rect id="Rectangle_1935" x="117.4" y="144.1" class="st5" width="4.3" height="1.1"/>
									<rect id="Rectangle_1936" x="108.9" y="144.1" class="st5" width="4.3" height="1.1"/>
									<rect id="Rectangle_1937" x="124.3" y="144.1" class="st5" width="2.3" height="1.1"/>
								</g>
							</g>
						</g>
					</g>
					<path id="Path_2971" class="st6" d="M93.3,211.5c2.3,3.2,6.7,4,9.9,1.7l2.1-1.5c2.3,1.9,4.8,3.4,7.5,4.5l-0.4,2.2
						c-0.7,3.9,1.9,7.5,5.8,8.2c3.9,0.7,7.5-1.9,8.2-5.8l0.4-2.6c2.9-0.3,5.8-1,8.5-2.1l1.3,1.8c2.2,3.2,6.7,4,9.9,1.7
						c3.2-2.2,4-6.7,1.7-9.9c0,0,0,0,0,0l-1.5-2.1c1.9-2.3,3.4-4.8,4.5-7.5l0,0l2.2,0.4c3.9,0.7,7.5-1.9,8.2-5.8s-1.9-7.5-5.8-8.2
						c0,0,0,0,0,0l-2.6-0.4c-0.3-2.9-1-5.8-2.2-8.5l1.8-1.3c3.2-2.3,3.9-6.7,1.6-9.9c-2.3-3.1-6.6-3.9-9.8-1.7l-2.1,1.5l0,0
						c-2.3-1.9-4.8-3.4-7.5-4.5l0.4-2.2c0.7-3.9-1.9-7.5-5.8-8.2c-3.9-0.7-7.5,1.9-8.2,5.8l0,0l-0.4,2.6c-2.9,0.3-5.8,1-8.5,2.2
						l-1.3-1.8c-2.2-3.2-6.7-4-9.9-1.7c-3.2,2.2-4,6.7-1.7,9.9c0,0,0,0,0,0l1.5,2.1l0,0c-1.9,2.3-3.4,4.8-4.5,7.5l-2.2-0.4
						c-3.9-0.7-7.5,1.9-8.2,5.8c-0.7,3.9,1.9,7.5,5.8,8.2l0,0l2.6,0.4c0.3,2.9,1,5.8,2.1,8.5l-1.8,1.3
						C91.8,203.8,91,208.3,93.3,211.5C93.3,211.5,93.3,211.5,93.3,211.5 M111.8,171.6c9.5-6.7,22.7-4.5,29.5,5.1s4.5,22.7-5.1,29.5
						c-9.5,6.7-22.7,4.5-29.5-5.1C99.9,191.5,102.2,178.4,111.8,171.6C111.8,171.6,111.8,171.6,111.8,171.6"/>
					<path id="Path_2972" class="st6" d="M134.9,181.2c4.3,6,2.8,14.4-3.2,18.6c-6,4.3-14.4,2.8-18.6-3.2c-4.3-6-2.8-14.4,3.2-18.6
						C122.3,173.7,130.6,175.2,134.9,181.2C134.8,181.2,134.9,181.2,134.9,181.2"/>
					<path id="Path_2973" class="st6" d="M151.3,153.5c0.6,1.8,2.6,2.7,4.4,2.1c0,0,0,0,0,0l1.2-0.4c0.8,1.2,1.8,2.2,2.9,3l-0.5,1
						c-0.8,1.7-0.1,3.8,1.6,4.6c1.7,0.8,3.8,0.1,4.6-1.6c0,0,0-0.1,0-0.1l0.5-1.1c1.4,0.2,2.8,0.3,4.2,0.1l0.4,1
						c0.6,1.8,2.6,2.7,4.4,2.1c1.8-0.6,2.7-2.6,2.1-4.4l0,0l-0.4-1.2c1.2-0.8,2.2-1.8,3-2.9l0,0l1,0.5c1.7,0.8,3.8,0.1,4.6-1.6
						c0.8-1.7,0.1-3.8-1.6-4.6c0,0,0,0-0.1,0l-1.1-0.5c0.2-1.4,0.3-2.8,0.1-4.2l1-0.4c1.8-0.6,2.7-2.6,2.1-4.4s-2.6-2.7-4.4-2.1
						l-1.2,0.4l0,0c-0.8-1.2-1.8-2.2-2.9-3l0.5-1c0.8-1.7,0-3.8-1.7-4.6c-1.7-0.8-3.7,0-4.5,1.6l-0.5,1.2c-1.4-0.2-2.8-0.3-4.2-0.1
						l-0.4-1c-0.6-1.8-2.6-2.7-4.4-2.1s-2.7,2.6-2.1,4.4l0.4,1.2l0,0c-1.2,0.8-2.2,1.8-3,2.9l-1-0.5c-1.7-0.8-3.8-0.1-4.6,1.6
						c-0.8,1.7-0.1,3.8,1.6,4.6c0,0,0.1,0,0.1,0l1.2,0.5c-0.2,1.4-0.3,2.8-0.1,4.2l-1,0.4C151.6,149.8,150.7,151.7,151.3,153.5
						 M165,137.3c5.3-1.9,11.2,0.8,13.1,6.1c1.9,5.3-0.8,11.2-6.1,13.1c-5.3,1.9-11.2-0.8-13.1-6.1C157,145.1,159.7,139.2,165,137.3
						"/>
					<path id="Path_2974" class="st6" d="M174.6,144.7c1.2,3.4-0.5,7.1-3.9,8.3c-3.4,1.2-7.1-0.5-8.3-3.9c-1.2-3.4,0.5-7.1,3.9-8.3
						C169.7,139.6,173.4,141.3,174.6,144.7C174.6,144.7,174.6,144.7,174.6,144.7"/>
					<path id="Path_2975" class="st6" d="M325.8,179.5c1.6,2.3,4.8,2.8,7.1,1.2l1.5-1.1c1.6,1.3,3.4,2.4,5.4,3.2l-0.3,1.6
						c-0.5,2.8,1.4,5.4,4.2,5.9c2.8,0.5,5.4-1.4,5.9-4.1l0.3-1.9c2.1-0.2,4.1-0.7,6.1-1.5l0.9,1.3c1.6,2.3,4.8,2.8,7.1,1.2
						c2.3-1.6,2.8-4.8,1.2-7.1l0,0l-1.1-1.5c1.3-1.6,2.4-3.4,3.2-5.4l0,0l1.6,0.3c2.8,0.5,5.4-1.4,5.9-4.2s-1.4-5.4-4.2-5.9
						l-1.9-0.3c-0.2-2.1-0.7-4.1-1.5-6.1l1.3-0.9c2.3-1.6,2.8-4.8,1.2-7.1c-1.6-2.3-4.8-2.8-7.1-1.2l0,0l-1.5,1.1l0,0
						c-1.6-1.3-3.4-2.4-5.4-3.2l0.3-1.6c0.5-2.8-1.4-5.4-4.2-5.9c-2.8-0.5-5.4,1.4-5.9,4.2l0,0l-0.3,1.9c-2.1,0.2-4.1,0.7-6.1,1.5
						l-0.9-1.3c-1.6-2.3-4.8-2.9-7.1-1.3c-2.3,1.6-2.9,4.8-1.3,7.1c0,0,0,0.1,0.1,0.1l1.1,1.5l0,0c-1.3,1.6-2.4,3.4-3.2,5.4
						l-1.6-0.3c-2.8-0.5-5.4,1.4-5.9,4.1c-0.5,2.8,1.4,5.4,4.1,5.9c0,0,0,0,0,0l1.9,0.3c0.2,2.1,0.7,4.1,1.5,6.1l-1.3,0.9
						C324.7,174,324.2,177.2,325.8,179.5 M339,150.8c6.8-4.8,16.3-3.2,21.2,3.6c4.8,6.8,3.2,16.3-3.6,21.2s-16.3,3.2-21.2-3.6
						c0,0,0,0,0,0C330.6,165.1,332.2,155.7,339,150.8C339,150.8,339,150.8,339,150.8"/>
					<path id="Path_2976" class="st6" d="M355.6,157.7c3.1,4.3,2,10.3-2.3,13.4c-4.3,3.1-10.3,2-13.4-2.3c-3.1-4.3-2-10.3,2.3-13.4
						C346.6,152.3,352.6,153.4,355.6,157.7C355.6,157.7,355.6,157.7,355.6,157.7"/>
					<path id="Path_2977" class="st7" d="M55.4,141.5h-3.1v-3.1c0-0.7-0.5-1.2-1.2-1.2s-1.2,0.5-1.2,1.2v3.1h-3.1
						c-0.7,0-1.2,0.5-1.2,1.2c0,0,0,0,0,0c0,0.7,0.5,1.2,1.2,1.2h3.1v3.1c0,0.7,0.5,1.2,1.2,1.2c0.7,0,1.2-0.5,1.2-1.2l0,0V144h3.1
						c0.7,0,1.2-0.6,1.2-1.2C56.6,142.1,56.1,141.5,55.4,141.5"/>
					<path id="Path_2978" class="st7" d="M437.7,127.8h-3.1v-3.1c0-0.7-0.5-1.2-1.2-1.2c-0.7,0-1.2,0.5-1.2,1.2v3.1H429
						c-0.7,0-1.2,0.5-1.2,1.2c0,0,0,0,0,0c0,0.7,0.5,1.2,1.2,1.2h3.1v3.1c0,0.7,0.5,1.2,1.2,1.2c0.7,0,1.2-0.5,1.2-1.2v-3.1h3.1
						c0.7,0,1.2-0.6,1.2-1.2C438.9,128.4,438.4,127.8,437.7,127.8"/>
					<path id="Path_2979" class="st7" d="M385.4,48c0,3,2.4,5.5,5.5,5.5c3,0,5.5-2.4,5.5-5.5c0-3-2.4-5.5-5.5-5.5
						C387.8,42.5,385.4,45,385.4,48 M387.5,48c0-1.9,1.5-3.4,3.4-3.4s3.4,1.5,3.4,3.4c0,1.9-1.5,3.4-3.4,3.4
						C389,51.3,387.5,49.8,387.5,48"/>
					<path id="Path_2980" class="st7" d="M158.3,42.5c0,3,2.4,5.5,5.5,5.5c3,0,5.5-2.4,5.5-5.5c0-3-2.4-5.5-5.5-5.5
						C160.7,37.1,158.3,39.5,158.3,42.5 M160.4,42.5c0-1.9,1.5-3.4,3.4-3.4c1.9,0,3.4,1.5,3.4,3.4s-1.5,3.4-3.4,3.4
						C161.9,45.9,160.4,44.4,160.4,42.5"/>
					<path id="Path_2981" class="st7" d="M50.3,92.4c0,3,2.4,5.5,5.5,5.5c3,0,5.5-2.4,5.5-5.5c0-3-2.4-5.5-5.5-5.5
						C52.8,87,50.3,89.4,50.3,92.4 M52.4,92.4c0-1.9,1.5-3.4,3.4-3.4c1.9,0,3.4,1.5,3.4,3.4c0,1.9-1.5,3.4-3.4,3.4l0,0
						C53.9,95.8,52.4,94.3,52.4,92.4"/>
					<path id="Path_2982" class="st7" d="M385.9,78c-0.8,0-1.4,0.6-1.4,1.4c0,0,0,0,0,0c0,0.8,0.6,1.4,1.4,1.4c0,0,0,0,0,0h13.8
						c0.8,0,1.4-0.6,1.4-1.4c0,0,0,0,0,0c0-0.8-0.6-1.4-1.4-1.4H385.9z"/>
					<path id="Path_2983" class="st7" d="M405.6,78c-0.8,0-1.4,0.6-1.4,1.4c0,0.8,0.6,1.4,1.4,1.4c0,0,0,0,0,0h2.5
						c0.8,0,1.4-0.6,1.4-1.4c0,0,0,0,0,0c0-0.8-0.6-1.4-1.4-1.4H405.6z"/>
					<path id="Path_2984" class="st7" d="M86.1,64.6c-0.8,0-1.4,0.6-1.4,1.4c0,0,0,0,0,0c0,0.8,0.6,1.4,1.4,1.4c0,0,0,0,0,0h13.8
						c0.8,0,1.4-0.6,1.4-1.4c0,0,0,0,0,0c0-0.8-0.6-1.4-1.4-1.4H86.1z"/>
					<path id="Path_2985" class="st7" d="M105.7,64.6c-0.8,0-1.4,0.6-1.4,1.4c0,0.8,0.6,1.4,1.4,1.4c0,0,0,0,0,0h2.5
						c0.8,0,1.4-0.6,1.4-1.4c0,0,0,0,0,0c0-0.8-0.6-1.4-1.4-1.4H105.7z"/>
					<path id="Path_2986" class="st7" d="M445.7,177.1c-0.7,0-1.3,0.6-1.3,1.4c0,0.7,0.6,1.3,1.3,1.4c0,0,0,0,0,0h13.1
						c0.7,0,1.3-0.6,1.3-1.4c0,0,0,0,0,0c0-0.7-0.6-1.4-1.3-1.4H445.7z"/>
					<path id="Path_2987" class="st7" d="M469.3,177.1c-0.7,0-1.3,0.6-1.3,1.4c0,0.7,0.6,1.4,1.3,1.4c0,0,0,0,0,0h2.4
						c0.7,0,1.3-0.6,1.3-1.4c0,0,0,0,0,0c0-0.7-0.6-1.4-1.3-1.4H469.3z"/>
					<path id="Path_2988" class="st8" d="M447.4,365.1H48.6c-2.2,0-4-1.8-4-4v-0.9c0-2.2,1.8-4,4-4h398.8c2.2,0,4,1.8,4,4v0.9
						C451.4,363.3,449.6,365.1,447.4,365.1"/>
					<path id="Path_2989" class="st9" d="M85.1,351.2c13.4-11.7,14.6-30.9,12.1-47.7c-0.4-2.8-0.4-5.8-2-8.1
						c-1.6-2.3-4.9-3.7-7.3-2.2c-2,1.2-2.6,3.8-3.6,5.9c-1.3,2.9-3.3,5.3-5.9,7c-1.7,1.1-3.8,1.9-5.7,1.2c-2.6-1.1-3.2-4.4-3.5-7.2
						c-0.5-5.2-1.1-10.5-1.6-15.7c-0.1-2.8-0.7-5.6-1.8-8.2c-1.2-2.6-3.4-4.8-6.1-5.3c-2.7-0.5-5.9,1.4-6.1,4.3
						c0,1.2,0.1,2.3,0.3,3.5c0.1,1.2-0.3,2.5-1.4,3c-1.1,0.4-2.3-0.2-3.2-0.9c-3.2-2.5-5.6-5.9-7.8-9.4s-4.4-6.9-7.4-9.7
						c-3-2.8-6.9-4.8-10.9-4.6s-8,3.2-8.6,7.2c-0.6,4.1,2.2,7.8,5,10.7c4.2,4.3,9.1,8,14.4,11c1,0.4,1.9,1.2,2.4,2.1
						c0.8,1.8-0.8,3.9-2.5,4.7c-2,0.9-4.3,1-6.5,1.5c-2.2,0.5-4.4,1.7-5,3.9c-0.8,3,1.9,5.7,4.5,7.4c5.2,3.4,10.9,5.9,16.9,7.4
						c2.1,0.5,4.4,1,6.2,2.2c1.8,1.3,3.1,3.7,2.3,5.8c-0.8,2.1-3.3,3-5.5,2.8c-2.2-0.2-4.3-1.1-6.4-1.7c-4-1-9-0.2-11.1,3.4
						c-1.3,2.5-1.3,5.4-0.1,7.9c1.2,2.5,2.9,4.7,5,6.5c6.9,6.7,15.5,11.4,24.8,13.6C68.2,355.5,76.6,355.4,85.1,351.2"/>
					<path id="Path_2990" class="st6" d="M86.7,363.6c-1.6-7.7-4-15.3-7.1-22.6c-3.8-8.9-8.1-17.6-13-25.9l-3.7-6.6
						c-1.2-2.2-2.5-4.3-3.8-6.4c-2.6-3.9-5.3-7.7-8.3-11.2c-2.8-3.4-5.6-6.6-8.2-9.6c-2.6-2.9-5.2-5.6-7.5-8
						c-3.8-3.7-7.8-7.2-12.1-10.3c-1.5-1.1-2.7-1.9-3.6-2.4l-0.9-0.6c-0.1-0.1-0.2-0.1-0.3-0.2c0.1,0.1,0.2,0.2,0.3,0.2l0.9,0.6
						c0.8,0.6,2,1.4,3.5,2.5c4.2,3.2,8.3,6.6,12,10.4c2.4,2.4,4.9,5.1,7.5,8c2.6,2.9,5.4,6.1,8.2,9.6c2.9,3.6,5.7,7.3,8.2,11.2
						c1.3,2,2.5,4.2,3.8,6.3l3.7,6.6c4.8,8.4,9.1,17,13,25.9c3.1,7.3,5.5,14.8,7.2,22.5"/>
					<path id="Path_2991" class="st6" d="M58.9,302.1c0.1-0.4,0.1-0.8,0.1-1.2c0.1-0.8,0.1-1.9,0.2-3.4c0.1-2.8,0.1-6.8,0-11.1
						s0-8.2,0.1-11.1c0.1-1.4,0.1-2.6,0.2-3.3c0.1-0.4,0.1-0.8,0-1.2c-0.1,0.4-0.2,0.8-0.2,1.2c-0.1,0.8-0.2,1.9-0.3,3.3
						c-0.2,2.8-0.3,6.8-0.3,11.1c0,4.3,0.1,8.1,0.1,11.1c0,1.3,0,2.5,0,3.4C58.8,301.3,58.9,301.7,58.9,302.1"/>
					<path id="Path_2992" class="st6" d="M22.1,299.4c0.5,0,1,0.1,1.5,0c0.9,0,2.3-0.1,4,0c3.3,0,8,0.1,13,0.5c5.1,0.4,9.7,1,13,1.5
						c1.7,0.2,3,0.5,3.9,0.6c0.5,0.1,1,0.2,1.4,0.2c-0.5-0.2-0.9-0.3-1.4-0.4c-0.9-0.2-2.2-0.5-3.9-0.8c-3.3-0.6-7.9-1.2-13-1.6
						c-4.4-0.3-8.7-0.5-13.1-0.4c-1.7,0-3,0.1-4,0.2C23.1,299.2,22.6,299.2,22.1,299.4"/>
					<path id="Path_2993" class="st6" d="M79,340.4c0.1-0.1,0.2-0.3,0.2-0.5c0.1-0.4,0.3-0.8,0.5-1.4c0.4-1.2,0.9-2.9,1.6-5.1
						c1.3-4.3,2.9-10.3,4.5-17c1.7-6.7,3.2-12.7,4.4-17c0.6-2.1,1.1-3.8,1.4-5.1c0.2-0.6,0.3-1,0.4-1.4c0.1-0.2,0.1-0.3,0.1-0.5
						c-0.1,0.1-0.2,0.3-0.2,0.5c-0.1,0.4-0.3,0.8-0.5,1.4c-0.4,1.2-0.9,2.9-1.6,5.1c-1.3,4.3-2.9,10.3-4.5,17
						c-1.7,6.7-3.2,12.7-4.4,17c-0.6,2.1-1.1,3.8-1.4,5.1c-0.2,0.6-0.3,1-0.4,1.4C79.1,340.1,79.1,340.3,79,340.4"/>
					<path id="Path_2994" class="st6" d="M29.4,330.3c0.2,0.1,0.3,0.1,0.5,0.1l1.4,0.3c1.3,0.3,3.1,0.6,5.3,1.1
						c4.5,0.9,10.7,2.3,17.5,3.8s13,2.8,17.5,3.6c2.3,0.4,4.1,0.7,5.3,0.9l1.5,0.2c0.2,0,0.3,0,0.5,0c-0.2-0.1-0.3-0.1-0.5-0.1
						l-1.4-0.3c-1.3-0.3-3.1-0.6-5.3-1.1c-4.5-0.9-10.7-2.3-17.5-3.8s-13-2.8-17.5-3.6c-2.3-0.4-4.1-0.7-5.3-0.9l-1.5-0.2
						C29.8,330.3,29.6,330.3,29.4,330.3"/>
					<rect id="Rectangle_1939" x="86.2" y="165.9" class="st10" width="64.6" height="197.7"/>
					<rect id="Rectangle_1940" x="150.6" y="165.9" class="st11" width="51" height="197.7"/>
					<rect id="Rectangle_1941" x="89.7" y="197.5" class="st6" width="54.8" height="15.4"/>
					<rect id="Rectangle_1942" x="91.2" y="199.4" class="st10" width="3.1" height="11.8"/>
					<path id="Path_2995" class="st11" d="M97.9,201.9c0,0.5-0.4,1-1,1s-1-0.4-1-1c0-0.5,0.4-1,1-1S97.9,201.4,97.9,201.9
						L97.9,201.9"/>
					<path id="Path_2996" class="st11" d="M97.9,206.1c0,0.5-0.4,1-1,1s-1-0.4-1-1s0.4-1,1-1S97.9,205.5,97.9,206.1L97.9,206.1"/>
					<rect id="Rectangle_1943" x="101.8" y="200.9" class="st10" width="3" height="9.1"/>
					<rect id="Rectangle_1944" x="106.1" y="200.9" class="st10" width="3" height="9.1"/>
					<rect id="Rectangle_1945" x="110.5" y="200.9" class="st10" width="3" height="9.1"/>
					<rect id="Rectangle_1946" x="114.8" y="200.9" class="st10" width="3" height="9.1"/>
					<rect id="Rectangle_1947" x="119.2" y="200.9" class="st10" width="3" height="9.1"/>
					<rect id="Rectangle_1948" x="123.5" y="200.9" class="st10" width="3" height="9.1"/>
					<rect id="Rectangle_1949" x="127.9" y="200.9" class="st10" width="3" height="9.1"/>
					<rect id="Rectangle_1950" x="132.2" y="200.9" class="st10" width="3" height="9.1"/>
					<rect id="Rectangle_1951" x="136.6" y="200.9" class="st10" width="3" height="9.1"/>
					<rect id="Rectangle_1952" x="140.9" y="200.9" class="st10" width="3" height="9.1"/>
					<rect id="Rectangle_1953" x="89.7" y="222.2" class="st6" width="54.8" height="15.4"/>
					<rect id="Rectangle_1954" x="91.2" y="224.1" class="st10" width="3.1" height="11.8"/>
					<path id="Path_2997" class="st11" d="M97.9,226.6c0,0.5-0.4,1-1,1c-0.5,0-1-0.4-1-1s0.4-1,1-1c0,0,0,0,0,0
						C97.4,225.6,97.9,226.1,97.9,226.6L97.9,226.6"/>
					<path id="Path_2998" class="st11" d="M97.9,230.8c0,0.5-0.4,1-1,1s-1-0.4-1-1s0.4-1,1-1S97.9,230.2,97.9,230.8L97.9,230.8"/>
					<rect id="Rectangle_1955" x="101.8" y="225.6" class="st10" width="3" height="9.1"/>
					<rect id="Rectangle_1956" x="106.1" y="225.6" class="st10" width="3" height="9.1"/>
					<rect id="Rectangle_1957" x="110.5" y="225.6" class="st10" width="3" height="9.1"/>
					<rect id="Rectangle_1958" x="114.8" y="225.6" class="st10" width="3" height="9.1"/>
					<rect id="Rectangle_1959" x="119.2" y="225.6" class="st10" width="3" height="9.1"/>
					<rect id="Rectangle_1960" x="123.5" y="225.6" class="st10" width="3" height="9.1"/>
					<rect id="Rectangle_1961" x="127.9" y="225.6" class="st10" width="3" height="9.1"/>
					<rect id="Rectangle_1962" x="132.2" y="225.6" class="st10" width="3" height="9.1"/>
					<rect id="Rectangle_1963" x="136.6" y="225.6" class="st10" width="3" height="9.1"/>
					<rect id="Rectangle_1964" x="140.9" y="225.6" class="st10" width="3" height="9.1"/>
					<rect id="Rectangle_1965" x="89.7" y="246.9" class="st6" width="54.8" height="15.4"/>
					<rect id="Rectangle_1966" x="91.2" y="248.8" class="st10" width="3.1" height="11.8"/>
					<path id="Path_2999" class="st11" d="M97.9,251.3c0,0.5-0.4,1-1,1s-1-0.4-1-1s0.4-1,1-1S97.9,250.8,97.9,251.3L97.9,251.3"/>
					<path id="Path_3000" class="st11" d="M97.9,255.5c0,0.5-0.4,1-1,1s-1-0.4-1-1s0.4-1,1-1S97.9,254.9,97.9,255.5L97.9,255.5"/>
					<rect id="Rectangle_1967" x="101.8" y="250.3" class="st10" width="3" height="9.1"/>
					<rect id="Rectangle_1968" x="106.1" y="250.3" class="st10" width="3" height="9.1"/>
					<rect id="Rectangle_1969" x="110.5" y="250.3" class="st10" width="3" height="9.1"/>
					<rect id="Rectangle_1970" x="114.8" y="250.3" class="st10" width="3" height="9.1"/>
					<rect id="Rectangle_1971" x="119.2" y="250.3" class="st10" width="3" height="9.1"/>
					<rect id="Rectangle_1972" x="123.5" y="250.3" class="st10" width="3" height="9.1"/>
					<rect id="Rectangle_1973" x="127.9" y="250.3" class="st10" width="3" height="9.1"/>
					<rect id="Rectangle_1974" x="132.2" y="250.3" class="st10" width="3" height="9.1"/>
					<rect id="Rectangle_1975" x="136.6" y="250.3" class="st10" width="3" height="9.1"/>
					<rect id="Rectangle_1976" x="140.9" y="250.3" class="st10" width="3" height="9.1"/>
					<rect id="Rectangle_1977" x="89.7" y="271.6" class="st6" width="54.8" height="15.4"/>
					<rect id="Rectangle_1978" x="91.2" y="273.5" class="st10" width="3.1" height="11.8"/>
					<path id="Path_3001" class="st11" d="M97.9,276c0,0.5-0.4,1-1,1s-1-0.4-1-1c0-0.5,0.4-1,1-1S97.9,275.5,97.9,276L97.9,276"/>
					<path id="Path_3002" class="st11" d="M97.9,280.2c0,0.5-0.4,1-1,1c-0.5,0-1-0.4-1-1c0-0.5,0.4-1,1-1c0,0,0,0,0,0
						C97.4,279.2,97.9,279.6,97.9,280.2L97.9,280.2"/>
					<rect id="Rectangle_1979" x="101.8" y="275" class="st10" width="3" height="9.1"/>
					<rect id="Rectangle_1980" x="106.1" y="275" class="st10" width="3" height="9.1"/>
					<rect id="Rectangle_1981" x="110.5" y="275" class="st10" width="3" height="9.1"/>
					<rect id="Rectangle_1982" x="114.8" y="275" class="st10" width="3" height="9.1"/>
					<rect id="Rectangle_1983" x="119.2" y="275" class="st10" width="3" height="9.1"/>
					<rect id="Rectangle_1984" x="123.5" y="275" class="st10" width="3" height="9.1"/>
					<rect id="Rectangle_1985" x="127.9" y="275" class="st10" width="3" height="9.1"/>
					<rect id="Rectangle_1986" x="132.2" y="275" class="st10" width="3" height="9.1"/>
					<rect id="Rectangle_1987" x="136.6" y="275" class="st10" width="3" height="9.1"/>
					<rect id="Rectangle_1988" x="140.9" y="275" class="st10" width="3" height="9.1"/>
					<rect id="Rectangle_1989" x="89.7" y="296.3" class="st6" width="54.8" height="15.4"/>
					<rect id="Rectangle_1990" x="91.2" y="298.2" class="st10" width="3.1" height="11.8"/>
					<path id="Path_3003" class="st11" d="M97.9,300.7c0,0.5-0.4,1-1,1s-1-0.4-1-1s0.4-1,1-1S97.9,300.1,97.9,300.7L97.9,300.7"/>
					<path id="Path_3004" class="st11" d="M97.9,304.9c0,0.5-0.4,1-1,1s-1-0.4-1-1s0.4-1,1-1S97.9,304.3,97.9,304.9L97.9,304.9"/>
					<rect id="Rectangle_1991" x="101.8" y="299.7" class="st10" width="3" height="9.1"/>
					<rect id="Rectangle_1992" x="106.1" y="299.7" class="st10" width="3" height="9.1"/>
					<rect id="Rectangle_1993" x="110.5" y="299.7" class="st10" width="3" height="9.1"/>
					<rect id="Rectangle_1994" x="114.8" y="299.7" class="st10" width="3" height="9.1"/>
					<rect id="Rectangle_1995" x="119.2" y="299.7" class="st10" width="3" height="9.1"/>
					<rect id="Rectangle_1996" x="123.5" y="299.7" class="st10" width="3" height="9.1"/>
					<rect id="Rectangle_1997" x="127.9" y="299.7" class="st10" width="3" height="9.1"/>
					<rect id="Rectangle_1998" x="132.2" y="299.7" class="st10" width="3" height="9.1"/>
					<rect id="Rectangle_1999" x="136.6" y="299.7" class="st10" width="3" height="9.1"/>
					<rect id="Rectangle_2000" x="140.9" y="299.7" class="st10" width="3" height="9.1"/>
					<rect id="Rectangle_2001" x="89.7" y="321" class="st6" width="54.8" height="15.4"/>
					<rect id="Rectangle_2002" x="91.2" y="322.9" class="st10" width="3.1" height="11.8"/>
					<path id="Path_3005" class="st11" d="M97.9,325.4c0,0.5-0.4,1-1,1s-1-0.4-1-1c0-0.5,0.4-1,1-1S97.9,324.8,97.9,325.4
						L97.9,325.4"/>
					<path id="Path_3006" class="st11" d="M97.9,329.6c0,0.5-0.4,1-1,1s-1-0.4-1-1c0-0.5,0.4-1,1-1S97.9,329,97.9,329.6L97.9,329.6"
						/>
					<rect id="Rectangle_2003" x="101.8" y="324.4" class="st10" width="3" height="9.1"/>
					<rect id="Rectangle_2004" x="106.1" y="324.4" class="st10" width="3" height="9.1"/>
					<rect id="Rectangle_2005" x="110.5" y="324.4" class="st10" width="3" height="9.1"/>
					<rect id="Rectangle_2006" x="114.8" y="324.4" class="st10" width="3" height="9.1"/>
					<rect id="Rectangle_2007" x="119.2" y="324.4" class="st10" width="3" height="9.1"/>
					<rect id="Rectangle_2008" x="123.5" y="324.4" class="st10" width="3" height="9.1"/>
					<rect id="Rectangle_2009" x="127.9" y="324.4" class="st10" width="3" height="9.1"/>
					<rect id="Rectangle_2010" x="132.2" y="324.4" class="st10" width="3" height="9.1"/>
					<rect id="Rectangle_2011" x="136.6" y="324.4" class="st10" width="3" height="9.1"/>
					<rect id="Rectangle_2012" x="140.9" y="324.4" class="st10" width="3" height="9.1"/>
					<rect id="Rectangle_2013" x="89.7" y="345.7" class="st6" width="54.8" height="15.4"/>
					<rect id="Rectangle_2014" x="91.2" y="347.6" class="st10" width="3.1" height="11.8"/>
					<path id="Path_3007" class="st11" d="M97.9,350.1c0,0.5-0.4,1-1,1s-1-0.4-1-1s0.4-1,1-1S97.9,349.5,97.9,350.1L97.9,350.1"/>
					<path id="Path_3008" class="st11" d="M97.9,354.2c0,0.5-0.4,1-1,1s-1-0.4-1-1s0.4-1,1-1S97.9,353.7,97.9,354.2L97.9,354.2"/>
					<rect id="Rectangle_2015" x="101.8" y="349.1" class="st10" width="3" height="9.1"/>
					<rect id="Rectangle_2016" x="106.1" y="349.1" class="st10" width="3" height="9.1"/>
					<rect id="Rectangle_2017" x="110.5" y="349.1" class="st10" width="3" height="9.1"/>
					<rect id="Rectangle_2018" x="114.8" y="349.1" class="st10" width="3" height="9.1"/>
					<rect id="Rectangle_2019" x="119.2" y="349.1" class="st10" width="3" height="9.1"/>
					<rect id="Rectangle_2020" x="123.5" y="349.1" class="st10" width="3" height="9.1"/>
					<rect id="Rectangle_2021" x="127.9" y="349.1" class="st10" width="3" height="9.1"/>
					<rect id="Rectangle_2022" x="132.2" y="349.1" class="st10" width="3" height="9.1"/>
					<rect id="Rectangle_2023" x="136.6" y="349.1" class="st10" width="3" height="9.1"/>
					<rect id="Rectangle_2024" x="140.9" y="349.1" class="st10" width="3" height="9.1"/>
					<path id="Path_3009" class="st6" d="M123.5,197.5c0-0.2-0.1-0.3-0.1-0.5c0-0.3,0-0.8-0.1-1.4c0-0.6,0-1.3-0.1-2.2
						c0-0.9-0.2-1.9-0.4-2.8c-0.3-1.1-0.8-2.1-1.5-3.1c-0.7-1.1-1.8-1.9-3-2.4c-1.4-0.5-2.8-0.8-4.2-0.9l-4.7-0.4
						c-6.5-0.6-12.3-0.9-16.6-1c-2.1,0-3.8,0-5,0l-1.4,0c-0.2,0-0.3,0-0.5,0c0.2,0,0.3-0.1,0.5-0.1l1.4-0.1c1.2-0.1,2.9-0.1,5-0.1
						c4.3,0,10.1,0.3,16.6,0.9l4.7,0.4c1.5,0.1,3,0.4,4.4,0.9c1.3,0.5,2.3,1.4,3.1,2.6c0.7,1,1.2,2.1,1.5,3.2
						c0.2,0.9,0.3,1.9,0.3,2.9c0,0.8,0,1.6,0,2.2c0,0.6,0,1,0,1.4C123.6,197.2,123.6,197.3,123.5,197.5"/>
					<path id="Path_3010" class="st6" d="M106.9,197.5c0-0.1,0-0.3,0-0.4c0-0.3,0-0.8,0-1.3c0-0.6,0-1.2-0.1-2
						c0-0.9-0.3-1.7-0.7-2.5c-0.6-0.9-1.5-1.6-2.5-1.9c-1.1-0.4-2.4-0.6-3.6-0.4c-0.6,0.1-1.3,0.3-1.9,0.6c-0.6,0.3-1.1,0.8-1.4,1.4
						c-0.3,0.6-0.3,1.3,0,1.9c0.4,0.6,0.9,1.1,1.6,1.2c0.7,0.2,1.4-0.1,1.9-0.6c0.5-0.5,0.8-1.1,0.9-1.8c0-0.7-0.2-1.3-0.6-1.9
						c-0.4-0.5-0.9-1-1.4-1.3c-0.6-0.3-1.2-0.4-1.8-0.5c-0.6-0.1-1.2-0.2-1.8-0.2c-1.2-0.1-2.3-0.2-3.3-0.2c-2-0.1-3.6-0.1-4.7-0.1
						l-1.3,0c-0.2,0-0.3,0-0.5,0c0.1,0,0.3-0.1,0.4-0.1l1.3-0.1c1.1,0,2.7-0.1,4.7-0.1c1,0,2.1,0.1,3.3,0.2c0.6,0.1,1.2,0.1,1.8,0.2
						c0.3,0,0.6,0.1,1,0.1c0.3,0.1,0.7,0.2,1,0.3c0.6,0.3,1.2,0.8,1.6,1.4c0.5,0.6,0.7,1.3,0.6,2.1c-0.1,0.8-0.4,1.5-1,2.1
						c-0.6,0.6-1.4,0.8-2.3,0.6c-0.8-0.2-1.5-0.7-1.9-1.4c-0.4-0.7-0.4-1.6,0-2.3c0.4-0.6,0.9-1.2,1.6-1.5c0.6-0.3,1.3-0.5,2-0.7
						c1.3-0.2,2.6-0.1,3.8,0.4c1.1,0.4,2,1.1,2.6,2.1c0.4,0.8,0.6,1.7,0.7,2.7c0,0.8,0,1.5,0,2c0,0.5,0,0.9-0.1,1.3
						C107,197.2,107,197.4,106.9,197.5"/>
					<path id="Path_3011" class="st6" d="M128,197.5c-0.1-0.2-0.1-0.3-0.1-0.5c-0.1-0.3-0.2-0.8-0.3-1.5c-0.4-1.8-0.9-3.5-1.6-5.2
						c-1-2.5-2.6-4.7-4.8-6.4c-1.3-0.9-2.8-1.5-4.4-1.7c-1.7-0.2-3.4-0.3-5.1-0.3c-7.1-0.1-13.5-0.1-18.1-0.3
						c-2.3-0.1-4.2-0.2-5.5-0.3l-1.5-0.1c-0.2,0-0.3,0-0.5-0.1c0.2,0,0.3,0,0.5,0l1.5,0.1c1.3,0,3.2,0.1,5.5,0.2
						c4.6,0.1,11,0,18.1,0.2c1.7,0,3.5,0.1,5.2,0.3c1.6,0.2,3.2,0.8,4.5,1.8c1.2,0.9,2.2,2,3,3.2c0.7,1.1,1.3,2.2,1.8,3.4
						c0.7,1.7,1.2,3.5,1.5,5.3c0.1,0.6,0.2,1.1,0.2,1.5C128,197.1,128,197.3,128,197.5"/>
					<rect id="Rectangle_2025" x="90.4" y="168.3" class="st6" width="53.3" height="7.7"/>
					<rect id="Rectangle_2026" x="102.1" y="172.2" class="st10" width="29" height="3.9"/>
					<path id="Path_3012" class="st12" d="M500,363.7c0,0.1-109.7,0.2-245,0.2c-135.3,0-245-0.1-245-0.2s109.7-0.2,245-0.2
						C390.3,363.5,500,363.6,500,363.7"/>
					<path id="Path_3013" class="st13" d="M459.8,268.5c0,0-4.4-2.9-9.6,7.6c-2.8,5.3-5.2,10.9-7.2,16.5c0,0-1.4,2.2-2.9,0.8
						c-1.5-1.4-3.6-5.5-6.2-4.7c-2.6,0.8-3.5,3.7-3,8.1c0.5,4.3,1.4,13.9,1.5,14.8c0.1,0.8-0.4,2.1-1.6,1.3c-1.2-0.8-8-8.3-11.4-4.8
						c-3.4,3.5,0.1,15.3,0.5,16.6s0.1,1.9-0.5,2.2s-2.7-2.4-4.7-4.5c-2-2.1-4.8-4.1-6.5-1.9c-1.8,2.2-2.3,11.1,6.3,25.5l4.4,6.4
						l7.8-0.5c16.6-2.1,23.4-8,24-10.7c0.6-2.7-2.7-3.6-5.5-4c-2.9-0.3-6.3-0.3-6.4-1c-0.1-0.7,0.2-1.2,1.4-1.8
						c1.2-0.5,12.7-5.1,13.4-9.8c0.7-4.8-9.5-5.6-10.8-6s-0.7-1.6,0-2.1s8.8-5.7,12.5-7.9c3.8-2.2,5.6-4.7,4.6-7.3
						c-1-2.5-5.4-1.6-7.5-2c-2.1-0.3-1.2-2.8-1.2-2.8c3.2-5.1,6.1-10.4,8.6-15.8C464.8,270.2,459.7,268.5,459.8,268.5"/>
					<path id="Path_3014" class="st12" d="M455.1,277.9c0,0,0,0.1-0.1,0.2l-0.3,0.7c-0.3,0.6-0.7,1.4-1.2,2.5
						c-1,2.2-2.5,5.3-4.4,9.2c-3.7,7.8-9,18.4-14.8,30.2c-5.8,11.8-11.1,22.4-14.9,30.2l-4.5,9.2c-0.5,1.1-0.9,1.9-1.2,2.5
						c-0.1,0.3-0.2,0.5-0.3,0.6s-0.1,0.2-0.1,0.2s0-0.1,0.1-0.2c0.1-0.1,0.2-0.4,0.3-0.7c0.3-0.6,0.7-1.4,1.2-2.5
						c1-2.2,2.5-5.3,4.4-9.2c3.7-7.8,9-18.4,14.8-30.2c5.8-11.8,11.1-22.4,14.9-30.2c1.9-3.9,3.4-7,4.5-9.2c0.5-1.1,0.9-1.9,1.2-2.5
						l0.3-0.6C455,278,455.1,277.9,455.1,277.9"/>
					<path id="Path_3015" class="st12" d="M436.6,294.6c0.1,0.2,0.2,0.3,0.2,0.5c0.1,0.3,0.3,0.8,0.5,1.5c0.4,1.2,0.8,3,1.3,4.9
						c0.5,1.9,0.9,3.6,1.2,4.9l0.4,1.5c0.1,0.2,0.1,0.4,0.1,0.6c-0.1-0.2-0.2-0.3-0.2-0.5c-0.1-0.3-0.3-0.8-0.4-1.5
						c-0.4-1.2-0.8-3-1.3-4.9c-0.5-1.9-0.9-3.6-1.2-4.9c-0.1-0.6-0.3-1.1-0.4-1.5C436.6,294.9,436.6,294.7,436.6,294.6"/>
					<path id="Path_3016" class="st12" d="M440.9,308.5c0-0.1,3.5-1.2,7.9-2.5c4.4-1.3,7.9-2.3,7.9-2.2c0,0.1-3.5,1.2-7.9,2.5
						C444.5,307.6,440.9,308.6,440.9,308.5"/>
					<path id="Path_3017" class="st12" d="M431.1,326.2c0.2,0,0.4,0,0.6,0l1.6,0c1.3,0,3.1,0,5.2-0.1c2-0.1,3.8-0.2,5.1-0.3l1.6-0.1
						c0.2,0,0.4,0,0.6,0c-0.2,0.1-0.4,0.1-0.6,0.1c-0.4,0.1-0.9,0.1-1.6,0.2c-1.3,0.2-3.1,0.3-5.1,0.4c-2,0.1-3.8,0.1-5.2,0
						c-0.7,0-1.2,0-1.6-0.1C431.5,326.2,431.3,326.2,431.1,326.2"/>
					<path id="Path_3018" class="st12" d="M424.4,314.4c0.1,0.1,0.2,0.3,0.3,0.4c0.2,0.3,0.4,0.7,0.8,1.2c0.6,1,1.5,2.5,2.4,4.1
						c0.9,1.6,1.8,3.1,2.4,4.1c0.3,0.5,0.5,1,0.7,1.3c0.1,0,0.3,0,0.3,0.2c0,0.1,0,0.3-0.2,0.3s-0.3,0-0.3-0.2c0-0.1,0-0.2,0.1-0.3
						c-0.2-0.3-0.4-0.7-0.8-1.2c-0.6-1-1.5-2.5-2.4-4.1c-0.9-1.6-1.8-3.1-2.4-4.1c-0.3-0.5-0.5-1-0.7-1.3
						C424.6,314.8,424.5,314.6,424.4,314.4"/>
					<path id="Path_3019" class="st12" d="M413.8,328.9c0.1,0.2,0.3,0.4,0.4,0.6l1,1.6c0.8,1.3,1.9,3.2,3.2,5.2s2.3,3.9,3.1,5.3
						l0.9,1.6c0.1,0.2,0.2,0.4,0.3,0.6c-0.1-0.2-0.3-0.4-0.4-0.6l-1-1.6c-0.8-1.3-1.9-3.2-3.2-5.2s-2.3-3.9-3.1-5.3l-0.9-1.6
						C414,329.3,413.9,329.1,413.8,328.9"/>
					<path id="Path_3020" class="st12" d="M422.6,343.3c0.2,0,0.5-0.1,0.7-0.1l2-0.1c1.7-0.1,4-0.2,6.5-0.4c2.5-0.2,4.8-0.4,6.5-0.6
						l2-0.2c0.2,0,0.5-0.1,0.7,0c-0.2,0.1-0.5,0.1-0.7,0.1c-0.5,0.1-1.1,0.2-2,0.3c-1.7,0.2-4,0.5-6.5,0.7c-2.6,0.2-4.9,0.3-6.5,0.3
						c-0.8,0-1.5,0-2,0C423.1,343.4,422.8,343.4,422.6,343.3"/>
					<path id="Path_3021" class="st13" d="M82.8,342.7c-2.4-1.2-5.2-1.5-7.8-1c-1.4,0.1-2.8,0.7-3.9,1.7c-1,1.1-1.2,2.9-0.1,3.9
						c0.7,0.5,1.6,0.7,2.4,0.6c2.1,0,4.4-0.4,6,0.9c0.9,0.7,1.6,1.9,2.7,2.3c1.2,0.3,2.4-0.2,2.9-1.3c0.5-1,0.7-2.2,0.4-3.4
						C85.2,344.8,84.2,343.5,82.8,342.7"/>
					<g id="Group_2057" class="st14">
						<g id="Group_2056">
							<g>
								<defs>
									<rect id="SVGID_00000007395914512611035270000006696561978689445808_" x="70.2" y="341.5" width="15.3" height="9.7"/>
								</defs>
								<clipPath id="SVGID_00000059299657642980101580000017126887039795512968_">
									<use xlink:href="#SVGID_00000007395914512611035270000006696561978689445808_"  style="overflow:visible;"/>
								</clipPath>
								<g id="Group_2055" style="clip-path:url(#SVGID_00000059299657642980101580000017126887039795512968_);">
									<path id="Path_3022" d="M82.8,342.7c-2.4-1.2-5.2-1.5-7.8-1c-1.4,0.1-2.8,0.7-3.9,1.7c-1,1.1-1.2,2.9-0.1,3.9
										c0.7,0.5,1.6,0.7,2.4,0.6c2.1,0,4.4-0.4,6,0.9c0.9,0.7,1.6,1.9,2.7,2.3c1.2,0.3,2.4-0.2,2.9-1.3c0.5-1,0.7-2.2,0.4-3.4
										C85.2,344.8,84.2,343.5,82.8,342.7"/>
								</g>
							</g>
						</g>
					</g>
					<path id="Path_3023" class="st13" d="M88.3,332.2c-1.5,2.1-4.3,1.4-5.6,0.1s-1.8-3.1-2.3-4.9c-1.1-4-2.3-8.2-1.4-12.3
						c0.2-1.2,0.8-2.4,1.6-3.3c0.9-0.9,2.1-1.4,3.4-1.1c1.4,0.4,2.3,1.8,2.9,3.1c1.9,3.9,2.8,8.2,2.8,12.6
						C89.8,328.4,89.3,330.5,88.3,332.2"/>
					<g id="Group_2060" class="st14">
						<g id="Group_2059">
							<g>
								<defs>
									<rect id="SVGID_00000036220581910317206290000009212461261633128604_" x="78.7" y="310.6" width="11" height="22.9"/>
								</defs>
								<clipPath id="SVGID_00000163031985626122579040000017740832055695337406_">
									<use xlink:href="#SVGID_00000036220581910317206290000009212461261633128604_"  style="overflow:visible;"/>
								</clipPath>
								<g id="Group_2058" style="clip-path:url(#SVGID_00000163031985626122579040000017740832055695337406_);">
									<path id="Path_3024" class="st17" d="M88.3,332.2c-1.5,2.1-4.3,1.4-5.6,0.1s-1.8-3.1-2.3-4.9c-1.1-4-2.3-8.2-1.4-12.3
										c0.2-1.2,0.8-2.4,1.6-3.3c0.9-0.9,2.1-1.4,3.4-1.1c1.4,0.4,2.3,1.8,2.9,3.1c1.9,3.9,2.8,8.2,2.8,12.6
										C89.8,328.4,89.3,330.5,88.3,332.2"/>
								</g>
							</g>
						</g>
					</g>
					<path id="Path_3025" class="st13" d="M92.3,335.2c-1.5-2-1.9-4.6-1.1-7c0.8-2.3,2.3-4.4,4.2-6c2.2-1.9,4.7-3.4,7.4-4.3
						c1.1-0.4,2.2-0.6,3.3-0.5c1.2,0.1,2.2,0.7,2.8,1.7c0.8,1.5,0,3.3-0.8,4.7c-1.4,2.6-3.1,5-4.9,7.4c-1.5,1.9-3.1,3.7-5.4,4.5
						c-2.2,0.8-4.5,0.7-5.7-0.8"/>
					<path id="Path_3026" class="st12" d="M88.2,363.6c-0.1-0.3-0.1-0.6-0.1-0.9c-0.1-0.7-0.1-1.6-0.2-2.6c-0.1-1.3-0.3-2.5-0.6-3.8
						c-0.3-1.5-0.8-3-1.3-4.5c-0.6-1.5-1.3-2.8-2.3-4.1c-0.8-1-1.7-1.8-2.9-2.4c-0.8-0.4-1.6-0.6-2.4-0.8c-0.3,0-0.6-0.1-0.9-0.1
						c0.3,0,0.6,0,1,0c0.9,0.1,1.7,0.3,2.5,0.7c1.2,0.6,2.2,1.4,3,2.4c1,1.3,1.8,2.7,2.3,4.1c0.6,1.5,1,3,1.3,4.5
						c0.2,1.3,0.4,2.5,0.5,3.8c0.1,1.1,0.1,2,0.1,2.6C88.2,363,88.2,363.3,88.2,363.6"/>
					<path id="Path_3027" class="st12" d="M88,361.6c0-0.1,0-0.3,0-0.4c0-0.3,0-0.7,0-1.3c0-1.1,0-2.7,0-4.6
						c-0.1-3.9-0.4-9.3-1-15.2c-0.6-5.9-1.4-11.2-2.2-15c-0.2-1-0.4-1.8-0.5-2.6c-0.2-0.8-0.3-1.4-0.4-1.9c-0.1-0.5-0.2-0.9-0.3-1.2
						c0-0.1-0.1-0.3-0.1-0.4c0.1,0.1,0.1,0.3,0.1,0.4c0.1,0.3,0.2,0.7,0.4,1.2c0.2,0.5,0.3,1.2,0.5,1.9c0.2,0.8,0.4,1.6,0.6,2.6
						c1,5,1.8,10,2.3,15.1c0.6,5.9,0.9,11.3,0.9,15.2c0,2,0,3.5-0.1,4.6c0,0.5-0.1,0.9-0.1,1.3C88.1,361.3,88,361.5,88,361.6"/>
					<path id="Path_3028" class="st12" d="M88.1,351.2c0-0.4,0-0.9,0-1.3c0.1-0.8,0.2-2.1,0.4-3.5c0.3-1.7,0.7-3.5,1.2-5.2
						c0.6-2.1,1.3-4.1,2.2-6.1c1.5-3.6,3.7-7,6.4-9.8c0.5-0.5,1-1,1.5-1.4c0.2-0.2,0.4-0.4,0.6-0.5l0.6-0.4c0.4-0.3,0.7-0.5,1.1-0.7
						c-1.3,1-2.5,2.1-3.6,3.2c-2.6,2.9-4.7,6.2-6.3,9.8c-0.9,2-1.6,4-2.2,6c-0.6,1.9-1,3.6-1.3,5.1c-0.3,1.5-0.4,2.7-0.5,3.5
						C88.2,350.4,88.1,350.8,88.1,351.2"/>
					<rect id="Rectangle_2029" x="320" y="264.2" class="st12" width="85.8" height="94.2"/>
					<rect id="Rectangle_2030" x="307.4" y="283" class="st18" width="93.8" height="23.3"/>
					<rect id="Rectangle_2031" x="311.6" y="287.8" class="st12" width="18.5" height="2.8"/>
					<rect id="Rectangle_2032" x="311.6" y="292.7" class="st12" width="18.5" height="2.8"/>
					<rect id="Rectangle_2033" x="311.6" y="297.7" class="st12" width="18.5" height="2.8"/>
					<path id="Path_3029" class="st12" d="M337.4,289.5c0,0.6-0.5,1.1-1.1,1.1s-1.1-0.5-1.1-1.1s0.5-1.1,1.1-1.1
						S337.4,288.9,337.4,289.5L337.4,289.5"/>
					<path id="Path_3030" class="st12" d="M342.1,289.5c0,0.6-0.5,1.1-1.1,1.1c-0.6,0-1.1-0.5-1.1-1.1s0.5-1.1,1.1-1.1
						C341.6,288.4,342.1,288.9,342.1,289.5L342.1,289.5"/>
					<path id="Path_3031" class="st12" d="M346.7,289.5c0,0.6-0.5,1.1-1.1,1.1s-1.1-0.5-1.1-1.1s0.5-1.1,1.1-1.1
						S346.7,288.9,346.7,289.5L346.7,289.5"/>
					<path id="Path_3032" class="st12" d="M351.4,289.5c0,0.6-0.5,1.1-1.1,1.1s-1.1-0.5-1.1-1.1s0.5-1.1,1.1-1.1
						S351.4,288.9,351.4,289.5L351.4,289.5"/>
					<path id="Path_3033" class="st12" d="M387.6,289.5c0,0.6-0.5,1.1-1.1,1.1c-0.6,0-1.1-0.5-1.1-1.1s0.5-1.1,1.1-1.1
						C387.2,288.4,387.6,288.9,387.6,289.5L387.6,289.5"/>
					<path id="Path_3034" class="st12" d="M392.4,289.5c0,0.6-0.5,1.1-1.1,1.1s-1.1-0.5-1.1-1.1s0.5-1.1,1.1-1.1
						S392.4,288.9,392.4,289.5L392.4,289.5"/>
					<path id="Path_3035" class="st12" d="M356.1,289.5c0,0.6-0.5,1.1-1.1,1.1s-1.1-0.5-1.1-1.1s0.5-1.1,1.1-1.1
						S356.1,288.9,356.1,289.5L356.1,289.5"/>
					<path id="Path_3036" class="st12" d="M379.1,289.5c0,0.6-0.5,1.1-1.1,1.1s-1.1-0.5-1.1-1.1s0.5-1.1,1.1-1.1
						S379.1,288.9,379.1,289.5L379.1,289.5"/>
					<path id="Path_3037" class="st10" d="M360.8,289.5c0,0.6-0.5,1.1-1.1,1.1s-1.1-0.5-1.1-1.1s0.5-1.1,1.1-1.1
						S360.8,288.9,360.8,289.5L360.8,289.5"/>
					<path id="Path_3038" class="st10" d="M365.4,289.5c0,0.6-0.5,1.1-1.1,1.1s-1.1-0.5-1.1-1.1s0.5-1.1,1.1-1.1
						S365.4,288.9,365.4,289.5L365.4,289.5"/>
					<path id="Path_3039" class="st10" d="M374.9,289.5c0,0.6-0.5,1.1-1.1,1.1s-1.1-0.5-1.1-1.1s0.5-1.1,1.1-1.1
						S374.9,288.9,374.9,289.5L374.9,289.5"/>
					<path id="Path_3040" class="st10" d="M396.3,289.5c0,0.6-0.5,1.1-1.1,1.1s-1.1-0.5-1.1-1.1s0.5-1.1,1.1-1.1
						S396.3,288.9,396.3,289.5L396.3,289.5"/>
					<path id="Path_3041" class="st13" d="M370.1,289.5c0,0.6-0.5,1.1-1.1,1.1s-1.1-0.5-1.1-1.1s0.5-1.1,1.1-1.1
						S370.1,288.9,370.1,289.5L370.1,289.5"/>
					<path id="Path_3042" class="st13" d="M383.5,289.5c0,0.6-0.5,1.1-1.1,1.1s-1.1-0.5-1.1-1.1s0.5-1.1,1.1-1.1
						S383.5,288.9,383.5,289.5L383.5,289.5"/>
					<path id="Path_3043" class="st12" d="M394.2,294.6c0-0.6,0.5-1.1,1.1-1.1s1.1,0.5,1.1,1.1s-0.5,1.1-1.1,1.1
						S394.2,295.2,394.2,294.6L394.2,294.6"/>
					<path id="Path_3044" class="st12" d="M389.5,294.6c0-0.6,0.5-1.1,1.1-1.1s1.1,0.5,1.1,1.1s-0.5,1.1-1.1,1.1c0,0,0,0,0,0
						C390,295.7,389.5,295.2,389.5,294.6C389.5,294.6,389.5,294.6,389.5,294.6"/>
					<path id="Path_3045" class="st12" d="M384.8,294.6c0-0.6,0.5-1.1,1.1-1.1s1.1,0.5,1.1,1.1s-0.5,1.1-1.1,1.1
						S384.8,295.2,384.8,294.6L384.8,294.6"/>
					<path id="Path_3046" class="st12" d="M380.1,294.6c0-0.6,0.5-1.1,1.1-1.1s1.1,0.5,1.1,1.1s-0.5,1.1-1.1,1.1
						S380.1,295.2,380.1,294.6L380.1,294.6"/>
					<path id="Path_3047" class="st12" d="M343.9,294.6c0-0.6,0.5-1.1,1.1-1.1s1.1,0.5,1.1,1.1s-0.5,1.1-1.1,1.1
						S343.9,295.2,343.9,294.6L343.9,294.6"/>
					<path id="Path_3048" class="st12" d="M339.1,294.6c0-0.6,0.5-1.1,1.1-1.1s1.1,0.5,1.1,1.1s-0.5,1.1-1.1,1.1
						S339.1,295.2,339.1,294.6L339.1,294.6"/>
					<path id="Path_3049" class="st12" d="M375.5,294.6c0-0.6,0.5-1.1,1.1-1.1s1.1,0.5,1.1,1.1s-0.5,1.1-1.1,1.1
						S375.5,295.2,375.5,294.6L375.5,294.6"/>
					<path id="Path_3050" class="st12" d="M352.5,294.6c0-0.6,0.5-1.1,1.1-1.1s1.1,0.5,1.1,1.1s-0.5,1.1-1.1,1.1
						S352.5,295.2,352.5,294.6L352.5,294.6"/>
					<path id="Path_3051" class="st10" d="M370.8,294.6c0-0.6,0.5-1.1,1.1-1.1s1.1,0.5,1.1,1.1s-0.5,1.1-1.1,1.1
						S370.8,295.2,370.8,294.6L370.8,294.6"/>
					<path id="Path_3052" class="st10" d="M366.1,294.6c0-0.6,0.5-1.1,1.1-1.1s1.1,0.5,1.1,1.1s-0.5,1.1-1.1,1.1
						S366.1,295.2,366.1,294.6L366.1,294.6"/>
					<path id="Path_3053" class="st10" d="M356.6,294.6c0-0.6,0.5-1.1,1.1-1.1s1.1,0.5,1.1,1.1s-0.5,1.1-1.1,1.1
						S356.6,295.2,356.6,294.6L356.6,294.6"/>
					<path id="Path_3054" class="st10" d="M335.3,294.6c0-0.6,0.5-1.1,1.1-1.1s1.1,0.5,1.1,1.1s-0.5,1.1-1.1,1.1
						S335.3,295.2,335.3,294.6L335.3,294.6"/>
					<path id="Path_3055" class="st13" d="M361.4,294.6c0-0.6,0.5-1.1,1.1-1.1c0.6,0,1.1,0.5,1.1,1.1s-0.5,1.1-1.1,1.1
						C361.9,295.7,361.4,295.2,361.4,294.6L361.4,294.6"/>
					<path id="Path_3056" class="st13" d="M348.1,294.6c0-0.6,0.5-1.1,1.1-1.1s1.1,0.5,1.1,1.1s-0.5,1.1-1.1,1.1
						S348.1,295.2,348.1,294.6L348.1,294.6"/>
					<path id="Path_3057" class="st12" d="M337.4,299.1c0,0.6-0.5,1.1-1.1,1.1s-1.1-0.5-1.1-1.1s0.5-1.1,1.1-1.1
						S337.4,298.6,337.4,299.1L337.4,299.1"/>
					<path id="Path_3058" class="st12" d="M342.1,299.1c0,0.6-0.5,1.1-1.1,1.1c-0.6,0-1.1-0.5-1.1-1.1s0.5-1.1,1.1-1.1
						C341.6,298.1,342.1,298.6,342.1,299.1L342.1,299.1"/>
					<path id="Path_3059" class="st12" d="M346.7,299.1c0,0.6-0.5,1.1-1.1,1.1s-1.1-0.5-1.1-1.1s0.5-1.1,1.1-1.1
						S346.7,298.6,346.7,299.1L346.7,299.1"/>
					<path id="Path_3060" class="st12" d="M351.4,299.1c0,0.6-0.5,1.1-1.1,1.1s-1.1-0.5-1.1-1.1s0.5-1.1,1.1-1.1
						S351.4,298.6,351.4,299.1L351.4,299.1"/>
					<path id="Path_3061" class="st12" d="M387.6,299.1c0,0.6-0.5,1.1-1.1,1.1c-0.6,0-1.1-0.5-1.1-1.1s0.5-1.1,1.1-1.1
						C387.2,298.1,387.6,298.6,387.6,299.1L387.6,299.1"/>
					<path id="Path_3062" class="st12" d="M392.4,299.1c0,0.6-0.5,1.1-1.1,1.1s-1.1-0.5-1.1-1.1s0.5-1.1,1.1-1.1
						S392.4,298.6,392.4,299.1L392.4,299.1"/>
					<path id="Path_3063" class="st12" d="M356.1,299.1c0,0.6-0.5,1.1-1.1,1.1s-1.1-0.5-1.1-1.1s0.5-1.1,1.1-1.1
						S356.1,298.6,356.1,299.1L356.1,299.1"/>
					<path id="Path_3064" class="st12" d="M379.1,299.1c0,0.6-0.5,1.1-1.1,1.1s-1.1-0.5-1.1-1.1s0.5-1.1,1.1-1.1
						S379.1,298.6,379.1,299.1L379.1,299.1"/>
					<path id="Path_3065" class="st10" d="M360.8,299.1c0,0.6-0.5,1.1-1.1,1.1s-1.1-0.5-1.1-1.1s0.5-1.1,1.1-1.1
						S360.8,298.6,360.8,299.1L360.8,299.1"/>
					<path id="Path_3066" class="st10" d="M365.4,299.1c0,0.6-0.5,1.1-1.1,1.1s-1.1-0.5-1.1-1.1s0.5-1.1,1.1-1.1
						S365.4,298.6,365.4,299.1L365.4,299.1"/>
					<path id="Path_3067" class="st10" d="M374.9,299.1c0,0.6-0.5,1.1-1.1,1.1s-1.1-0.5-1.1-1.1s0.5-1.1,1.1-1.1
						S374.9,298.6,374.9,299.1L374.9,299.1"/>
					<path id="Path_3068" class="st10" d="M396.3,299.1c0,0.6-0.5,1.1-1.1,1.1s-1.1-0.5-1.1-1.1s0.5-1.1,1.1-1.1
						S396.3,298.6,396.3,299.1L396.3,299.1"/>
					<path id="Path_3069" class="st13" d="M370.1,299.1c0,0.6-0.5,1.1-1.1,1.1s-1.1-0.5-1.1-1.1s0.5-1.1,1.1-1.1
						S370.1,298.6,370.1,299.1L370.1,299.1"/>
					<path id="Path_3070" class="st13" d="M383.5,299.1c0,0.6-0.5,1.1-1.1,1.1s-1.1-0.5-1.1-1.1s0.5-1.1,1.1-1.1
						S383.5,298.6,383.5,299.1L383.5,299.1"/>
					<rect id="Rectangle_2034" x="307.4" y="311.7" class="st18" width="93.8" height="23.3"/>
					<path id="Path_3071" class="st12" d="M337.1,318c0,0.6-0.5,1.1-1.1,1.1s-1.1-0.5-1.1-1.1s0.5-1.1,1.1-1.1
						S337.1,317.4,337.1,318L337.1,318"/>
					<path id="Path_3072" class="st12" d="M341.8,318c0,0.6-0.5,1.1-1.1,1.1c-0.6,0-1.1-0.5-1.1-1.1s0.5-1.1,1.1-1.1
						C341.3,316.9,341.8,317.4,341.8,318L341.8,318"/>
					<path id="Path_3073" class="st12" d="M346.5,318c0,0.6-0.5,1.1-1.1,1.1s-1.1-0.5-1.1-1.1s0.5-1.1,1.1-1.1
						S346.5,317.4,346.5,318L346.5,318"/>
					<path id="Path_3074" class="st12" d="M351.2,318c0,0.6-0.5,1.1-1.1,1.1s-1.1-0.5-1.1-1.1s0.5-1.1,1.1-1.1
						S351.2,317.4,351.2,318L351.2,318"/>
					<path id="Path_3075" class="st12" d="M387.4,318c0,0.6-0.5,1.1-1.1,1.1s-1.1-0.5-1.1-1.1s0.5-1.1,1.1-1.1
						S387.4,317.4,387.4,318L387.4,318"/>
					<path id="Path_3076" class="st12" d="M392.2,318c0,0.6-0.5,1.1-1.1,1.1s-1.1-0.5-1.1-1.1s0.5-1.1,1.1-1.1
						S392.2,317.4,392.2,318L392.2,318"/>
					<path id="Path_3077" class="st12" d="M355.9,318c0,0.6-0.5,1.1-1.1,1.1s-1.1-0.5-1.1-1.1s0.5-1.1,1.1-1.1
						S355.9,317.4,355.9,318L355.9,318"/>
					<path id="Path_3078" class="st12" d="M378.8,318c0,0.6-0.5,1.1-1.1,1.1s-1.1-0.5-1.1-1.1s0.5-1.1,1.1-1.1
						S378.8,317.4,378.8,318L378.8,318"/>
					<path id="Path_3079" class="st10" d="M360.5,318c0,0.6-0.5,1.1-1.1,1.1s-1.1-0.5-1.1-1.1s0.5-1.1,1.1-1.1
						S360.5,317.4,360.5,318L360.5,318"/>
					<path id="Path_3080" class="st10" d="M365.2,318c0,0.6-0.5,1.1-1.1,1.1s-1.1-0.5-1.1-1.1s0.5-1.1,1.1-1.1
						S365.2,317.4,365.2,318L365.2,318"/>
					<path id="Path_3081" class="st10" d="M374.7,318c0,0.6-0.5,1.1-1.1,1.1s-1.1-0.5-1.1-1.1s0.5-1.1,1.1-1.1
						S374.7,317.4,374.7,318L374.7,318"/>
					<path id="Path_3082" class="st10" d="M396.1,318c0,0.6-0.5,1.1-1.1,1.1s-1.1-0.5-1.1-1.1s0.5-1.1,1.1-1.1
						S396.1,317.4,396.1,318L396.1,318"/>
					<path id="Path_3083" class="st13" d="M369.9,318c0,0.6-0.5,1.1-1.1,1.1s-1.1-0.5-1.1-1.1s0.5-1.1,1.1-1.1
						S369.9,317.4,369.9,318L369.9,318"/>
					<path id="Path_3084" class="st13" d="M383.3,318c0,0.6-0.5,1.1-1.1,1.1s-1.1-0.5-1.1-1.1s0.5-1.1,1.1-1.1
						S383.3,317.4,383.3,318L383.3,318"/>
					<path id="Path_3085" class="st12" d="M393.9,323.1c0-0.6,0.5-1.1,1.1-1.1s1.1,0.5,1.1,1.1s-0.5,1.1-1.1,1.1
						S393.9,323.7,393.9,323.1L393.9,323.1"/>
					<path id="Path_3086" class="st12" d="M389.3,323.1c0-0.6,0.5-1.1,1.1-1.1s1.1,0.5,1.1,1.1s-0.5,1.1-1.1,1.1
						S389.3,323.7,389.3,323.1L389.3,323.1"/>
					<path id="Path_3087" class="st12" d="M384.6,323.1c0-0.6,0.5-1.1,1.1-1.1s1.1,0.5,1.1,1.1s-0.5,1.1-1.1,1.1
						S384.6,323.7,384.6,323.1L384.6,323.1"/>
					<path id="Path_3088" class="st12" d="M379.9,323.1c0-0.6,0.5-1.1,1.1-1.1s1.1,0.5,1.1,1.1s-0.5,1.1-1.1,1.1
						S379.9,323.7,379.9,323.1L379.9,323.1"/>
					<path id="Path_3089" class="st12" d="M343.7,323.1c0-0.6,0.5-1.1,1.1-1.1s1.1,0.5,1.1,1.1s-0.5,1.1-1.1,1.1
						S343.7,323.7,343.7,323.1L343.7,323.1"/>
					<path id="Path_3090" class="st12" d="M338.9,323.1c0-0.6,0.5-1.1,1.1-1.1s1.1,0.5,1.1,1.1s-0.5,1.1-1.1,1.1
						S338.9,323.7,338.9,323.1L338.9,323.1"/>
					<path id="Path_3091" class="st12" d="M375.2,323.1c0-0.6,0.5-1.1,1.1-1.1s1.1,0.5,1.1,1.1s-0.5,1.1-1.1,1.1
						S375.2,323.7,375.2,323.1L375.2,323.1"/>
					<path id="Path_3092" class="st12" d="M352.3,323.1c0-0.6,0.5-1.1,1.1-1.1s1.1,0.5,1.1,1.1s-0.5,1.1-1.1,1.1
						S352.3,323.7,352.3,323.1L352.3,323.1"/>
					<path id="Path_3093" class="st10" d="M370.6,323.1c0-0.6,0.5-1.1,1.1-1.1s1.1,0.5,1.1,1.1s-0.5,1.1-1.1,1.1
						S370.6,323.7,370.6,323.1L370.6,323.1"/>
					<path id="Path_3094" class="st10" d="M365.9,323.1c0-0.6,0.5-1.1,1.1-1.1s1.1,0.5,1.1,1.1s-0.5,1.1-1.1,1.1
						S365.9,323.7,365.9,323.1L365.9,323.1"/>
					<path id="Path_3095" class="st10" d="M356.4,323.1c0-0.6,0.5-1.1,1.1-1.1s1.1,0.5,1.1,1.1s-0.5,1.1-1.1,1.1
						S356.4,323.7,356.4,323.1L356.4,323.1"/>
					<path id="Path_3096" class="st10" d="M335,323.1c0-0.6,0.5-1.1,1.1-1.1s1.1,0.5,1.1,1.1s-0.5,1.1-1.1,1.1S335,323.7,335,323.1
						L335,323.1"/>
					<path id="Path_3097" class="st13" d="M361.2,323.1c0-0.6,0.5-1.1,1.1-1.1s1.1,0.5,1.1,1.1s-0.5,1.1-1.1,1.1
						S361.2,323.7,361.2,323.1L361.2,323.1"/>
					<path id="Path_3098" class="st13" d="M347.8,323.1c0-0.6,0.5-1.1,1.1-1.1s1.1,0.5,1.1,1.1s-0.5,1.1-1.1,1.1c0,0,0,0,0,0
						C348.3,324.2,347.8,323.7,347.8,323.1C347.8,323.1,347.8,323.1,347.8,323.1"/>
					<path id="Path_3099" class="st12" d="M337.1,327.6c0,0.6-0.5,1.1-1.1,1.1s-1.1-0.5-1.1-1.1s0.5-1.1,1.1-1.1
						S337.1,327.1,337.1,327.6L337.1,327.6"/>
					<path id="Path_3100" class="st12" d="M341.8,327.6c0,0.6-0.5,1.1-1.1,1.1c-0.6,0-1.1-0.5-1.1-1.1s0.5-1.1,1.1-1.1
						C341.3,326.6,341.8,327.1,341.8,327.6L341.8,327.6"/>
					<path id="Path_3101" class="st12" d="M346.5,327.6c0,0.6-0.5,1.1-1.1,1.1s-1.1-0.5-1.1-1.1s0.5-1.1,1.1-1.1
						S346.5,327.1,346.5,327.6L346.5,327.6"/>
					<path id="Path_3102" class="st12" d="M351.2,327.6c0,0.6-0.5,1.1-1.1,1.1s-1.1-0.5-1.1-1.1s0.5-1.1,1.1-1.1
						S351.2,327.1,351.2,327.6L351.2,327.6"/>
					<path id="Path_3103" class="st12" d="M387.4,327.6c0,0.6-0.5,1.1-1.1,1.1s-1.1-0.5-1.1-1.1s0.5-1.1,1.1-1.1
						S387.4,327.1,387.4,327.6L387.4,327.6"/>
					<path id="Path_3104" class="st12" d="M392.2,327.6c0,0.6-0.5,1.1-1.1,1.1s-1.1-0.5-1.1-1.1s0.5-1.1,1.1-1.1
						S392.2,327.1,392.2,327.6L392.2,327.6"/>
					<path id="Path_3105" class="st12" d="M355.9,327.6c0,0.6-0.5,1.1-1.1,1.1s-1.1-0.5-1.1-1.1s0.5-1.1,1.1-1.1
						S355.9,327.1,355.9,327.6L355.9,327.6"/>
					<path id="Path_3106" class="st12" d="M378.8,327.6c0,0.6-0.5,1.1-1.1,1.1s-1.1-0.5-1.1-1.1s0.5-1.1,1.1-1.1
						S378.8,327.1,378.8,327.6L378.8,327.6"/>
					<path id="Path_3107" class="st10" d="M360.5,327.6c0,0.6-0.5,1.1-1.1,1.1s-1.1-0.5-1.1-1.1s0.5-1.1,1.1-1.1
						S360.5,327.1,360.5,327.6L360.5,327.6"/>
					<path id="Path_3108" class="st10" d="M365.2,327.6c0,0.6-0.5,1.1-1.1,1.1s-1.1-0.5-1.1-1.1s0.5-1.1,1.1-1.1
						S365.2,327.1,365.2,327.6L365.2,327.6"/>
					<path id="Path_3109" class="st10" d="M374.7,327.6c0,0.6-0.5,1.1-1.1,1.1s-1.1-0.5-1.1-1.1s0.5-1.1,1.1-1.1
						S374.7,327.1,374.7,327.6L374.7,327.6"/>
					<path id="Path_3110" class="st10" d="M396.1,327.6c0,0.6-0.5,1.1-1.1,1.1s-1.1-0.5-1.1-1.1s0.5-1.1,1.1-1.1
						S396.1,327.1,396.1,327.6L396.1,327.6"/>
					<path id="Path_3111" class="st13" d="M369.9,327.6c0,0.6-0.5,1.1-1.1,1.1s-1.1-0.5-1.1-1.1s0.5-1.1,1.1-1.1
						S369.9,327.1,369.9,327.6L369.9,327.6"/>
					<path id="Path_3112" class="st13" d="M383.3,327.6c0,0.6-0.5,1.1-1.1,1.1s-1.1-0.5-1.1-1.1s0.5-1.1,1.1-1.1
						S383.3,327.1,383.3,327.6L383.3,327.6"/>
					<rect id="Rectangle_2035" x="311.6" y="316.5" class="st12" width="18.5" height="2.8"/>
					<rect id="Rectangle_2036" x="311.6" y="321.4" class="st12" width="18.5" height="2.8"/>
					<rect id="Rectangle_2037" x="311.6" y="326.5" class="st12" width="18.5" height="2.8"/>
					<rect id="Rectangle_2038" x="307.4" y="340.4" class="st18" width="93.8" height="23.3"/>
					<rect id="Rectangle_2039" x="311.6" y="345.2" class="st12" width="18.5" height="2.8"/>
					<rect id="Rectangle_2040" x="311.6" y="350.1" class="st12" width="18.5" height="2.8"/>
					<rect id="Rectangle_2041" x="311.6" y="355.2" class="st12" width="18.5" height="2.8"/>
					<path id="Path_3113" class="st12" d="M336.8,346.7c0,0.6-0.5,1.1-1.1,1.1s-1.1-0.5-1.1-1.1s0.5-1.1,1.1-1.1
						S336.8,346.1,336.8,346.7L336.8,346.7"/>
					<path id="Path_3114" class="st12" d="M341.5,346.7c0,0.6-0.5,1.1-1.1,1.1s-1.1-0.5-1.1-1.1s0.5-1.1,1.1-1.1
						S341.5,346.1,341.5,346.7L341.5,346.7"/>
					<path id="Path_3115" class="st12" d="M346.2,346.7c0,0.6-0.5,1.1-1.1,1.1s-1.1-0.5-1.1-1.1s0.5-1.1,1.1-1.1
						S346.2,346.1,346.2,346.7L346.2,346.7"/>
					<path id="Path_3116" class="st12" d="M350.8,346.7c0,0.6-0.5,1.1-1.1,1.1s-1.1-0.5-1.1-1.1s0.5-1.1,1.1-1.1
						S350.8,346.1,350.8,346.7L350.8,346.7"/>
					<path id="Path_3117" class="st12" d="M387.1,346.7c0,0.6-0.5,1.1-1.1,1.1s-1.1-0.5-1.1-1.1s0.5-1.1,1.1-1.1
						S387.1,346.1,387.1,346.7L387.1,346.7"/>
					<path id="Path_3118" class="st12" d="M391.8,346.7c0,0.6-0.5,1.1-1.1,1.1s-1.1-0.5-1.1-1.1s0.5-1.1,1.1-1.1
						S391.8,346.1,391.8,346.7L391.8,346.7"/>
					<path id="Path_3119" class="st12" d="M355.5,346.7c0,0.6-0.5,1.1-1.1,1.1s-1.1-0.5-1.1-1.1s0.5-1.1,1.1-1.1
						S355.5,346.1,355.5,346.7L355.5,346.7"/>
					<path id="Path_3120" class="st12" d="M378.5,346.7c0,0.6-0.5,1.1-1.1,1.1s-1.1-0.5-1.1-1.1s0.5-1.1,1.1-1.1
						S378.5,346.1,378.5,346.7L378.5,346.7"/>
					<path id="Path_3121" class="st10" d="M360.2,346.7c0,0.6-0.5,1.1-1.1,1.1s-1.1-0.5-1.1-1.1s0.5-1.1,1.1-1.1
						S360.2,346.1,360.2,346.7L360.2,346.7"/>
					<path id="Path_3122" class="st10" d="M364.9,346.7c0,0.6-0.5,1.1-1.1,1.1c-0.6,0-1.1-0.5-1.1-1.1s0.5-1.1,1.1-1.1
						C364.4,345.7,364.9,346.1,364.9,346.7L364.9,346.7"/>
					<path id="Path_3123" class="st10" d="M374.4,346.7c0,0.6-0.5,1.1-1.1,1.1c-0.6,0-1.1-0.5-1.1-1.1s0.5-1.1,1.1-1.1
						C373.9,345.7,374.4,346.1,374.4,346.7L374.4,346.7"/>
					<path id="Path_3124" class="st10" d="M395.7,346.7c0,0.6-0.5,1.1-1.1,1.1s-1.1-0.5-1.1-1.1s0.5-1.1,1.1-1.1
						S395.7,346.1,395.7,346.7L395.7,346.7"/>
					<path id="Path_3125" class="st13" d="M369.5,346.7c0,0.6-0.5,1.1-1.1,1.1s-1.1-0.5-1.1-1.1s0.5-1.1,1.1-1.1
						S369.5,346.1,369.5,346.7L369.5,346.7"/>
					<path id="Path_3126" class="st13" d="M382.9,346.7c0,0.6-0.5,1.1-1.1,1.1s-1.1-0.5-1.1-1.1s0.5-1.1,1.1-1.1
						S382.9,346.1,382.9,346.7L382.9,346.7"/>
					<path id="Path_3127" class="st12" d="M393.6,351.8c0-0.6,0.5-1.1,1.1-1.1s1.1,0.5,1.1,1.1s-0.5,1.1-1.1,1.1
						S393.6,352.4,393.6,351.8L393.6,351.8"/>
					<path id="Path_3128" class="st12" d="M388.9,351.8c0-0.6,0.5-1.1,1.1-1.1s1.1,0.5,1.1,1.1s-0.5,1.1-1.1,1.1
						S388.9,352.4,388.9,351.8L388.9,351.8"/>
					<path id="Path_3129" class="st12" d="M384.3,351.8c0-0.6,0.5-1.1,1.1-1.1c0.6,0,1.1,0.5,1.1,1.1s-0.5,1.1-1.1,1.1
						C384.7,352.9,384.3,352.4,384.3,351.8L384.3,351.8"/>
					<path id="Path_3130" class="st12" d="M379.6,351.8c0-0.6,0.5-1.1,1.1-1.1s1.1,0.5,1.1,1.1s-0.5,1.1-1.1,1.1
						S379.6,352.4,379.6,351.8L379.6,351.8"/>
					<path id="Path_3131" class="st12" d="M343.3,351.8c0-0.6,0.5-1.1,1.1-1.1c0.6,0,1.1,0.5,1.1,1.1s-0.5,1.1-1.1,1.1
						C343.8,352.9,343.3,352.4,343.3,351.8L343.3,351.8"/>
					<path id="Path_3132" class="st12" d="M338.6,351.8c0-0.6,0.5-1.1,1.1-1.1s1.1,0.5,1.1,1.1s-0.5,1.1-1.1,1.1
						S338.6,352.4,338.6,351.8L338.6,351.8"/>
					<path id="Path_3133" class="st12" d="M374.9,351.8c0-0.6,0.5-1.1,1.1-1.1s1.1,0.5,1.1,1.1s-0.5,1.1-1.1,1.1
						S374.9,352.4,374.9,351.8L374.9,351.8"/>
					<path id="Path_3134" class="st12" d="M351.9,351.8c0-0.6,0.5-1.1,1.1-1.1s1.1,0.5,1.1,1.1s-0.5,1.1-1.1,1.1
						S351.9,352.4,351.9,351.8L351.9,351.8"/>
					<path id="Path_3135" class="st10" d="M370.2,351.8c0-0.6,0.5-1.1,1.1-1.1s1.1,0.5,1.1,1.1s-0.5,1.1-1.1,1.1
						S370.2,352.4,370.2,351.8L370.2,351.8"/>
					<path id="Path_3136" class="st10" d="M365.5,351.8c0-0.6,0.5-1.1,1.1-1.1s1.1,0.5,1.1,1.1s-0.5,1.1-1.1,1.1
						S365.5,352.4,365.5,351.8L365.5,351.8"/>
					<path id="Path_3137" class="st10" d="M356.1,351.8c0-0.6,0.5-1.1,1.1-1.1s1.1,0.5,1.1,1.1s-0.5,1.1-1.1,1.1
						S356.1,352.4,356.1,351.8L356.1,351.8"/>
					<path id="Path_3138" class="st10" d="M334.7,351.8c0-0.6,0.5-1.1,1.1-1.1s1.1,0.5,1.1,1.1s-0.5,1.1-1.1,1.1
						S334.7,352.4,334.7,351.8L334.7,351.8"/>
					<path id="Path_3139" class="st13" d="M360.9,351.8c0-0.6,0.5-1.1,1.1-1.1s1.1,0.5,1.1,1.1s-0.5,1.1-1.1,1.1
						S360.9,352.4,360.9,351.8L360.9,351.8"/>
					<path id="Path_3140" class="st13" d="M347.5,351.8c0-0.6,0.5-1.1,1.1-1.1c0.6,0,1.1,0.5,1.1,1.1s-0.5,1.1-1.1,1.1
						C348,352.9,347.5,352.4,347.5,351.8L347.5,351.8"/>
					<path id="Path_3141" class="st12" d="M336.8,356.4c0,0.6-0.5,1.1-1.1,1.1s-1.1-0.5-1.1-1.1s0.5-1.1,1.1-1.1
						S336.8,355.8,336.8,356.4L336.8,356.4"/>
					<path id="Path_3142" class="st12" d="M341.5,356.4c0,0.6-0.5,1.1-1.1,1.1s-1.1-0.5-1.1-1.1s0.5-1.1,1.1-1.1
						S341.5,355.8,341.5,356.4L341.5,356.4"/>
					<path id="Path_3143" class="st12" d="M346.2,356.4c0,0.6-0.5,1.1-1.1,1.1s-1.1-0.5-1.1-1.1s0.5-1.1,1.1-1.1
						S346.2,355.8,346.2,356.4L346.2,356.4"/>
					<path id="Path_3144" class="st12" d="M350.8,356.4c0,0.6-0.5,1.1-1.1,1.1s-1.1-0.5-1.1-1.1s0.5-1.1,1.1-1.1
						S350.8,355.8,350.8,356.4L350.8,356.4"/>
					<path id="Path_3145" class="st12" d="M387.1,356.4c0,0.6-0.5,1.1-1.1,1.1s-1.1-0.5-1.1-1.1s0.5-1.1,1.1-1.1
						S387.1,355.8,387.1,356.4L387.1,356.4"/>
					<path id="Path_3146" class="st12" d="M391.8,356.4c0,0.6-0.5,1.1-1.1,1.1s-1.1-0.5-1.1-1.1s0.5-1.1,1.1-1.1
						S391.8,355.8,391.8,356.4L391.8,356.4"/>
					<path id="Path_3147" class="st12" d="M355.5,356.4c0,0.6-0.5,1.1-1.1,1.1s-1.1-0.5-1.1-1.1s0.5-1.1,1.1-1.1
						S355.5,355.8,355.5,356.4L355.5,356.4"/>
					<path id="Path_3148" class="st12" d="M378.5,356.4c0,0.6-0.5,1.1-1.1,1.1s-1.1-0.5-1.1-1.1s0.5-1.1,1.1-1.1
						S378.5,355.8,378.5,356.4L378.5,356.4"/>
					<path id="Path_3149" class="st10" d="M360.2,356.4c0,0.6-0.5,1.1-1.1,1.1s-1.1-0.5-1.1-1.1s0.5-1.1,1.1-1.1
						S360.2,355.8,360.2,356.4L360.2,356.4"/>
					<path id="Path_3150" class="st10" d="M364.9,356.4c0,0.6-0.5,1.1-1.1,1.1c-0.6,0-1.1-0.5-1.1-1.1s0.5-1.1,1.1-1.1
						C364.4,355.3,364.9,355.8,364.9,356.4L364.9,356.4"/>
					<path id="Path_3151" class="st10" d="M374.4,356.4c0,0.6-0.5,1.1-1.1,1.1c-0.6,0-1.1-0.5-1.1-1.1s0.5-1.1,1.1-1.1
						C373.9,355.3,374.4,355.8,374.4,356.4L374.4,356.4"/>
					<path id="Path_3152" class="st10" d="M395.7,356.4c0,0.6-0.5,1.1-1.1,1.1s-1.1-0.5-1.1-1.1s0.5-1.1,1.1-1.1
						S395.7,355.8,395.7,356.4L395.7,356.4"/>
					<path id="Path_3153" class="st13" d="M369.5,356.4c0,0.6-0.5,1.1-1.1,1.1s-1.1-0.5-1.1-1.1s0.5-1.1,1.1-1.1
						S369.5,355.8,369.5,356.4L369.5,356.4"/>
					<path id="Path_3154" class="st13" d="M382.9,356.4c0,0.6-0.5,1.1-1.1,1.1s-1.1-0.5-1.1-1.1s0.5-1.1,1.1-1.1
						S382.9,355.8,382.9,356.4L382.9,356.4"/>
					<path id="Path_3155" class="st12" d="M415.4,306.2l-14.1,0V283l14.1,0V306.2z"/>
					<path id="Path_3156" class="st12" d="M415.4,277.9l-14.1,0v-23.3l14.1,0V277.9z"/>
					<path id="Path_3157" class="st12" d="M415.4,334.8l-14.1,0v-23.3l14.1,0V334.8z"/>
					<path id="Path_3158" class="st12" d="M415.4,363.7l-14.1,0v-23.3l14.1,0V363.7z"/>
					<rect id="Rectangle_2042" x="308.1" y="254.5" class="st18" width="93.8" height="23.3"/>
					<rect id="Rectangle_2043" x="312.3" y="259.3" class="st12" width="18.5" height="2.8"/>
					<rect id="Rectangle_2044" x="312.3" y="264.2" class="st12" width="18.5" height="2.8"/>
					<rect id="Rectangle_2045" x="312.3" y="269.2" class="st12" width="18.5" height="2.8"/>
					<path id="Path_3159" class="st12" d="M338.1,261c0,0.6-0.5,1.1-1.1,1.1c-0.6,0-1.1-0.5-1.1-1.1s0.5-1.1,1.1-1.1
						S338.1,260.4,338.1,261C338.1,261,338.1,261,338.1,261"/>
					<path id="Path_3160" class="st12" d="M342.7,261c0,0.6-0.5,1.1-1.1,1.1c-0.6,0-1.1-0.5-1.1-1.1s0.5-1.1,1.1-1.1
						S342.7,260.4,342.7,261C342.7,261,342.7,261,342.7,261"/>
					<path id="Path_3161" class="st12" d="M347.4,261c0,0.6-0.5,1.1-1.1,1.1c-0.6,0-1.1-0.5-1.1-1.1s0.5-1.1,1.1-1.1
						S347.4,260.4,347.4,261C347.4,261,347.4,261,347.4,261"/>
					<path id="Path_3162" class="st12" d="M352.1,261c0,0.6-0.5,1.1-1.1,1.1c-0.6,0-1.1-0.5-1.1-1.1s0.5-1.1,1.1-1.1
						S352.1,260.4,352.1,261C352.1,261,352.1,261,352.1,261"/>
					<path id="Path_3163" class="st12" d="M388.3,261c0,0.6-0.5,1.1-1.1,1.1c-0.6,0-1.1-0.5-1.1-1.1s0.5-1.1,1.1-1.1
						S388.3,260.4,388.3,261C388.3,261,388.3,261,388.3,261"/>
					<path id="Path_3164" class="st12" d="M393.1,261c0,0.6-0.5,1.1-1.1,1.1c-0.6,0-1.1-0.5-1.1-1.1s0.5-1.1,1.1-1.1
						C392.6,259.9,393.1,260.4,393.1,261C393.1,261,393.1,261,393.1,261"/>
					<path id="Path_3165" class="st12" d="M356.8,261c0,0.6-0.5,1.1-1.1,1.1c-0.6,0-1.1-0.5-1.1-1.1s0.5-1.1,1.1-1.1
						S356.8,260.4,356.8,261C356.8,261,356.8,261,356.8,261"/>
					<path id="Path_3166" class="st12" d="M379.7,261c0,0.6-0.5,1.1-1.1,1.1c-0.6,0-1.1-0.5-1.1-1.1s0.5-1.1,1.1-1.1
						S379.7,260.4,379.7,261C379.7,261,379.7,261,379.7,261"/>
					<path id="Path_3167" class="st10" d="M361.4,261c0,0.6-0.5,1.1-1.1,1.1c-0.6,0-1.1-0.5-1.1-1.1s0.5-1.1,1.1-1.1
						S361.4,260.4,361.4,261C361.4,261,361.4,261,361.4,261"/>
					<path id="Path_3168" class="st10" d="M366.1,261c0,0.6-0.5,1.1-1.1,1.1c-0.6,0-1.1-0.5-1.1-1.1s0.5-1.1,1.1-1.1
						C365.6,259.9,366.1,260.4,366.1,261C366.1,261,366.1,261,366.1,261"/>
					<path id="Path_3169" class="st10" d="M375.6,261c0,0.6-0.5,1.1-1.1,1.1c-0.6,0-1.1-0.5-1.1-1.1s0.5-1.1,1.1-1.1
						C375.1,259.9,375.6,260.4,375.6,261C375.6,261,375.6,261,375.6,261"/>
					<path id="Path_3170" class="st10" d="M397,261c0,0.6-0.5,1.1-1.1,1.1c-0.6,0-1.1-0.5-1.1-1.1s0.5-1.1,1.1-1.1
						S397,260.4,397,261C397,261,397,261,397,261"/>
					<path id="Path_3171" class="st13" d="M370.8,261c0,0.6-0.5,1.1-1.1,1.1c-0.6,0-1.1-0.5-1.1-1.1s0.5-1.1,1.1-1.1
						S370.8,260.4,370.8,261C370.8,261,370.8,261,370.8,261"/>
					<path id="Path_3172" class="st13" d="M384.2,261c0,0.6-0.5,1.1-1.1,1.1c-0.6,0-1.1-0.5-1.1-1.1s0.5-1.1,1.1-1.1
						S384.2,260.4,384.2,261C384.2,261,384.2,261,384.2,261"/>
					<path id="Path_3173" class="st12" d="M394.9,266.1c0-0.6,0.5-1.1,1.1-1.1s1.1,0.5,1.1,1.1c0,0.6-0.5,1.1-1.1,1.1
						S394.9,266.7,394.9,266.1C394.9,266.1,394.9,266.1,394.9,266.1"/>
					<path id="Path_3174" class="st12" d="M390.2,266.1c0-0.6,0.5-1.1,1.1-1.1s1.1,0.5,1.1,1.1c0,0.6-0.5,1.1-1.1,1.1
						S390.2,266.7,390.2,266.1C390.2,266.1,390.2,266.1,390.2,266.1"/>
					<path id="Path_3175" class="st12" d="M385.5,266.1c0-0.6,0.5-1.1,1.1-1.1s1.1,0.5,1.1,1.1c0,0.6-0.5,1.1-1.1,1.1
						S385.5,266.7,385.5,266.1C385.5,266.1,385.5,266.1,385.5,266.1"/>
					<path id="Path_3176" class="st12" d="M380.8,266.1c0-0.6,0.5-1.1,1.1-1.1s1.1,0.5,1.1,1.1c0,0.6-0.5,1.1-1.1,1.1
						S380.8,266.7,380.8,266.1C380.8,266.1,380.8,266.1,380.8,266.1"/>
					<path id="Path_3177" class="st12" d="M344.6,266.1c0-0.6,0.5-1.1,1.1-1.1c0.6,0,1.1,0.5,1.1,1.1c0,0.6-0.5,1.1-1.1,1.1
						C345.1,267.1,344.6,266.7,344.6,266.1C344.6,266.1,344.6,266.1,344.6,266.1"/>
					<path id="Path_3178" class="st12" d="M339.8,266.1c0-0.6,0.5-1.1,1.1-1.1s1.1,0.5,1.1,1.1c0,0.6-0.5,1.1-1.1,1.1
						S339.8,266.7,339.8,266.1C339.8,266.1,339.8,266.1,339.8,266.1"/>
					<path id="Path_3179" class="st12" d="M376.2,266.1c0-0.6,0.5-1.1,1.1-1.1s1.1,0.5,1.1,1.1c0,0.6-0.5,1.1-1.1,1.1
						S376.2,266.7,376.2,266.1C376.2,266.1,376.2,266.1,376.2,266.1"/>
					<path id="Path_3180" class="st12" d="M353.2,266.1c0-0.6,0.5-1.1,1.1-1.1s1.1,0.5,1.1,1.1c0,0.6-0.5,1.1-1.1,1.1
						S353.2,266.7,353.2,266.1C353.2,266.1,353.2,266.1,353.2,266.1"/>
					<path id="Path_3181" class="st10" d="M371.5,266.1c0-0.6,0.5-1.1,1.1-1.1s1.1,0.5,1.1,1.1c0,0.6-0.5,1.1-1.1,1.1
						S371.5,266.7,371.5,266.1C371.5,266.1,371.5,266.1,371.5,266.1"/>
					<path id="Path_3182" class="st10" d="M366.8,266.1c0-0.6,0.5-1.1,1.1-1.1s1.1,0.5,1.1,1.1c0,0.6-0.5,1.1-1.1,1.1
						S366.8,266.7,366.8,266.1C366.8,266.1,366.8,266.1,366.8,266.1"/>
					<path id="Path_3183" class="st10" d="M357.3,266.1c0-0.6,0.5-1.1,1.1-1.1s1.1,0.5,1.1,1.1c0,0.6-0.5,1.1-1.1,1.1
						S357.3,266.7,357.3,266.1C357.3,266.1,357.3,266.1,357.3,266.1"/>
					<path id="Path_3184" class="st10" d="M335.9,266.1c0-0.6,0.5-1.1,1.1-1.1s1.1,0.5,1.1,1.1c0,0.6-0.5,1.1-1.1,1.1
						S335.9,266.7,335.9,266.1C335.9,266.1,335.9,266.1,335.9,266.1"/>
					<path id="Path_3185" class="st13" d="M362.1,266.1c0-0.6,0.5-1.1,1.1-1.1s1.1,0.5,1.1,1.1c0,0.6-0.5,1.1-1.1,1.1
						S362.1,266.7,362.1,266.1C362.1,266.1,362.1,266.1,362.1,266.1"/>
					<path id="Path_3186" class="st13" d="M348.7,266.1c0-0.6,0.5-1.1,1.1-1.1c0.6,0,1.1,0.5,1.1,1.1c0,0.6-0.5,1.1-1.1,1.1
						C349.2,267.1,348.7,266.7,348.7,266.1C348.7,266.1,348.7,266.1,348.7,266.1"/>
					<path id="Path_3187" class="st12" d="M338.1,270.6c0,0.6-0.5,1.1-1.1,1.1c-0.6,0-1.1-0.5-1.1-1.1s0.5-1.1,1.1-1.1
						S338.1,270,338.1,270.6C338.1,270.6,338.1,270.6,338.1,270.6"/>
					<path id="Path_3188" class="st12" d="M342.7,270.6c0,0.6-0.5,1.1-1.1,1.1c-0.6,0-1.1-0.5-1.1-1.1s0.5-1.1,1.1-1.1
						S342.7,270,342.7,270.6C342.7,270.6,342.7,270.6,342.7,270.6"/>
					<path id="Path_3189" class="st12" d="M347.4,270.6c0,0.6-0.5,1.1-1.1,1.1c-0.6,0-1.1-0.5-1.1-1.1s0.5-1.1,1.1-1.1
						S347.4,270,347.4,270.6C347.4,270.6,347.4,270.6,347.4,270.6"/>
					<path id="Path_3190" class="st12" d="M352.1,270.6c0,0.6-0.5,1.1-1.1,1.1c-0.6,0-1.1-0.5-1.1-1.1s0.5-1.1,1.1-1.1
						S352.1,270,352.1,270.6C352.1,270.6,352.1,270.6,352.1,270.6"/>
					<path id="Path_3191" class="st12" d="M388.3,270.6c0,0.6-0.5,1.1-1.1,1.1c-0.6,0-1.1-0.5-1.1-1.1s0.5-1.1,1.1-1.1
						S388.3,270,388.3,270.6C388.3,270.6,388.3,270.6,388.3,270.6"/>
					<path id="Path_3192" class="st12" d="M393.1,270.6c0,0.6-0.5,1.1-1.1,1.1c-0.6,0-1.1-0.5-1.1-1.1s0.5-1.1,1.1-1.1
						C392.6,269.6,393.1,270,393.1,270.6C393.1,270.6,393.1,270.6,393.1,270.6"/>
					<path id="Path_3193" class="st12" d="M356.8,270.6c0,0.6-0.5,1.1-1.1,1.1c-0.6,0-1.1-0.5-1.1-1.1s0.5-1.1,1.1-1.1
						S356.8,270,356.8,270.6C356.8,270.6,356.8,270.6,356.8,270.6"/>
					<path id="Path_3194" class="st12" d="M379.7,270.6c0,0.6-0.5,1.1-1.1,1.1c-0.6,0-1.1-0.5-1.1-1.1s0.5-1.1,1.1-1.1
						S379.7,270,379.7,270.6C379.7,270.6,379.7,270.6,379.7,270.6"/>
					<path id="Path_3195" class="st10" d="M361.4,270.6c0,0.6-0.5,1.1-1.1,1.1c-0.6,0-1.1-0.5-1.1-1.1s0.5-1.1,1.1-1.1
						S361.4,270,361.4,270.6C361.4,270.6,361.4,270.6,361.4,270.6"/>
					<path id="Path_3196" class="st10" d="M366.1,270.6c0,0.6-0.5,1.1-1.1,1.1c-0.6,0-1.1-0.5-1.1-1.1s0.5-1.1,1.1-1.1
						C365.6,269.6,366.1,270,366.1,270.6C366.1,270.6,366.1,270.6,366.1,270.6"/>
					<path id="Path_3197" class="st10" d="M375.6,270.6c0,0.6-0.5,1.1-1.1,1.1c-0.6,0-1.1-0.5-1.1-1.1s0.5-1.1,1.1-1.1
						C375.1,269.6,375.6,270,375.6,270.6C375.6,270.6,375.6,270.6,375.6,270.6"/>
					<path id="Path_3198" class="st10" d="M397,270.6c0,0.6-0.5,1.1-1.1,1.1c-0.6,0-1.1-0.5-1.1-1.1s0.5-1.1,1.1-1.1
						S397,270,397,270.6C397,270.6,397,270.6,397,270.6"/>
					<path id="Path_3199" class="st13" d="M370.8,270.6c0,0.6-0.5,1.1-1.1,1.1c-0.6,0-1.1-0.5-1.1-1.1s0.5-1.1,1.1-1.1
						S370.8,270,370.8,270.6C370.8,270.6,370.8,270.6,370.8,270.6"/>
					<path id="Path_3200" class="st13" d="M384.2,270.6c0,0.6-0.5,1.1-1.1,1.1c-0.6,0-1.1-0.5-1.1-1.1s0.5-1.1,1.1-1.1
						S384.2,270,384.2,270.6C384.2,270.6,384.2,270.6,384.2,270.6"/>
					<rect id="Rectangle_2046" x="170.7" y="137.9" class="st9" width="73.6" height="225.4"/>
					<path id="Path_3201" class="st6" d="M302.3,363.3h-58l-0.1-225.4h58.1L302.3,363.3z"/>
					<rect id="Rectangle_2047" x="174.7" y="174" class="st12" width="62.4" height="17.6"/>
					<rect id="Rectangle_2048" x="176.5" y="176.2" class="st18" width="3.5" height="13.4"/>
					<path id="Path_3202" class="st17" d="M184.1,179c0,0.6-0.5,1.1-1.1,1.1s-1.1-0.5-1.1-1.1c0-0.6,0.5-1.1,1.1-1.1c0,0,0,0,0,0
						C183.6,177.9,184.1,178.4,184.1,179C184.1,179,184.1,179,184.1,179"/>
					<path id="Path_3203" class="st17" d="M184.1,183.8c0,0.6-0.5,1.1-1.1,1.1c-0.6,0-1.1-0.5-1.1-1.1c0-0.6,0.5-1.1,1.1-1.1
						c0,0,0,0,0,0C183.6,182.7,184.1,183.2,184.1,183.8C184.1,183.8,184.1,183.8,184.1,183.8"/>
					<rect id="Rectangle_2049" x="188.5" y="177.9" class="st18" width="3.4" height="10.3"/>
					<rect id="Rectangle_2050" x="193.5" y="177.9" class="st18" width="3.4" height="10.3"/>
					<rect id="Rectangle_2051" x="198.5" y="177.9" class="st18" width="3.4" height="10.3"/>
					<rect id="Rectangle_2052" x="203.4" y="177.9" class="st18" width="3.4" height="10.3"/>
					<rect id="Rectangle_2053" x="208.4" y="177.9" class="st18" width="3.4" height="10.3"/>
					<rect id="Rectangle_2054" x="213.3" y="177.9" class="st18" width="3.4" height="10.3"/>
					<rect id="Rectangle_2055" x="218.3" y="177.9" class="st18" width="3.4" height="10.3"/>
					<rect id="Rectangle_2056" x="223.3" y="177.9" class="st18" width="3.4" height="10.3"/>
					<rect id="Rectangle_2057" x="228.2" y="177.9" class="st18" width="3.4" height="10.3"/>
					<rect id="Rectangle_2058" x="233.2" y="177.9" class="st18" width="3.4" height="10.3"/>
					<rect id="Rectangle_2059" x="174.7" y="199.2" class="st12" width="62.4" height="17.6"/>
					<rect id="Rectangle_2060" x="176.5" y="201.4" class="st18" width="3.5" height="13.4"/>
					<path id="Path_3204" class="st17" d="M184.1,204.3c0,0.6-0.5,1.1-1.1,1.1s-1.1-0.5-1.1-1.1c0-0.6,0.5-1.1,1.1-1.1c0,0,0,0,0,0
						C183.6,203.2,184.1,203.7,184.1,204.3C184.1,204.3,184.1,204.3,184.1,204.3"/>
					<path id="Path_3205" class="st17" d="M184.1,209c0,0.6-0.5,1.1-1.1,1.1c-0.6,0-1.1-0.5-1.1-1.1c0-0.6,0.5-1.1,1.1-1.1
						c0,0,0,0,0,0C183.6,207.9,184.1,208.4,184.1,209C184.1,209,184.1,209,184.1,209"/>
					<rect id="Rectangle_2061" x="188.5" y="203.2" class="st18" width="3.4" height="10.3"/>
					<rect id="Rectangle_2062" x="193.5" y="203.2" class="st18" width="3.4" height="10.3"/>
					<rect id="Rectangle_2063" x="198.5" y="203.2" class="st18" width="3.4" height="10.3"/>
					<rect id="Rectangle_2064" x="203.4" y="203.2" class="st18" width="3.4" height="10.3"/>
					<rect id="Rectangle_2065" x="208.4" y="203.2" class="st18" width="3.4" height="10.3"/>
					<rect id="Rectangle_2066" x="213.3" y="203.2" class="st18" width="3.4" height="10.3"/>
					<rect id="Rectangle_2067" x="218.3" y="203.2" class="st18" width="3.4" height="10.3"/>
					<rect id="Rectangle_2068" x="223.3" y="203.2" class="st18" width="3.4" height="10.3"/>
					<rect id="Rectangle_2069" x="228.2" y="203.2" class="st18" width="3.4" height="10.3"/>
					<rect id="Rectangle_2070" x="233.2" y="203.2" class="st18" width="3.4" height="10.3"/>
					<rect id="Rectangle_2071" x="174.7" y="224.7" class="st12" width="62.4" height="17.6"/>
					<rect id="Rectangle_2072" x="176.5" y="226.9" class="st18" width="3.5" height="13.4"/>
					<path id="Path_3206" class="st17" d="M184.1,229.7c0,0.6-0.5,1.1-1.1,1.1s-1.1-0.5-1.1-1.1c0-0.6,0.5-1.1,1.1-1.1c0,0,0,0,0,0
						C183.6,228.6,184.1,229.1,184.1,229.7C184.1,229.7,184.1,229.7,184.1,229.7"/>
					<path id="Path_3207" class="st17" d="M184.1,234.5c0,0.6-0.5,1.1-1.1,1.1c-0.6,0-1.1-0.5-1.1-1.1c0-0.6,0.5-1.1,1.1-1.1
						c0,0,0,0,0,0C183.6,233.4,184.1,233.9,184.1,234.5C184.1,234.5,184.1,234.5,184.1,234.5"/>
					<rect id="Rectangle_2073" x="188.5" y="228.6" class="st18" width="3.4" height="10.3"/>
					<rect id="Rectangle_2074" x="193.5" y="228.6" class="st18" width="3.4" height="10.3"/>
					<rect id="Rectangle_2075" x="198.5" y="228.6" class="st18" width="3.4" height="10.3"/>
					<rect id="Rectangle_2076" x="203.4" y="228.6" class="st18" width="3.4" height="10.3"/>
					<rect id="Rectangle_2077" x="208.4" y="228.6" class="st18" width="3.4" height="10.3"/>
					<rect id="Rectangle_2078" x="213.3" y="228.6" class="st18" width="3.4" height="10.3"/>
					<rect id="Rectangle_2079" x="218.3" y="228.6" class="st18" width="3.4" height="10.3"/>
					<rect id="Rectangle_2080" x="223.3" y="228.6" class="st18" width="3.4" height="10.3"/>
					<rect id="Rectangle_2081" x="228.2" y="228.6" class="st18" width="3.4" height="10.3"/>
					<rect id="Rectangle_2082" x="233.2" y="228.6" class="st18" width="3.4" height="10.3"/>
					<rect id="Rectangle_2083" x="174.7" y="252.2" class="st12" width="62.4" height="17.6"/>
					<rect id="Rectangle_2084" x="176.5" y="254.4" class="st18" width="3.5" height="13.4"/>
					<path id="Path_3208" class="st17" d="M184.1,257.2c0,0.6-0.5,1.1-1.1,1.1s-1.1-0.5-1.1-1.1c0-0.6,0.5-1.1,1.1-1.1c0,0,0,0,0,0
						C183.6,256.1,184.1,256.6,184.1,257.2C184.1,257.2,184.1,257.2,184.1,257.2"/>
					<path id="Path_3209" class="st17" d="M184.1,262c0,0.6-0.5,1.1-1.1,1.1c-0.6,0-1.1-0.5-1.1-1.1c0-0.6,0.5-1.1,1.1-1.1
						c0,0,0,0,0,0C183.6,260.8,184.1,261.3,184.1,262C184.1,262,184.1,262,184.1,262"/>
					<rect id="Rectangle_2085" x="188.5" y="256.1" class="st18" width="3.4" height="10.3"/>
					<rect id="Rectangle_2086" x="193.5" y="256.1" class="st18" width="3.4" height="10.3"/>
					<rect id="Rectangle_2087" x="198.5" y="256.1" class="st18" width="3.4" height="10.3"/>
					<rect id="Rectangle_2088" x="203.4" y="256.1" class="st18" width="3.4" height="10.3"/>
					<rect id="Rectangle_2089" x="208.4" y="256.1" class="st18" width="3.4" height="10.3"/>
					<rect id="Rectangle_2090" x="213.3" y="256.1" class="st18" width="3.4" height="10.3"/>
					<rect id="Rectangle_2091" x="218.3" y="256.1" class="st18" width="3.4" height="10.3"/>
					<rect id="Rectangle_2092" x="223.3" y="256.1" class="st18" width="3.4" height="10.3"/>
					<rect id="Rectangle_2093" x="228.2" y="256.1" class="st18" width="3.4" height="10.3"/>
					<rect id="Rectangle_2094" x="233.2" y="256.1" class="st18" width="3.4" height="10.3"/>
					<rect id="Rectangle_2095" x="174.7" y="279.9" class="st12" width="62.4" height="17.6"/>
					<rect id="Rectangle_2096" x="176.5" y="282.1" class="st18" width="3.5" height="13.4"/>
					<path id="Path_3210" class="st17" d="M184.1,285c0,0.6-0.5,1.1-1.1,1.1s-1.1-0.5-1.1-1.1s0.5-1.1,1.1-1.1c0,0,0,0,0,0
						C183.6,283.8,184.1,284.3,184.1,285"/>
					<path id="Path_3211" class="st17" d="M184.1,289.7c0,0.6-0.5,1.1-1.1,1.1c-0.6,0-1.1-0.5-1.1-1.1s0.5-1.1,1.1-1.1c0,0,0,0,0,0
						C183.6,288.6,184.1,289.1,184.1,289.7"/>
					<rect id="Rectangle_2097" x="188.5" y="283.8" class="st18" width="3.4" height="10.3"/>
					<rect id="Rectangle_2098" x="193.5" y="283.8" class="st18" width="3.4" height="10.3"/>
					<rect id="Rectangle_2099" x="198.5" y="283.8" class="st18" width="3.4" height="10.3"/>
					<rect id="Rectangle_2100" x="203.4" y="283.8" class="st18" width="3.4" height="10.3"/>
					<rect id="Rectangle_2101" x="208.4" y="283.8" class="st18" width="3.4" height="10.3"/>
					<rect id="Rectangle_2102" x="213.3" y="283.8" class="st18" width="3.4" height="10.3"/>
					<rect id="Rectangle_2103" x="218.3" y="283.8" class="st18" width="3.4" height="10.3"/>
					<rect id="Rectangle_2104" x="223.3" y="283.8" class="st18" width="3.4" height="10.3"/>
					<rect id="Rectangle_2105" x="228.2" y="283.8" class="st18" width="3.4" height="10.3"/>
					<rect id="Rectangle_2106" x="233.2" y="283.8" class="st18" width="3.4" height="10.3"/>
					<rect id="Rectangle_2107" x="174.7" y="335.2" class="st12" width="62.4" height="17.6"/>
					<rect id="Rectangle_2108" x="176.5" y="337.4" class="st18" width="3.5" height="13.4"/>
					<path id="Path_3212" class="st17" d="M184.1,340.2c0,0.6-0.5,1.1-1.1,1.1s-1.1-0.5-1.1-1.1c0-0.6,0.5-1.1,1.1-1.1c0,0,0,0,0,0
						C183.6,339.1,184.1,339.6,184.1,340.2"/>
					<path id="Path_3213" class="st17" d="M184.1,345c0,0.6-0.5,1.1-1.1,1.1c-0.6,0-1.1-0.5-1.1-1.1s0.5-1.1,1.1-1.1c0,0,0,0,0,0
						C183.6,343.8,184.1,344.3,184.1,345"/>
					<rect id="Rectangle_2109" x="188.5" y="339.1" class="st18" width="3.4" height="10.3"/>
					<rect id="Rectangle_2110" x="193.5" y="339.1" class="st18" width="3.4" height="10.3"/>
					<rect id="Rectangle_2111" x="198.5" y="339.1" class="st18" width="3.4" height="10.3"/>
					<rect id="Rectangle_2112" x="203.4" y="339.1" class="st18" width="3.4" height="10.3"/>
					<rect id="Rectangle_2113" x="208.4" y="339.1" class="st18" width="3.4" height="10.3"/>
					<rect id="Rectangle_2114" x="213.3" y="339.1" class="st18" width="3.4" height="10.3"/>
					<rect id="Rectangle_2115" x="218.3" y="339.1" class="st18" width="3.4" height="10.3"/>
					<rect id="Rectangle_2116" x="223.3" y="339.1" class="st18" width="3.4" height="10.3"/>
					<rect id="Rectangle_2117" x="228.2" y="339.1" class="st18" width="3.4" height="10.3"/>
					<rect id="Rectangle_2118" x="233.2" y="339.1" class="st18" width="3.4" height="10.3"/>
					<rect id="Rectangle_2119" x="174.7" y="307.6" class="st12" width="62.4" height="17.6"/>
					<rect id="Rectangle_2120" x="176.5" y="309.8" class="st18" width="3.5" height="13.4"/>
					<path id="Path_3214" class="st17" d="M184.1,312.6c0,0.6-0.5,1.1-1.1,1.1s-1.1-0.5-1.1-1.1s0.5-1.1,1.1-1.1c0,0,0,0,0,0
						C183.6,311.5,184.1,312,184.1,312.6"/>
					<path id="Path_3215" class="st17" d="M184.1,317.4c0,0.6-0.5,1.1-1.1,1.1c-0.6,0-1.1-0.5-1.1-1.1s0.5-1.1,1.1-1.1c0,0,0,0,0,0
						C183.6,316.3,184.1,316.7,184.1,317.4"/>
					<rect id="Rectangle_2121" x="188.5" y="311.5" class="st18" width="3.4" height="10.3"/>
					<rect id="Rectangle_2122" x="193.5" y="311.5" class="st18" width="3.4" height="10.3"/>
					<rect id="Rectangle_2123" x="198.5" y="311.5" class="st18" width="3.4" height="10.3"/>
					<rect id="Rectangle_2124" x="203.4" y="311.5" class="st18" width="3.4" height="10.3"/>
					<rect id="Rectangle_2125" x="208.4" y="311.5" class="st18" width="3.4" height="10.3"/>
					<rect id="Rectangle_2126" x="213.3" y="311.5" class="st18" width="3.4" height="10.3"/>
					<rect id="Rectangle_2127" x="218.3" y="311.5" class="st18" width="3.4" height="10.3"/>
					<rect id="Rectangle_2128" x="223.3" y="311.5" class="st18" width="3.4" height="10.3"/>
					<rect id="Rectangle_2129" x="228.2" y="311.5" class="st18" width="3.4" height="10.3"/>
					<rect id="Rectangle_2130" x="233.2" y="311.5" class="st18" width="3.4" height="10.3"/>
					<path id="Path_3216" class="st12" d="M213.3,174c0-0.2-0.1-0.4-0.1-0.5c0-0.4,0-0.9-0.1-1.6s0-1.5-0.1-2.5
						c0-1.1-0.2-2.2-0.4-3.2c-0.4-1.3-0.9-2.4-1.7-3.5c-0.9-1.2-2-2.2-3.4-2.8c-1.6-0.6-3.2-0.9-4.9-1l-5.4-0.5
						c-7.4-0.6-14-1-18.9-1.1c-2.4-0.1-4.4,0-5.7,0l-1.6,0c-0.2,0-0.4,0-0.5,0c0.2,0,0.4-0.1,0.5-0.1l1.6-0.1
						c1.4-0.1,3.3-0.1,5.7-0.1c4.9,0,11.5,0.4,18.9,1l5.4,0.5c1.7,0.1,3.4,0.4,5,1c1.4,0.6,2.7,1.6,3.5,2.9c0.8,1.1,1.3,2.3,1.7,3.6
						c0.2,1.1,0.4,2.2,0.4,3.3c0,1,0,1.8,0,2.5c0,0.6,0,1.2,0,1.6C213.4,173.6,213.4,173.8,213.3,174"/>
					<path id="Path_3217" class="st12" d="M194.4,174c0-0.2,0-0.3,0-0.5c0-0.4,0-0.9,0-1.5c0-0.6,0-1.4-0.1-2.3c0-1-0.3-2-0.8-2.9
						c-0.7-1-1.7-1.8-2.8-2.2c-1.3-0.5-2.7-0.7-4.1-0.4c-0.7,0.1-1.5,0.4-2.1,0.7c-0.7,0.4-1.3,0.9-1.6,1.6c-0.4,0.7-0.4,1.5,0,2.2
						c0.4,0.7,1.1,1.2,1.9,1.4c0.8,0.2,1.6-0.1,2.2-0.6c0.6-0.6,0.9-1.3,1-2.1c0-0.8-0.2-1.5-0.7-2.1c-0.4-0.6-1-1.1-1.7-1.5
						c-0.7-0.3-1.3-0.5-2.1-0.5c-0.7-0.1-1.4-0.2-2.1-0.3c-1.3-0.1-2.6-0.2-3.7-0.3c-2.3-0.1-4.1-0.1-5.4-0.1h-1.5
						c-0.2,0-0.3,0-0.5,0c0.2,0,0.3-0.1,0.5-0.1l1.5-0.1c1.3,0,3.1-0.1,5.4-0.1c1.1,0,2.4,0.1,3.7,0.2c0.7,0.1,1.4,0.2,2.1,0.3
						c0.4,0.1,0.7,0.1,1.1,0.2c0.4,0.1,0.8,0.2,1.1,0.4c0.7,0.4,1.3,0.9,1.8,1.6c0.5,0.7,0.8,1.5,0.7,2.4c-0.1,0.9-0.5,1.7-1.1,2.3
						c-0.7,0.7-1.6,0.9-2.6,0.7c-0.9-0.2-1.7-0.8-2.1-1.6c-0.5-0.8-0.5-1.8,0-2.6c0.4-0.7,1.1-1.3,1.8-1.7c0.7-0.4,1.5-0.6,2.2-0.8
						c1.4-0.2,2.9-0.1,4.3,0.5c1.2,0.4,2.2,1.3,2.9,2.3c0.5,0.9,0.7,2,0.7,3c0,0.9,0,1.7,0,2.3c0,0.6,0,1.1-0.1,1.5
						C194.4,173.6,194.4,173.8,194.4,174"/>
					<path id="Path_3218" class="st12" d="M218.4,174c-0.1-0.2-0.1-0.4-0.1-0.6c-0.1-0.4-0.2-0.9-0.3-1.7c-0.4-2-1-4-1.8-6
						c-1.1-2.9-3-5.4-5.4-7.3c-1.5-1.1-3.2-1.7-5-1.9c-1.9-0.2-3.9-0.3-5.9-0.3c-8.1-0.2-15.4-0.1-20.7-0.3
						c-2.6-0.1-4.8-0.2-6.3-0.3l-1.7-0.1c-0.2,0-0.4,0-0.6-0.1c0.2,0,0.4,0,0.6,0l1.7,0.1c1.5,0.1,3.6,0.1,6.3,0.2
						c5.3,0.1,12.6,0.1,20.7,0.2c2,0,3.9,0.1,5.9,0.3c1.9,0.2,3.6,0.9,5.1,2c1.3,1,2.5,2.2,3.4,3.6c0.8,1.2,1.5,2.5,2,3.8
						c0.8,1.9,1.4,4,1.7,6c0.1,0.7,0.2,1.3,0.3,1.7C218.4,173.6,218.4,173.8,218.4,174"/>
					<rect id="Rectangle_2131" x="175.6" y="140.7" class="st12" width="60.7" height="8.8"/>
					<rect id="Rectangle_2132" x="188.9" y="145.1" class="st18" width="33" height="4.4"/>
					<path id="Path_3219" class="st12" d="M261.1,323.5c0,0-0.7,0.1-1.8,0.4c-1.6,0.5-3.2,1.3-4.6,2.2c-1,0.7-1.8,1.5-2.6,2.4
						c-0.4,0.5-0.8,1.1-1.1,1.6c-0.3,0.6-0.5,1.3-0.7,2c-0.7,2.8-0.5,6-0.3,9.3c0.1,3.3-0.1,6.6-1.4,9.3c-0.6,1.3-1.4,2.4-2.5,3.3
						c-1.7,1.5-3.7,2.4-5.9,2.8c-0.7,0.1-1.5,0.1-2.2,0.1c-0.5,0-0.9-0.1-1.4-0.2c-0.2,0-0.3-0.1-0.5-0.1c0,0,0.7,0.2,1.9,0.2
						c0.7,0,1.5,0,2.2-0.2c1-0.2,1.9-0.5,2.8-0.9c1.1-0.5,2.1-1.1,2.9-1.9c1-0.9,1.8-2,2.4-3.2c1.3-2.6,1.5-5.8,1.3-9.1
						c-0.1-3.3-0.3-6.5,0.4-9.4c0.2-0.7,0.4-1.4,0.7-2c0.3-0.6,0.7-1.2,1.1-1.7c0.8-0.9,1.7-1.7,2.7-2.4c1.4-1,3-1.7,4.7-2.2
						c0.5-0.1,0.9-0.2,1.4-0.3C260.7,323.5,260.9,323.4,261.1,323.5"/>
					<rect id="Rectangle_2133" x="233.1" y="353.8" class="st12" width="5" height="6.1"/>
					<rect id="Rectangle_2134" x="261.1" y="308.2" class="st18" width="27.9" height="30.6"/>
					<path id="Path_3220" class="st12" d="M284.2,323.6c0,5.1-4.1,9.2-9.2,9.2c-5.1,0-9.2-4.1-9.2-9.2c0-5.1,4.1-9.2,9.2-9.2
						c0,0,0,0,0,0C280.1,314.4,284.2,318.5,284.2,323.6L284.2,323.6"/>
					<path id="Path_3221" class="st18" d="M279.6,323.6c0,2.5-2.1,4.6-4.6,4.6c-2.5,0-4.6-2.1-4.6-4.6c0-2.5,2.1-4.6,4.6-4.6l0,0
						C277.6,319,279.6,321,279.6,323.6"/>
					<path id="Path_3222" class="st12" d="M265.7,312.9c0,0.5-0.4,0.9-0.9,0.9c-0.5,0-0.9-0.4-0.9-0.9c0-0.5,0.4-0.9,0.9-0.9
						S265.7,312.4,265.7,312.9C265.7,312.9,265.7,312.9,265.7,312.9"/>
					<path id="Path_3223" class="st12" d="M285.6,312.9c0,0.5-0.4,0.9-0.9,0.9s-0.9-0.4-0.9-0.9c0-0.5,0.4-0.9,0.9-0.9
						C285.2,312.1,285.6,312.4,285.6,312.9C285.6,312.9,285.6,312.9,285.6,312.9"/>
					<path id="Path_3224" class="st12" d="M285.8,335.5c0,0.5-0.4,0.9-0.9,0.9s-0.9-0.4-0.9-0.9c0-0.5,0.4-0.9,0.9-0.9
						S285.8,335,285.8,335.5C285.8,335.5,285.8,335.5,285.8,335.5"/>
					<path id="Path_3225" class="st12" d="M265.7,335.9c0,0.5-0.4,0.9-0.9,0.9c-0.5,0-0.9-0.4-0.9-0.9s0.4-0.9,0.9-0.9
						S265.7,335.4,265.7,335.9C265.7,335.9,265.7,335.9,265.7,335.9"/>
					<rect id="Rectangle_2135" x="289" y="308.2" class="st12" width="2.3" height="30.6"/>
				</g>
			</g>
		</g>
	</g>
</g>
</svg>
