<?xml version="1.0" encoding="utf-8"?>
<!-- Generator: Adobe Illustrator 26.0.2, SVG Export Plug-In . SVG Version: 6.00 Build 0)  -->
<svg version="1.1" id="Layer_1" xmlns="http://www.w3.org/2000/svg" xmlns:xlink="http://www.w3.org/1999/xlink" x="0px" y="0px"
	 viewBox="0 0 510 400" style="enable-background:new 0 0 510 400;" xml:space="preserve">
<style type="text/css">
	.st0{fill:#DDE8FD;}
	.st1{fill:#BED2FA;}
	.st2{fill:#93B3F4;}
	.st3{fill:#3A49CD;}
	.st4{fill:#E75755;}
	.st5{fill:#FFFFFF;}
	.st6{fill:#3662C1;}
	.st7{fill:#6D89CF;}
	.st8{fill:#FA7269;}
	.st9{fill:#ED6966;}
	.st10{fill:#060632;}
</style>
<g id="Group_2243" transform="translate(-16784 235)">
	<g id="Group_2241" transform="translate(16784 -235)">
		<path id="Path_2390" class="st0" d="M40.5,330.6c0,0-58-62.3-9.8-129.7c42.8-59.8,92.6-55.7,129.2-31.5
			c15.6,10.3,60.5,1.3,98.7-59.6c52.1-83,232.8-32.7,199.9,95c-15.9,61.8,48.5,64,15.7,125.8L40.5,330.6z"/>
		<path id="Path_2391" class="st1" d="M151.9,210.2c0,0-28.7-40.8-39.9-35.5S151.9,210.2,151.9,210.2"/>
		<path id="Path_2392" class="st1" d="M150,199.3c0,0-4.4-30.7-11.3-29.5S150,199.3,150,199.3"/>
		<path id="Path_2393" class="st2" d="M125.8,295c0,0,2.8-13.7-8-15.4c0,0-7.3-0.3-11.5,2.5c0,0,12.1,7,10.7,9.2s-13-8.8-13-8.8
			s-13,5.7-15.9,9.8c0,0,15.4,2.7,13.5,4.5s-18.1-0.4-18.1-0.4s-10.4,8.4-5.9,15s9.7,6.6,11.3,5.5c1.6-1.2,9.7-10.7,10.7-9.4
			c1,1.3-2.5,9.4-6.7,12c0,0,13.1,4.4,17-1.2c3.9-5.6,2.1-9.9,4.6-13.3s5.4-5,4.9-2.7c-0.5,2.3-5.7,7.3-5.8,11.7
			c0,4.5-0.5,7.7,4.6,3.8c5.1-4,11.9-13.1,9.7-18L125.8,295z"/>
		<path id="Path_2394" class="st3" d="M83.3,308.5c0,0,30.6-18.7,42.4-13.6c3.2,2.6,7,4.4,11.1,5.3l1.8,1.6c0,0-8.6-2.7-10.7-1.9
			C128,299.9,124.8,287.1,83.3,308.5"/>
		<path id="Path_2395" class="st3" d="M136.9,300.2c0,0,9.5,1.2,14.9,9.8l-1.2,0.8c0,0-7.3-8-13.1-9.4S136.9,300.2,136.9,300.2"/>
		<path id="Path_2396" class="st1" d="M135.1,255.1c0,0,22.2-12.4,11.8-29.3c0,0-8.3-10.4-17.2-13c0,0,4.7,25.1,0,25.7
			c-4.7,0.6-3.3-28.4-3.3-28.4s-23.4-11.2-32.5-10.4c0,0,14.5,24.6,9.8,24c-4.7-0.6-21-25.4-21-25.4s-24-4.4-27.8,9.8
			c-3.8,14.2,2.4,21.3,5.9,22.2s26.3,0.6,25.7,3.6c-0.6,3-16,7.7-24.6,5c0,0,9.5,23.4,21.9,22.2s16.3-8.9,24-9.5s13.3,1.5,9.5,3.5
			c-3.8,2.1-16.9,0.7-23.1,6c-6.2,5.3-11.2,8.5,0.3,10.9s32.2,0.9,36.4-8L135.1,255.1z"/>
		<path id="Path_2397" class="st3" d="M65.9,212.5c0,0,62.1,20.1,69.2,42.6c0,0-0.3,10.1,5.9,21.6v4.4c0,0-6.5-15.1-10.1-17.2
			C131,264,144.9,244.5,65.9,212.5"/>
		<path id="Path_2398" class="st3" d="M141,276.7c0,0,9.6,14.5,4.1,32.3l-2.5-0.7c0,0,2.4-19.5-2.6-29.3
			C135.1,269.2,141,276.7,141,276.7"/>
		<path id="Path_2399" class="st4" d="M157.7,151.1l-33.2,171.6c-0.6,3.1,1.4,6,4.5,6.6c0.4,0.1,0.7,0.1,1.1,0.1h17.5L157.7,151.1z"
			/>
		<path id="Path_2400" class="st2" d="M378.3,200.3c0,0-14.9-9.5-7.1-20.8c0,0,6.2-6.9,12.5-8.4c0,0-4.3,17.3-1,17.9
			c3.3,0.6,3.4-19.6,3.4-19.6s16.7-6.9,23-5.9c0,0-11.1,16.5-7.7,16.3s15.6-16.9,15.6-16.9s16.8-2.1,19,7.9s-2.5,14.7-5,15.2
			c-2.5,0.5-18.3-0.6-18,1.4c0.3,2.1,10.8,6,16.9,4.5c0,0-7.5,15.9-16.1,14.6c-8.6-1.3-11-6.8-16.3-7.5c-5.3-0.7-9.3,0.5-6.7,2.1
			c2.6,1.6,11.7,1.1,15.8,5.1c4.1,3.9,7.5,6.4-0.6,7.6c-8.1,1.2-22.5-0.7-25-7L378.3,200.3z"/>
		<path id="Path_2401" class="st2" d="M428.2,173.4c0,0-44,11.5-49.8,26.9c-0.4,5.3-2.2,10.3-5,14.8l-0.2,3.1c0,0,5.1-10.2,7.7-11.5
			C380.9,206.6,372,192.5,428.2,173.4"/>
		<path id="Path_2402" class="st2" d="M373.4,215.1c0,0-7.2,9.7-4.1,22.3l1.7-0.4c0,0-0.9-13.7,3-20.3
			C377.8,210.1,373.4,215,373.4,215.1"/>
		<path id="Path_2403" class="st5" d="M338.1,158.9c0,0-22.9-5-18.3-22.7c0,0,4.5-11.4,11.7-16.1c0,0,2.6,23.5,6.9,22.8
			s-4.7-26-4.7-26s17.6-16.2,26-17.9c0,0-6.2,25.6-2.2,23.8s11.7-28.1,11.7-28.1s20-10.3,27.2,1.2s3.6,19.5,0.7,21.2
			c-2.9,1.7-23.1,7.6-21.8,10c1.3,2.5,16.2,2.5,23.1-2.1c0,0-2.1,23.2-13.4,25.5c-11.3,2.3-16.8-3.5-23.7-1.9
			c-7,1.5-11.4,4.9-7.4,5.7c4,0.8,15.1-3.9,22-0.9c6.9,3,12.2,4.5,2.7,9.7c-9.6,5.2-28.3,9.4-34.3,2.7L338.1,158.9z"/>
		<path id="Path_2404" class="st5" d="M387.9,102.7c0,0-49.5,34.4-49.8,56.2c0,0,3,8.8,0.6,20.7l1.2,3.9c0,0,1.7-15.1,4.3-17.9
			C344.2,165.7,326.7,152.1,387.9,102.7"/>
		<path id="Path_2405" class="st5" d="M338.7,179.6c0,0-4.6,15.4,5,29.6l2-1.2c0,0-7.3-16.6-5.5-26.6
			C342,171.3,338.7,179.6,338.7,179.6"/>
		<path id="Path_2406" class="st6" d="M158.1,150.5l-22,168.5c-0.7,5.1,2.9,9.8,8,10.5c0.4,0.1,0.8,0.1,1.2,0.1h32.3l-18.2-179.7
			L158.1,150.5z"/>
		<path id="Path_2407" class="st7" d="M158.1,150.5l-9.9,167.4c-0.4,6,4.3,11.2,10.3,11.6c0.2,0,0.4,0,0.6,0h48.1L158.1,150.5z"/>
		<path id="Path_2408" class="st3" d="M157.7,151.8l4.8,166.1c-0.4,6,4.3,11.2,10.3,11.6c0.2,0,0.4,0,0.6,0h48.1L157.7,151.8z"/>
		<path id="Path_2409" class="st5" d="M388.2,329.5H198.4c-4.7,0-8.8-3.4-9.7-8.1l-28.9-158c-1.2-6.3,3-12.4,9.4-13.6
			c0.7-0.1,1.4-0.2,2.1-0.2h187.6c4.7,0,8.8,3.4,9.7,8.1l29.3,160.2c1,5.3-2.6,10.4-7.9,11.4C389.4,329.4,388.8,329.5,388.2,329.5"
			/>
		<path id="Path_2410" class="st8" d="M163.6,184h209.9l-5.4-29.8c-0.5-2.6-2.7-4.5-5.3-4.5H159.5c-1,0-1.8,0.8-1.8,1.8
			c0,0.1,0,0.2,0,0.3L163.6,184z"/>
		<path id="Path_2411" class="st6" d="M168.5,140.7c-5,0-9.1,4.1-9.1,9.1h1.7c0-4.1,3.3-7.4,7.4-7.4c4.1,0,7.4,3.3,7.4,7.4
			c0,3.1-2,5.9-4.9,6.9c-0.6,0.2-1.3,0.4-2,0.4v1.7c0.8,0,1.6-0.2,2.3-0.4c3-0.9,5.3-3.3,6.1-6.4c1.3-4.9-1.6-9.8-6.5-11.1
			C170.1,140.8,169.3,140.7,168.5,140.7"/>
		<path id="Path_2412" class="st6" d="M171.3,158c0,0.2,0,0.4-0.1,0.5c-0.3,1.1-1.4,1.7-2.4,1.4c-1.1-0.3-1.7-1.4-1.4-2.4
			c0.3-1.1,1.4-1.7,2.4-1.4c0.4,0.1,0.8,0.4,1,0.7C171.2,157.1,171.3,157.6,171.3,158"/>
		<path id="Path_2413" class="st6" d="M201.1,140.7c-5,0-9.1,4.1-9.1,9.1h1.7c0-4.1,3.3-7.4,7.4-7.4c4.1,0,7.4,3.3,7.4,7.4
			c0,0.8-0.1,1.6-0.4,2.3c-0.7,2.2-2.4,3.9-4.6,4.6c-0.6,0.2-1.3,0.4-2,0.4v1.7c0.8,0,1.6-0.2,2.3-0.4c4.8-1.5,7.4-6.6,5.9-11.4
			C208.6,143.3,205.1,140.7,201.1,140.7"/>
		<path id="Path_2414" class="st6" d="M203.9,158c0,0.2,0,0.4-0.1,0.5c-0.3,1.1-1.4,1.7-2.4,1.4c-1.1-0.3-1.7-1.4-1.4-2.4
			c0.3-1.1,1.4-1.7,2.4-1.4C203.3,156.3,203.9,157.1,203.9,158"/>
		<path id="Path_2415" class="st6" d="M233.8,140.7c-5,0-9.1,4.1-9.1,9.1h1.7c0-4.1,3.3-7.4,7.4-7.4c4.1,0,7.4,3.3,7.4,7.4
			c0,3.1-2,5.9-4.9,6.9c-0.6,0.2-1.3,0.4-2,0.4v1.7c5-0.2,8.9-4.5,8.7-9.5C242.6,144.6,238.6,140.7,233.8,140.7"/>
		<path id="Path_2416" class="st6" d="M236.6,158c0,0.2,0,0.4-0.1,0.5c-0.3,1.1-1.4,1.7-2.4,1.4c-1.1-0.3-1.7-1.4-1.4-2.4
			c0.3-1.1,1.4-1.7,2.4-1.4C236,156.3,236.6,157.1,236.6,158"/>
		<path id="Path_2417" class="st6" d="M266.4,140.7c-5,0-9.1,4.1-9.1,9.1h1.7c0-4.1,3.3-7.4,7.4-7.4c4.1,0,7.4,3.3,7.4,7.4
			c0,3.1-2,5.9-4.9,7c-0.6,0.2-1.3,0.4-2,0.4v1.7c5-0.2,8.9-4.5,8.7-9.5C275.3,144.6,271.3,140.7,266.4,140.7"/>
		<path id="Path_2418" class="st6" d="M269.2,158c0,0.2,0,0.4-0.1,0.5c-0.3,1-1.4,1.7-2.4,1.4c-1-0.3-1.7-1.4-1.4-2.4
			c0.3-1,1.4-1.7,2.4-1.4c0.4,0.1,0.8,0.4,1,0.7C269.1,157.1,269.2,157.6,269.2,158"/>
		<path id="Path_2419" class="st6" d="M299,140.7c-5,0-9.1,4.1-9.1,9.1h1.7c0-4.1,3.3-7.4,7.4-7.4c4.1,0,7.4,3.3,7.4,7.4
			c0,3.1-2,5.9-5,7c-0.6,0.2-1.3,0.4-2,0.4v1.7c0.8,0,1.6-0.2,2.3-0.4c4.8-1.5,7.4-6.6,5.9-11.4C306.5,143.3,303,140.7,299,140.7"/>
		<path id="Path_2420" class="st6" d="M301.8,158c0,0.2,0,0.4-0.1,0.5c-0.3,1.1-1.4,1.7-2.4,1.4s-1.7-1.4-1.4-2.4
			c0.3-1.1,1.4-1.7,2.4-1.4C301.2,156.3,301.8,157.1,301.8,158"/>
		<path id="Path_2421" class="st6" d="M331.6,140.7c-5,0-9.1,4.1-9.1,9.1h1.7c0-4.1,3.3-7.4,7.4-7.4c4.1,0,7.4,3.3,7.4,7.4
			c0,0.8-0.1,1.6-0.4,2.3c-0.7,2.2-2.4,3.9-4.6,4.6c-0.6,0.2-1.3,0.4-2,0.4v1.7c0.8,0,1.6-0.2,2.3-0.4c4.8-1.5,7.4-6.6,5.9-11.4
			C339.1,143.3,335.6,140.7,331.6,140.7"/>
		<path id="Path_2422" class="st6" d="M334.5,158c0,0.2,0,0.4-0.1,0.5c-0.3,1.1-1.4,1.7-2.4,1.4c-1.1-0.3-1.7-1.4-1.4-2.4
			c0.3-1.1,1.4-1.7,2.4-1.4c0.4,0.1,0.8,0.4,1,0.7C334.3,157.1,334.5,157.6,334.5,158"/>
		<path id="Path_2423" class="st6" d="M364.3,140.7c-5,0-9.1,4.1-9.1,9.1h1.7c0-4.1,3.3-7.4,7.4-7.4c4.1,0,7.4,3.3,7.4,7.4
			c0,0.8-0.1,1.6-0.4,2.3c-0.7,2.2-2.4,3.9-4.6,4.6c-0.6,0.2-1.3,0.4-2,0.4v1.7c0.8,0,1.6-0.2,2.3-0.4c4.8-1.5,7.4-6.6,5.9-11.4
			C371.7,143.3,368.2,140.7,364.3,140.7"/>
		<path id="Path_2424" class="st6" d="M367.1,158c0,0.2,0,0.4-0.1,0.5c-0.3,1.1-1.4,1.7-2.4,1.4s-1.7-1.4-1.4-2.4
			c0.3-1.1,1.4-1.7,2.4-1.4C366.5,156.3,367.1,157.1,367.1,158"/>
		<path id="Path_2425" class="st7" d="M285,240h-10.6c-1.3-0.1-2.4-1-2.7-2.2l-2-10.6c-0.2-1,0.3-1.9,1.3-2.2c0.2,0,0.3-0.1,0.5-0.1
			h10.6c1.3,0.1,2.4,1,2.7,2.2l2,10.6c0.2,1-0.3,1.9-1.3,2.2C285.3,240,285.2,240,285,240"/>
		<path id="Path_2426" class="st7" d="M311.8,240h-10.6c-1.3-0.1-2.4-1-2.7-2.2l-2-10.6c-0.2-1,0.3-1.9,1.3-2.2
			c0.2,0,0.3-0.1,0.5-0.1h10.6c1.3,0.1,2.4,1,2.7,2.2l2,10.6c0.2,1-0.3,1.9-1.3,2.2C312.1,240,311.9,240,311.8,240"/>
		<path id="Path_2427" class="st6" d="M338.5,240h-10.6c-1.3-0.1-2.4-1-2.7-2.2l-2-10.6c-0.2-1,0.3-1.9,1.3-2.2
			c0.2,0,0.3-0.1,0.5-0.1h10.6c1.3,0.1,2.4,1,2.7,2.2l2,10.6c0.2,1-0.3,1.9-1.3,2.2C338.9,240,338.7,240,338.5,240"/>
		<path id="Path_2428" class="st7" d="M204.7,240H194c-1.3-0.1-2.4-1-2.7-2.2l-2-10.6c-0.2-1,0.3-1.9,1.3-2.2c0.2,0,0.3-0.1,0.5-0.1
			h10.6c1.3,0.1,2.4,1,2.7,2.2l2,10.6c0.2,1-0.3,1.9-1.3,2.2C205,240,204.8,240,204.7,240"/>
		<path id="Path_2429" class="st8" d="M193,208.2h-4.6c-0.6,0-1-0.4-1.1-1l-0.9-4.6c-0.1-0.4,0.1-0.8,0.6-0.9c0.1,0,0.1,0,0.2,0h4.6
			c0.6,0,1,0.4,1.1,1l0.9,4.6c0.1,0.4-0.1,0.8-0.6,0.9C193.2,208.2,193.1,208.2,193,208.2"/>
		<path id="Path_2430" class="st7" d="M231.4,240h-10.6c-1.3-0.1-2.4-1-2.7-2.2l-2-10.6c-0.2-1,0.3-1.9,1.3-2.2
			c0.2,0,0.3-0.1,0.5-0.1h10.6c1.3,0.1,2.4,1,2.7,2.2l2,10.6c0.2,1-0.3,1.9-1.3,2.2C231.8,240,231.6,240,231.4,240"/>
		<path id="Path_2431" class="st7" d="M258.2,240h-10.6c-1.3-0.1-2.4-1-2.7-2.2l-2-10.6c-0.2-1,0.3-1.9,1.3-2.2
			c0.2,0,0.3-0.1,0.5-0.1h10.6c1.3,0.1,2.4,1,2.7,2.2l2,10.6c0.2,1-0.3,1.9-1.3,2.2C258.5,240,258.4,240,258.2,240"/>
		<path id="Path_2432" class="st6" d="M365.3,240h-10.6c-1.3-0.1-2.4-1-2.7-2.2l-2-10.6c-0.2-1,0.3-1.9,1.3-2.2
			c0.2,0,0.3-0.1,0.5-0.1h10.6c1.3,0.1,2.4,1,2.7,2.2l2,10.6c0.2,1-0.3,1.9-1.3,2.2C365.6,240,365.5,240,365.3,240"/>
		<path id="Path_2433" class="st7" d="M280.5,217h-10.6c-1.3-0.1-2.4-1-2.7-2.2l-2-10.6c-0.2-1,0.3-1.9,1.3-2.2
			c0.2,0,0.3-0.1,0.5-0.1h10.6c1.3,0.1,2.4,1,2.7,2.2l2,10.6c0.2,1-0.3,1.9-1.3,2.2C280.9,217,280.7,217,280.5,217"/>
		<path id="Path_2434" class="st7" d="M307.3,217h-10.6c-1.3-0.1-2.4-1-2.7-2.2l-2-10.6c-0.2-1,0.3-1.9,1.3-2.2
			c0.2,0,0.3-0.1,0.5-0.1h10.6c1.3,0.1,2.4,1,2.7,2.2l2,10.6c0.2,1-0.3,1.9-1.3,2.2C307.7,217,307.5,217,307.3,217"/>
		<path id="Path_2435" class="st6" d="M334.1,217h-10.6c-1.3-0.1-2.4-1-2.7-2.2l-2-10.6c-0.2-1,0.3-1.9,1.3-2.2
			c0.2,0,0.3-0.1,0.5-0.1h10.6c1.3,0.1,2.4,1,2.7,2.2l2,10.6c0.2,1-0.3,1.9-1.3,2.2C334.4,217,334.3,217,334.1,217"/>
		<path id="Path_2436" class="st6" d="M360.9,217h-10.6c-1.3-0.1-2.4-1-2.7-2.2l-2-10.6c-0.2-1,0.3-1.9,1.3-2.2
			c0.2,0,0.3-0.1,0.5-0.1H358c1.3,0.1,2.4,1,2.7,2.2l2,10.6c0.2,1-0.3,1.9-1.3,2.2C361.2,217,361,217,360.9,217"/>
		<path id="Path_2437" class="st7" d="M289.7,264.5h-10.6c-1.3-0.1-2.4-1-2.7-2.2l-2-10.6c-0.2-1,0.3-1.9,1.3-2.2
			c0.2,0,0.3-0.1,0.5-0.1h10.6c1.3,0.1,2.4,1,2.7,2.2l2,10.6c0.2,1-0.3,1.9-1.3,2.2C290,264.4,289.9,264.5,289.7,264.5"/>
		<path id="Path_2438" class="st7" d="M316.5,264.5h-10.6c-1.3-0.1-2.4-1-2.7-2.2l-2-10.6c-0.2-1,0.3-1.9,1.3-2.2
			c0.2,0,0.3-0.1,0.5-0.1h10.6c1.3,0.1,2.4,1,2.7,2.2l2,10.6c0.2,1-0.3,1.9-1.3,2.2C316.8,264.4,316.6,264.5,316.5,264.5"/>
		<path id="Path_2439" class="st6" d="M343.2,264.5h-10.6c-1.3-0.1-2.4-1-2.7-2.2l-2-10.6c-0.2-1,0.3-1.9,1.3-2.2
			c0.2,0,0.3-0.1,0.5-0.1h10.6c1.3,0.1,2.4,1,2.7,2.2l2,10.6c0.2,1-0.3,1.9-1.3,2.2C343.6,264.4,343.4,264.5,343.2,264.5"/>
		<path id="Path_2440" class="st7" d="M209.4,264.5h-10.6c-1.3-0.1-2.4-1-2.7-2.2l-2-10.6c-0.2-1,0.3-1.9,1.3-2.2
			c0.2,0,0.3-0.1,0.5-0.1h10.6c1.3,0.1,2.4,1,2.7,2.2l2,10.6c0.2,1-0.3,1.9-1.3,2.2C209.7,264.4,209.5,264.5,209.4,264.5"/>
		<path id="Path_2441" class="st7" d="M236.1,264.5h-10.6c-1.3-0.1-2.4-1-2.7-2.2l-2-10.6c-0.2-1,0.3-1.9,1.3-2.2
			c0.2,0,0.3-0.1,0.5-0.1h10.6c1.3,0.1,2.4,1,2.7,2.2l2,10.6c0.2,1-0.3,1.9-1.3,2.2C236.5,264.4,236.3,264.5,236.1,264.5"/>
		<path id="Path_2442" class="st7" d="M262.9,264.5h-10.6c-1.3-0.1-2.4-1-2.7-2.2l-2-10.6c-0.2-1,0.3-1.9,1.3-2.2
			c0.2,0,0.3-0.1,0.5-0.1H260c1.3,0.1,2.4,1,2.7,2.2l2,10.6c0.2,1-0.3,1.9-1.3,2.2C263.3,264.4,263.1,264.5,262.9,264.5"/>
		<path id="Path_2443" class="st6" d="M370,264.5h-10.6c-1.3-0.1-2.4-1-2.7-2.2l-2-10.6c-0.2-1,0.3-1.9,1.3-2.2
			c0.2,0,0.3-0.1,0.5-0.1h10.6c1.3,0.1,2.4,1,2.7,2.2l2,10.6c0.2,1-0.3,1.9-1.3,2.2C370.4,264.4,370.2,264.5,370,264.5"/>
		<path id="Path_2444" class="st7" d="M294.4,288.9h-10.6c-1.3-0.1-2.4-1-2.7-2.2l-2-10.6c-0.2-1,0.3-1.9,1.3-2.2
			c0.2,0,0.3-0.1,0.5-0.1h10.6c1.3,0.1,2.4,1,2.7,2.2l2,10.6c0.2,1-0.3,1.9-1.3,2.2C294.7,288.9,294.6,288.9,294.4,288.9"/>
		<path id="Path_2445" class="st7" d="M321.2,288.9h-10.6c-1.3-0.1-2.4-1-2.7-2.2l-2-10.6c-0.2-1,0.3-1.9,1.3-2.2
			c0.2,0,0.3-0.1,0.5-0.1h10.6c1.3,0.1,2.4,1,2.7,2.2l2,10.6c0.2,1-0.3,1.9-1.3,2.2C321.5,288.9,321.4,288.9,321.2,288.9"/>
		<path id="Path_2446" class="st6" d="M348,288.9h-10.6c-1.3-0.1-2.4-1-2.7-2.2l-2-10.6c-0.2-1,0.3-1.9,1.3-2.2
			c0.2,0,0.3-0.1,0.5-0.1H345c1.3,0.1,2.4,1,2.7,2.2l2,10.6c0.2,1-0.3,1.9-1.3,2.2C348.3,288.9,348.1,288.9,348,288.9"/>
		<path id="Path_2447" class="st7" d="M214.1,288.9h-10.6c-1.3-0.1-2.4-1-2.7-2.2l-2-10.6c-0.2-1,0.3-1.9,1.3-2.2
			c0.2,0,0.3-0.1,0.5-0.1h10.6c1.3,0.1,2.4,1,2.7,2.2l2,10.6c0.2,1-0.3,1.9-1.3,2.2C214.4,288.9,214.2,288.9,214.1,288.9"/>
		<path id="Path_2448" class="st8" d="M240.9,288.9h-10.6c-1.3-0.1-2.4-1-2.7-2.2l-2-10.6c-0.2-1,0.3-1.9,1.3-2.2
			c0.2,0,0.3-0.1,0.5-0.1h10.6c1.3,0.1,2.4,1,2.7,2.2l2,10.6c0.2,1-0.3,1.9-1.3,2.2C241.2,288.9,241,288.9,240.9,288.9"/>
		<path id="Path_2449" class="st7" d="M267.6,288.9H257c-1.3-0.1-2.4-1-2.7-2.2l-2-10.6c-0.2-1,0.3-1.9,1.3-2.2
			c0.2,0,0.3-0.1,0.5-0.1h10.6c1.3,0.1,2.4,1,2.7,2.2l2,10.6c0.2,1-0.3,1.9-1.3,2.2C268,288.9,267.8,288.9,267.6,288.9"/>
		<path id="Path_2450" class="st6" d="M374.7,288.9h-10.6c-1.3-0.1-2.4-1-2.7-2.2l-2-10.6c-0.2-1,0.3-1.9,1.3-2.2
			c0.2,0,0.3-0.1,0.5-0.1h10.6c1.3,0.1,2.4,1,2.7,2.2l2,10.6c0.2,1-0.3,1.9-1.3,2.2C375.1,288.9,374.9,288.9,374.7,288.9"/>
		<path id="Path_2451" class="st7" d="M298.8,311.9h-10.6c-1.3-0.1-2.4-1-2.7-2.2l-2-10.6c-0.2-1,0.3-1.9,1.3-2.2
			c0.2,0,0.3-0.1,0.5-0.1h10.6c1.3,0.1,2.4,1,2.7,2.2l2,10.6c0.2,1-0.3,1.9-1.3,2.2C299.2,311.9,299,311.9,298.8,311.9"/>
		<path id="Path_2452" class="st7" d="M325.6,311.9H315c-1.3-0.1-2.4-1-2.7-2.2l-2-10.6c-0.2-1,0.3-1.9,1.3-2.2
			c0.2,0,0.3-0.1,0.5-0.1h10.6c1.3,0.1,2.4,1,2.7,2.2l2,10.6c0.2,1-0.3,1.9-1.3,2.2C326,311.9,325.8,311.9,325.6,311.9"/>
		<path id="Path_2453" class="st6" d="M352.4,311.9h-10.6c-1.3-0.1-2.4-1-2.7-2.2l-2-10.6c-0.2-1,0.3-1.9,1.3-2.2
			c0.2,0,0.3-0.1,0.5-0.1h10.6c1.3,0.1,2.4,1,2.7,2.2l2,10.6c0.2,1-0.3,1.9-1.3,2.2C352.7,311.9,352.6,311.9,352.4,311.9"/>
		<path id="Path_2454" class="st7" d="M218.5,311.9h-10.6c-1.3-0.1-2.4-1-2.7-2.2l-2-10.6c-0.2-1,0.3-1.9,1.3-2.2
			c0.2,0,0.3-0.1,0.5-0.1h10.6c1.3,0.1,2.4,1,2.7,2.2l2,10.6c0.2,1-0.3,1.9-1.3,2.2C218.9,311.9,218.7,311.9,218.5,311.9"/>
		<path id="Path_2455" class="st7" d="M245.3,311.9h-10.6c-1.3-0.1-2.4-1-2.7-2.2l-2-10.6c-0.2-1,0.3-1.9,1.3-2.2
			c0.2,0,0.3-0.1,0.5-0.1h10.6c1.3,0.1,2.4,1,2.7,2.2l2,10.6c0.2,1-0.3,1.9-1.3,2.2C245.6,311.9,245.5,311.9,245.3,311.9"/>
		<path id="Path_2456" class="st7" d="M272.1,311.9h-10.6c-1.3-0.1-2.4-1-2.7-2.2l-2-10.6c-0.2-1,0.3-1.9,1.3-2.2
			c0.2,0,0.3-0.1,0.5-0.1h10.6c1.3,0.1,2.4,1,2.7,2.2l2,10.6c0.2,1-0.3,1.9-1.3,2.2C272.4,311.9,272.2,311.9,272.1,311.9"/>
		<path id="Path_2457" class="st7" d="M225.2,204h-28.1c-0.4,0-0.8-0.3-0.8-0.8c0-0.4,0.3-0.8,0.8-0.8h28.1c0.4,0,0.8,0.3,0.8,0.8
			C225.9,203.7,225.6,204,225.2,204"/>
		<path id="Path_2458" class="st7" d="M226,207.4h-28.1c-0.4,0-0.8-0.3-0.8-0.8c0-0.4,0.3-0.8,0.8-0.8H226c0.4,0,0.8,0.3,0.8,0.8
			C226.8,207.1,226.5,207.4,226,207.4"/>
		<path id="Path_2459" class="st5" d="M195,178.6h-9.6c-0.8,0-1.4-0.6-1.4-1.4c0-0.8,0.6-1.4,1.4-1.4h9.6c0.8,0,1.4,0.6,1.4,1.4
			C196.5,178,195.8,178.6,195,178.6"/>
		<path id="Path_2460" class="st5" d="M221.5,178.6h-9.6c-0.8,0-1.4-0.6-1.4-1.4c0-0.8,0.6-1.4,1.4-1.4h9.6c0.8,0,1.4,0.6,1.4,1.4
			C222.9,178,222.3,178.6,221.5,178.6L221.5,178.6"/>
		<path id="Path_2461" class="st5" d="M248,178.6h-9.6c-0.8,0-1.4-0.6-1.4-1.4c0-0.8,0.6-1.4,1.4-1.4h9.6c0.8,0,1.4,0.6,1.4,1.4
			C249.4,178,248.8,178.6,248,178.6L248,178.6"/>
		<path id="Path_2462" class="st5" d="M274.4,178.6h-9.6c-0.8,0-1.4-0.6-1.4-1.4c0-0.8,0.6-1.4,1.4-1.4h9.6c0.8,0,1.4,0.6,1.4,1.4
			C275.9,178,275.2,178.6,274.4,178.6L274.4,178.6"/>
		<path id="Path_2463" class="st5" d="M300.9,178.6h-9.6c-0.8,0-1.4-0.6-1.4-1.4c0-0.8,0.6-1.4,1.4-1.4h9.6c0.8,0,1.4,0.6,1.4,1.4
			C302.4,178,301.7,178.6,300.9,178.6"/>
		<path id="Path_2464" class="st5" d="M327.4,178.6h-9.6c-0.8,0-1.4-0.6-1.4-1.4c0-0.8,0.6-1.4,1.4-1.4h9.6c0.8,0,1.4,0.6,1.4,1.4
			C328.8,178,328.2,178.6,327.4,178.6"/>
		<path id="Path_2465" class="st5" d="M353.9,178.6h-9.6c-0.8,0-1.4-0.6-1.4-1.4c0-0.8,0.6-1.4,1.4-1.4h9.6c0.8,0,1.4,0.6,1.4,1.4
			C355.3,178,354.6,178.6,353.9,178.6L353.9,178.6"/>
		<path id="Path_2466" class="st9" d="M292.8,217.2c-2.1,0-3.7-0.7-4.5-2c-1.6-2.5-0.4-6,3.7-10.5c2-2.1,4.2-4.1,6.5-5.8
			c0.1-0.1,0.3-0.1,0.4,0c0.1,0.1,0.1,0.3,0,0.4c0,0,0,0,0,0c-0.1,0.1-13.6,10.1-10.1,15.5c1.1,1.7,3.5,1.8,5.3,1.6
			c3.3-0.4,7.7-2.2,11.6-4.8c4.1-2.7,7-5.8,7.9-8.4c0.6-1.7,0.4-2.9-0.6-3.6c-1.3-0.9-3.9-0.9-7.1,0c-2.9,0.8-5.6,2.1-8,4
			c-0.1,0.1-0.3,0.1-0.4,0c-0.1-0.1-0.1-0.3,0-0.4c2.4-1.9,5.2-3.3,8.2-4.1c3.4-0.9,6.2-0.9,7.6,0.1c0.9,0.6,1.7,1.8,0.8,4.3
			c-1,2.7-3.9,5.9-8.1,8.7c-4,2.7-8.5,4.5-11.9,4.9C293.7,217.2,293.3,217.2,292.8,217.2"/>
		<path id="Path_2467" class="st3" d="M454,329.5h-17c-0.9-0.8,0.6-2.5,2.2-2.6c0.9,0,1.7,0.1,2.6,0.3c0.2-3.1,1.6-17.1,6.6-16.5
			c5.7,0.6,0,6.2-1.6,9.4c-1.1,2.5-2.1,5-3,7.5c0.5,0.1,0.9,0.2,1.4,0.3c0.7-2.3,3.5-10.1,7.1-9.6c4.2,0.5,2.5,3.6-0.5,5.5
			c-2.2,1.4-4.8,3.3-6.1,4.2c1.1,0.2,2.2,0.3,3.3,0.3C452,328.2,453.5,329,454,329.5"/>
		<path id="Path_2468" class="st3" d="M65.9,328.7c-0.9-1.4-3.6-5.1-7.2-4.6c-3.9,0.5,4.3,3.1,6.9,4.6c-0.5,0-0.9,0-1.4-0.2
			c-1.7-0.6-4.6,0.6-5.5,1h16.1c-0.2-0.6-0.6-1.1-1.2-1.5c-0.5-0.2-1-0.2-1.5-0.1c1-1.1,1.6-4.7-1-3.8c-2,0.7-1.9,2.9-1.8,4.2
			c-0.4,0.1-0.8,0.1-1.3,0.2c-0.8-4.1-3.6-16.1-9.4-16.4c-5.8-0.3,5,12.4,8.5,16.5C66.8,328.6,66.3,328.7,65.9,328.7"/>
		<path id="Path_2469" class="st10" d="M507.4,330.7H2.6c-0.4,0-0.7-0.3-0.7-0.7c0-0.4,0.3-0.7,0.7-0.7c0,0,0,0,0,0h504.9
			c0.4,0,0.7,0.3,0.7,0.7C508.1,330.4,507.8,330.7,507.4,330.7"/>
	</g>
</g>
</svg>
