<svg xmlns="http://www.w3.org/2000/svg" xmlns:xlink="http://www.w3.org/1999/xlink" version="1.1" style="" xml:space="preserve" width="35" height="35" viewBox="0 0 90 90"><rect id="backgroundrect" width="100%" height="100%" x="0" y="0" fill="none" stroke="none" class="" style=""/>
<style type="text/css">
	.st0{enable-background:new    ;}
	.st1{fill:#707070;}
	.st2{clip-path:url(#SVGID_00000063633653811287036470000011678503699225709208_);}
	.st3{fill:#CDDCDC;}
	.st4{fill:#0F8CB4;}
	.st5{fill:#545454;}
	.st6{fill:none;}
</style>



<g class="currentLayer" style=""><title>Layer 1</title><g id="Group_2222" class="">
	<g id="svg_5">
		<g id="svg_6">
			<defs transform="translate(-7.954819202423096,-4) translate(8159.9150390625,955.2860107421875) ">
				<rect id="SVGID_1_" x="-8151.89990234375" y="-951.2999877929688" width="34" height="35"/>
			</defs>
			<clipPath id="SVGID_00000108289291670955799730000015898838734744783024_" transform="translate(-7.954819202423096,-4) translate(8159.9150390625,955.2860107421875) ">
				<use xlink:href="#SVGID_1_" style="overflow:visible;" id="svg_7"/>
			</clipPath>
			<g id="Group_1539" style="clip-path:url(#SVGID_00000108289291670955799730000015898838734744783024_);">
				<path id="Path_1716" class="st3" d="M6.160219860076722,22.986010742187545 c0,0 -5.1,-1.5 -5.4,-4.2 c-0.3000000000000001,-2.7 1.9,-5.4 1.9,-5.4 l2.9,-1.4 c0,0 -1.3,-5.6 0.7000000000000002,-7.7 s3,-3.3 5,-3.2 c2,0.1 5.5,0.2 7,2.2 c0.7000000000000002,0.9 1.3,1.8 1.8,2.8 c0,0 3.3,-1.6 5.7,-0.3000000000000001 c2.4,1.3 3.3,2 3.8,4.3 c0.3000000000000001,1.5 0.2,3 -0.2,4.4 c0,0 2.3,0.3000000000000001 3.1,1.1 c1,1 1.4,2.5 1.2,3.9 c-0.5,1.5 -1.7000000000000002,2.7 -3.2,3.2 c-0.9,0.3000000000000001 -1.8,0.4 -2.8,0.5 "/>
				<path id="Path_1717" class="st3" d="M22.460219860076904,21.986010742187545 c0,2.9 -2.4,5.3 -5.3,5.3 c-2.9,0 -5.3,-2.4 -5.3,-5.3 c0,-2.9 2.4,-5.3 5.3,-5.3 C20.060219860077268,16.686010742187477 22.460219860076904,19.086010742187455 22.460219860076904,21.986010742187545 "/>
				<path id="Path_1718" class="st4" d="M25.86021986007654,23.886010742187523 l2.2,-0.9 l-0.4,-2 l-2.2,-0.4 l-0.3000000000000001,-1.9 l1.2,-1.9 l-1.3,-1.8 l-2.6,0.7000000000000002 l-1.3,-1.1 l0.5,-2.7 l-2.2,-0.5 l-1.5,2.3 l-2,-0.1 l-1.4,-2 l-1.6,0.8 l-0.3000000000000001,2.3 l-1.3,1.1 c0,0 -2,-0.8 -2.2,-0.9 l-1.5,1.8 l1.8,2.1 l-0.7000000000000002,1.9 l-2.6,0.2 v2.1 l2.1,0.9 l1.1,1.7000000000000002 l-1.4,1.8 l1.2,1.9 l2.3,-0.6000000000000002 l1.4,0.9 l-0.2,2.8 l2.1,0.7000000000000002 l1.3,-2.3 l1.7000000000000002,-0.2 l1.6,2.1 l2.2,-0.4 l-0.4,-2.5 l1.9,-1.2 l2.3,0.7000000000000002 l1.2,-1.6 l-1.5,-2 L25.86021986007654,23.886010742187523 zM17.060219860077268,27.486010742187545 c-2.9,0 -5.3,-2.4 -5.3,-5.3 c0,-2.9 2.4,-5.3 5.3,-5.3 s5.3,2.4 5.3,5.3 C22.36021986007654,25.086010742187455 19.960219860076904,27.486010742187545 17.060219860077268,27.486010742187545 "/>
				<path id="Path_1719" class="st5" d="M21.660219860076722,25.386010742187523 c0,0.3000000000000001 -0.3000000000000001,0.6000000000000002 -0.6000000000000002,0.6000000000000002 c-0.3000000000000001,0 -0.6000000000000002,-0.3000000000000001 -0.6000000000000002,-0.6000000000000002 c0,-0.3000000000000001 0.3000000000000001,-0.6000000000000002 0.6000000000000002,-0.6000000000000002 l0,0 C21.460219860076904,24.7860107421875 21.660219860076722,25.086010742187455 21.660219860076722,25.386010742187523 "/>
				<path id="Path_1720" class="st5" d="M19.36021986007654,33.38601074218752 c-0.2,0 -0.4,-0.1 -0.5,-0.3000000000000001 l-1,-1.8 c-0.5,0 -1,0 -1.5,0 l-1,1.8 c-0.1,0.2 -0.4,0.3000000000000001 -0.7000000000000002,0.3000000000000001 l-2.2,-0.7000000000000002 c-0.3000000000000001,-0.1 -0.4,-0.3000000000000001 -0.4,-0.6000000000000002 l0.2,-2.1 c-0.4,-0.3000000000000001 -0.8,-0.5 -1.2,-0.9 l-1.9,0.9 c-0.2,0.1 -0.5,0 -0.7000000000000002,-0.2 l-1.3,-1.9 c-0.2,-0.2 -0.1,-0.5 0,-0.7000000000000002 l1.4,-1.6 c-0.2,-0.5 -0.3000000000000001,-0.9 -0.5,-1.4 l-2.1,-0.4 c-0.3000000000000001,-0.1 -0.5,-0.3000000000000001 -0.5,-0.6000000000000002 v-2.3 c0,-0.3000000000000001 0.2,-0.5 0.5,-0.6000000000000002 l2.1,-0.4 c0.1,-0.5 0.3000000000000001,-0.9 0.5,-1.4 l-1.4,-1.6 c-0.2,-0.2 -0.2,-0.5 0,-0.7000000000000002 l1.3,-1.9 c0.2,-0.2 0.5,-0.3000000000000001 0.7000000000000002,-0.2 l1.9,0.9 c0.4,-0.3000000000000001 0.8,-0.6000000000000002 1.2,-0.9 l-0.2,-1.8 c0,-0.3000000000000001 0.1,-0.5 0.4,-0.6000000000000002 l2.2,-0.7000000000000002 c0.3000000000000001,-0.1 0.5,0 0.7000000000000002,0.3000000000000001 l1,1.9 c0.5,0 1,0 1.5,0 l1,-1.9 c0.1,-0.2 0.4,-0.3000000000000001 0.7000000000000002,-0.3000000000000001 l2.2,0.7000000000000002 c0.3000000000000001,0.1 0.4,0.3000000000000001 0.4,0.6000000000000002 l-0.2,2.1 c0.4,0.3000000000000001 0.8,0.5 1.2,0.9 l1.8,-1 c0.2,-0.1 0.5,0 0.7000000000000002,0.2 l1.3,1.9 c0.2,0.2 0.1,0.5 0,0.7000000000000002 l-1.4,1.6 c0.2,0.5 0.3000000000000001,0.9 0.5,1.4 l2.1,0.4 c0.3000000000000001,0.1 0.5,0.3000000000000001 0.5,0.6000000000000002 v2.2 c0,0.3000000000000001 -0.2,0.5 -0.5,0.6000000000000002 l-2.2,0.4 c-0.1,0.5 -0.3000000000000001,0.9 -0.5,1.4 l1.4,1.6 c0.2,0.2 0.2,0.5 0,0.7000000000000002 l-1.3,1.9 c-0.2,0.2 -0.5,0.3000000000000001 -0.7000000000000002,0.2 l-1.9,-0.9 c-0.4,0.3000000000000001 -0.8,0.6000000000000002 -1.2,0.9 l0.2,2.1 c0,0.3000000000000001 -0.1,0.5 -0.4,0.6000000000000002 l-2.2,0.7000000000000002 C19.460219860076904,33.38601074218752 19.460219860076904,33.38601074218752 19.36021986007654,33.38601074218752 M18.160219860076722,30.086010742187455 c0.2,0 0.4,0.1 0.5,0.3000000000000001 l1,1.8 l1.3,-0.4 l-0.2,-2 c0,-0.2 0.1,-0.5 0.3000000000000001,-0.6000000000000002 c0.6000000000000002,-0.3000000000000001 1.1,-0.7000000000000002 1.6,-1.2 c0.2,-0.2 0.4,-0.2 0.6000000000000002,-0.1 l1.8,0.9 l0.8,-1.1 l-1.4,-1.5 c-0.2,-0.2 -0.2,-0.4 -0.1,-0.6000000000000002 c0.3000000000000001,-0.6000000000000002 0.5,-1.2 0.6000000000000002,-1.9 c0,-0.2 0.2,-0.4 0.4,-0.5 l2,-0.4 v-1.3 l-2,-0.4 c-0.2,0 -0.4,-0.2 -0.4,-0.5 c-0.1,-0.6000000000000002 -0.3000000000000001,-1.3 -0.6000000000000002,-1.9 c-0.1,-0.2 -0.1,-0.5 0.1,-0.6000000000000002 l1.4,-1.5 l-0.8,-1.1 l-1.8,0.8 c-0.2,0.1 -0.5,0.1 -0.6000000000000002,-0.1 c-0.5,-0.4 -1,-0.8 -1.6,-1.2 c-0.2,-0.1 -0.3000000000000001,-0.3000000000000001 -0.3000000000000001,-0.6000000000000002 l0.2,-2 l-1.3,-0.4 l-1,1.8 c-0.1,0.2 -0.3000000000000001,0.3000000000000001 -0.6000000000000002,0.3000000000000001 c-0.6000000000000002,-0.1 -1.3,-0.1 -2,0 c-0.2,0 -0.5,-0.1 -0.6000000000000002,-0.3000000000000001 l-1,-1.8 l-1.3,0.4 l0.2,2 c0,0.2 -0.1,0.5 -0.3000000000000001,0.6000000000000002 c-0.6000000000000002,0.3000000000000001 -1.1,0.7000000000000002 -1.6,1.2 c-0.2,0.2 -0.4,0.2 -0.6000000000000002,0.1 l-1.9,-0.8 l-0.8,1.1 l1.4,1.5 c0.2,0.2 0.2,0.4 0.1,0.6000000000000002 c-0.3000000000000001,0.6000000000000002 -0.5,1.2 -0.6000000000000002,1.9 c0,0.2 -0.2,0.4 -0.4,0.5 l-2,0.4 v1.3 l2,0.4 c0.2,0 0.4,0.2 0.4,0.5 c0.1,0.6000000000000002 0.3000000000000001,1.3 0.6000000000000002,1.9 c0.1,0.2 0.1,0.5 -0.1,0.6000000000000002 l-1.4,1.5 l0.8,1.1 l1.8,-0.9 c0.2,-0.1 0.5,-0.1 0.6000000000000002,0.1 c0.5,0.4 1,0.8 1.6,1.2 c0.2,0.1 0.3000000000000001,0.3000000000000001 0.3000000000000001,0.6000000000000002 l-0.2,2 l1.3,0.4 l1,-1.8 c0.1,-0.2 0.3000000000000001,-0.3000000000000001 0.6000000000000002,-0.3000000000000001 C16.760219860077086,30.186010742187477 17.460219860076904,30.186010742187477 18.160219860076722,30.086010742187455 C18.060219860077268,30.086010742187455 18.160219860076722,30.086010742187455 18.160219860076722,30.086010742187455 M17.060219860077268,27.886010742187523 c-3.2,0 -5.7,-2.6 -5.7,-5.7 c0,-3.2 2.6,-5.7 5.7,-5.7 c3.2,0 5.7,2.6 5.7,5.7 c0,0.4 0,0.8 -0.1,1.2 c-0.1,0.3000000000000001 -0.4,0.5 -0.7000000000000002,0.4 s-0.5,-0.4 -0.4,-0.7000000000000002 l0,0 c0.5,-2.5 -1,-4.9 -3.5,-5.4 s-4.9,1 -5.4,3.5 s1,4.9 3.5,5.4 c0.3000000000000001,0.1 0.6000000000000002,0.1 1,0.1 c0.6000000000000002,0 1.2,-0.1 1.8,-0.4 c0.3000000000000001,-0.1 0.6000000000000002,0 0.8,0.3000000000000001 c0.2,0.3000000000000001 0,0.6000000000000002 -0.3000000000000001,0.8 C18.660219860076722,27.686010742187477 17.86021986007654,27.886010742187523 17.060219860077268,27.886010742187523 "/>
				<path id="Path_1721" class="st5" d="M3.9602198600769043,22.886010742187523 c-0.1,0 -0.1,0 -0.2,0 c-3,-1.2 -4.5,-4.6 -3.4,-7.6 c0.7000000000000002,-1.9 2.5,-3.4 4.5,-3.7 c-1,-2.6 -0.6000000000000002,-5.5 1,-7.8 c0.2,-0.3000000000000001 0.5,-0.3000000000000001 0.8,-0.1 c0.3000000000000001,0.2 0.3000000000000001,0.5 0.1,0.8 c-1.4,2 -1.7000000000000002,4.7 -0.8,7 l0.2,0.4 c0.1,0.3000000000000001 0,0.6000000000000002 -0.3000000000000001,0.7000000000000002 c-0.1,0 -0.1,0 -0.2,0 h-0.4 c-2.6,0.3000000000000001 -4.5,2.6 -4.2,5.2 c0.2,1.8 1.4,3.3 3,3.9 c0.3000000000000001,0.1 0.4,0.5 0.3000000000000001,0.7000000000000002 C4.3602198600765405,22.7860107421875 4.160219860076722,22.886010742187523 3.9602198600769043,22.886010742187523 "/>
				<path id="Path_1722" class="st5" d="M30.460219860076904,23.186010742187477 c-0.3000000000000001,0 -0.6000000000000002,-0.3000000000000001 -0.6000000000000002,-0.6000000000000002 s0.2,-0.5 0.5,-0.6000000000000002 c1.9,-0.4 3.1,-2.3 2.7,-4.2 c-0.3000000000000001,-1.6 -1.7000000000000002,-2.7 -3.3,-2.7 h-0.4 c-0.3000000000000001,0 -0.6000000000000002,-0.3000000000000001 -0.6000000000000002,-0.6000000000000002 c0,-0.1 0,-0.1 0,-0.2 l0.2,-0.4 c1.2,-3.1 -0.3000000000000001,-6.6 -3.4,-7.8 c-1.6,-0.6000000000000002 -3.4,-0.5 -4.9,0.2 l-0.3000000000000001,0.2 c-0.3000000000000001,0.1 -0.6000000000000002,0 -0.8,-0.2 c0,0 0,0 0,-0.1 l-0.1,-0.3000000000000001 c-1.3,-3.4 -4.9,-5.2 -8.4,-4.4 c-0.1,0 -0.3000000000000001,0.1 -0.4,0.1 c-0.3000000000000001,0.1 -0.6000000000000002,-0.1 -0.7000000000000002,-0.4 c-0.1,-0.3000000000000001 0.1,-0.6000000000000002 0.4,-0.7000000000000002 c0.2,0 0.3000000000000001,-0.1 0.5,-0.1 c4,-1 8,1.1 9.7,4.8 c0.9,-0.4 1.9,-0.6000000000000002 3,-0.6000000000000002 c3.9,0 7.1,3.2 7.1,7.1 c0,0.8 -0.1,1.5 -0.4,2.3 c2.4,0.2 4.1,2.2 4.1,4.6 c0,2.2 -1.5,4.1 -3.7,4.5 C30.560219860077268,23.186010742187477 30.460219860076904,23.186010742187477 30.460219860076904,23.186010742187477 "/>
				<path id="Path_1723" class="st5" d="M9.060219860077268,1.9860107421875455 c0,0.3000000000000001 -0.3000000000000001,0.6000000000000002 -0.6000000000000002,0.6000000000000002 c-0.2,0 -0.5,-0.3000000000000001 -0.5,-0.6000000000000002 s0.3000000000000001,-0.6000000000000002 0.6000000000000002,-0.6000000000000002 C8.86021986007654,1.3860107421875227 9.060219860077268,1.6860107421874773 9.060219860077268,1.9860107421875455 "/>
				<path id="Path_1724" class="st5" d="M24.060219860077268,34.38601074218752 c-0.3000000000000001,0 -0.6000000000000002,-0.3000000000000001 -0.6000000000000002,-0.6000000000000002 c0,-0.2 0.1,-0.4 0.3000000000000001,-0.5 c2.5,-1.5 4.5,-3.7 5.6,-6.4 c0.1,-0.3000000000000001 0.5,-0.4 0.7000000000000002,-0.3000000000000001 c0.3000000000000001,0.1 0.4,0.5 0.3000000000000001,0.7000000000000002 c-1.2,2.9 -3.3,5.4 -6,7 C24.260219860077086,34.38601074218752 24.160219860076722,34.38601074218752 24.060219860077268,34.38601074218752 "/>
				<path id="Path_1725" class="st5" d="M8.560219860077268,33.2860107421875 c-0.1,0 -0.3000000000000001,0 -0.4,-0.1 c-2.6,-2.1 -4.4,-5 -5,-8.2 c-0.1,-0.3000000000000001 0.1,-0.6000000000000002 0.5,-0.7000000000000002 c0.3000000000000001,-0.1 0.6000000000000002,0.1 0.7000000000000002,0.4 c0.6000000000000002,3 2.3,5.6 4.6,7.5 c0.2,0.2 0.3000000000000001,0.6000000000000002 0.1,0.8 C8.86021986007654,33.18601074218748 8.660219860076722,33.2860107421875 8.560219860077268,33.2860107421875 "/>
				<path id="Path_1726" class="st5" d="M11.36021986007654,33.986010742187545 c0,0.3000000000000001 -0.3000000000000001,0.6000000000000002 -0.6000000000000002,0.6000000000000002 c-0.3000000000000001,0 -0.6000000000000002,-0.3000000000000001 -0.6000000000000002,-0.6000000000000002 s0.3000000000000001,-0.6000000000000002 0.6000000000000002,-0.6000000000000002 C11.160219860076722,33.38601074218752 11.36021986007654,33.68601074218748 11.36021986007654,33.986010742187545 "/>
				<path id="Path_1727" class="st5" d="M30.86021986007654,24.7860107421875 c0,0.3000000000000001 -0.3000000000000001,0.6000000000000002 -0.6000000000000002,0.6000000000000002 c-0.3000000000000001,0 -0.6000000000000002,-0.3000000000000001 -0.6000000000000002,-0.6000000000000002 s0.3000000000000001,-0.6000000000000002 0.6000000000000002,-0.6000000000000002 C30.560219860077268,24.2860107421875 30.86021986007654,24.486010742187545 30.86021986007654,24.7860107421875 "/>
				<path id="Path_1728" class="st5" d="M16.060219860077268,23.886010742187523 l-0.2,-0.4 h-1.3 l-0.2,0.4 c0,0.1 -0.1,0.2 -0.2,0.3000000000000001 c0,0.1 0,0.1 -0.1,0.1 s-0.2,0 -0.2,-0.1 c-0.1,-0.1 -0.1,-0.1 -0.1,-0.2 v-0.1 c0,0 0,-0.1 0.1,-0.2 l0.8,-2.1 l0.1,-0.2 c0,-0.1 0.1,-0.1 0.1,-0.2 c0,-0.1 0.1,-0.1 0.1,-0.1 c0.1,0 0.1,-0.1 0.2,-0.1 c0.1,0 0.2,0 0.2,0.1 c0.1,0 0.1,0.1 0.1,0.1 c0,0.1 0.1,0.1 0.1,0.2 c0,0.1 0.1,0.1 0.1,0.3000000000000001 l0.9,2.1 c0.1,0.1 0.1,0.2 0.1,0.4 c0,0.1 0,0.2 -0.1,0.2 c-0.1,0.1 -0.1,0.1 -0.2,0.1 h-0.1 c0,0 -0.1,0 -0.1,-0.1 l-0.1,-0.1 C16.060219860077268,23.986010742187545 16.060219860077268,23.886010742187523 16.060219860077268,23.886010742187523 M14.760219860077086,22.886010742187523 h1 l-0.5,-1.4 L14.760219860077086,22.886010742187523 z"/>
				<path id="Path_1729" class="st5" d="M18.36021986007654,22.886010742187523 h-0.6000000000000002 v0.9 c0,0.1 0,0.2 -0.1,0.3000000000000001 c-0.1,0.1 -0.1,0.1 -0.2,0.1 s-0.2,0 -0.2,-0.1 c-0.1,-0.1 -0.1,-0.2 -0.1,-0.3000000000000001 v-2.5 c0,-0.1 0,-0.2 0.1,-0.3000000000000001 c0.1,-0.1 0.2,-0.1 0.3000000000000001,-0.1 h0.9 c0.2,0 0.4,0 0.6000000000000002,0.1 c0.1,0 0.2,0.1 0.3000000000000001,0.2 c0.1,0.1 0.2,0.2 0.2,0.3000000000000001 c0.1,0.1 0.1,0.3000000000000001 0.1,0.4 c0,0.3000000000000001 -0.1,0.6000000000000002 -0.3000000000000001,0.8 C18.960219860076904,22.886010742187523 18.660219860076722,22.986010742187545 18.36021986007654,22.886010742187523 M18.160219860076722,21.486010742187545 h-0.4 v1 h0.4 c0.1,0 0.3000000000000001,0 0.4,0 s0.2,-0.1 0.2,-0.2 c0.1,-0.1 0.1,-0.2 0.1,-0.3000000000000001 c0,-0.1 0,-0.3000000000000001 -0.1,-0.4 C18.560219860077268,21.486010742187545 18.36021986007654,21.386010742187523 18.160219860076722,21.486010742187545 "/>
				<path id="Path_1730" class="st5" d="M19.960219860076904,23.886010742187523 v-2.6 c0,-0.1 0,-0.2 0.1,-0.3000000000000001 c0.1,-0.1 0.1,-0.1 0.2,-0.1 c0.1,0 0.2,0 0.2,0.1 c0.1,0.1 0.1,0.2 0.1,0.3000000000000001 v2.6 c0,0.1 0,0.2 -0.1,0.3000000000000001 c-0.1,0.1 -0.2,0.1 -0.2,0.1 c-0.1,0 -0.2,0 -0.2,-0.1 C19.960219860076904,24.086010742187455 19.960219860076904,23.986010742187545 19.960219860076904,23.886010742187523 "/>
			</g>
		</g>
	</g>
</g><g id="Group_2223" class="">
	<g id="Group_2221">
		<path id="Path_1720-2" class="st1" d="M19.245180797576722,33.10000000000002 c-0.2,0 -0.4,-0.1 -0.5,-0.3000000000000001 l-1,-1.8 c-0.5,0 -1,0 -1.5,0 l-1,1.8 c-0.1,0.2 -0.4,0.3000000000000001 -0.7000000000000002,0.3000000000000001 l-2.2,-0.7000000000000002 c-0.3000000000000001,-0.1 -0.4,-0.3000000000000001 -0.4,-0.6000000000000002 l0.2,-2.1 c-0.4,-0.3000000000000001 -0.8,-0.5 -1.2,-0.9 l-1.9,0.9 c-0.2,0.1 -0.5,0 -0.7000000000000002,-0.2 l-1.3,-1.8 c-0.2,-0.2 -0.1,-0.5 0,-0.7000000000000002 l1.4,-1.5 c-0.2,-0.4 -0.3000000000000001,-0.9 -0.5,-1.4 l-2.1,-0.4 c-0.3000000000000001,-0.1 -0.5,-0.3000000000000001 -0.5,-0.6000000000000002 v-2.3 c0,-0.3000000000000001 0.2,-0.5 0.5,-0.6000000000000002 l2.1,-0.4 c0.1,-0.5 0.3000000000000001,-0.9 0.5,-1.4 l-1.4,-1.5 c-0.2,-0.2 -0.2,-0.5 0,-0.7000000000000002 l1.3,-1.8 c0.2,-0.2 0.4,-0.3000000000000001 0.7000000000000002,-0.2 l1.9,0.9 c0.4,-0.3000000000000001 0.8,-0.6000000000000002 1.2,-0.9 l-0.1,-2.1 c0,-0.3000000000000001 0.1,-0.5 0.4,-0.6000000000000002 l2.2,-0.7000000000000002 c0.3000000000000001,-0.1 0.5,0 0.7000000000000002,0.3000000000000001 l1,1.8 c0.5,0 1,0 1.5,0 l1,-1.8 c0.1,-0.2 0.4,-0.3000000000000001 0.7000000000000002,-0.3000000000000001 l2.2,0.7000000000000002 c0.3000000000000001,0.1 0.4,0.3000000000000001 0.4,0.6000000000000002 l-0.2,2.1 c0.4,0.3000000000000001 0.8,0.5 1.2,0.9 l1.9,-0.9 c0.2,-0.1 0.5,0 0.7000000000000002,0.2 l1.3,1.8 c0.2,0.2 0.1,0.5 0,0.7000000000000002 l-1.4,1.6 c0.2,0.4 0.3000000000000001,0.9 0.5,1.4 l2.1,0.4 c0.3000000000000001,0.1 0.5,0.3000000000000001 0.5,0.6000000000000002 v2.3 c0,0.3000000000000001 -0.2,0.5 -0.5,0.6000000000000002 l-2.1,0.4 c-0.1,0.5 -0.3000000000000001,0.9 -0.5,1.4 l1.4,1.6 c0.2,0.2 0.2,0.5 0,0.7000000000000002 l-1.3,1.8 c-0.2,0.2 -0.4,0.3000000000000001 -0.7000000000000002,0.2 l-1.9,-0.9 c-0.4,0.3000000000000001 -0.8,0.6000000000000002 -1.2,0.9 l0.2,2.1 c0,0.3000000000000001 -0.1,0.5 -0.4,0.6000000000000002 l-2.2,0.7000000000000002 C19.44518079757654,33.10000000000002 19.345180797577086,33.10000000000002 19.245180797576722,33.10000000000002 M18.045180797576904,29.799999999999955 c0.2,0 0.4,0.1 0.5,0.3000000000000001 l1,1.8 l1.3,-0.4 l-0.2,-2 c0,-0.2 0.1,-0.4 0.3000000000000001,-0.6000000000000002 c0.6000000000000002,-0.3000000000000001 1.1,-0.7000000000000002 1.6,-1.1 c0.2,-0.2 0.4,-0.2 0.6000000000000002,-0.1 l1.8,0.8 l0.8,-1.1 l-1.4,-1.5 c-0.2,-0.2 -0.2,-0.4 -0.1,-0.6000000000000002 c0.3000000000000001,-0.6000000000000002 0.5,-1.2 0.6000000000000002,-1.8 c0,-0.2 0.2,-0.4 0.4,-0.4 l2,-0.4 v-1.3 l-2,-0.4 c-0.2,0 -0.4,-0.2 -0.4,-0.5 c-0.1,-0.6000000000000002 -0.3000000000000001,-1.3 -0.6000000000000002,-1.8 c-0.1,-0.2 -0.1,-0.5 0.1,-0.6000000000000002 l1.4,-1.5 l-0.8,-1.1 l-1.9,0.8 c-0.2,0.1 -0.5,0.1 -0.6000000000000002,-0.1 c-0.5,-0.4 -1,-0.8 -1.6,-1.1 c-0.2,-0.1 -0.3000000000000001,-0.3000000000000001 -0.3000000000000001,-0.6000000000000002 l0.2,-2 l-1.3,-0.4 l-1,1.8 c-0.1,0.2 -0.3000000000000001,0.3000000000000001 -0.6000000000000002,0.3000000000000001 c-0.6000000000000002,-0.1 -1.3,-0.1 -1.9,0 c-0.2,0 -0.4,-0.1 -0.6000000000000002,-0.3000000000000001 l-1,-1.8 l-1.3,0.4 l0.2,2 c0,0.2 -0.1,0.4 -0.3000000000000001,0.6000000000000002 c-0.6000000000000002,0.3000000000000001 -1.1,0.7000000000000002 -1.6,1.1 c-0.2,0.2 -0.4,0.2 -0.6000000000000002,0.1 l-1.8,-0.8 l-0.8,1.1 l1.4,1.5 c0.2,0.2 0.2,0.4 0.1,0.6000000000000002 c-0.3000000000000001,0.6000000000000002 -0.5,1.2 -0.6000000000000002,1.8 c0,0.2 -0.2,0.4 -0.4,0.5 l-2,0.4 v1.3 l2,0.4 c0.2,0 0.4,0.2 0.4,0.4 c0.1,0.6000000000000002 0.3000000000000001,1.3 0.6000000000000002,1.8 c0.1,0.2 0.1,0.5 -0.1,0.6000000000000002 l-1.4,1.5 l0.8,1.1 l1.8,-0.8 c0.2,-0.1 0.5,-0.1 0.6000000000000002,0.1 c0.5,0.4 1,0.8 1.6,1.1 c0.2,0.1 0.3000000000000001,0.3000000000000001 0.3000000000000001,0.6000000000000002 l-0.2,2 l1.3,0.4 l1,-1.8 c0.1,-0.2 0.3000000000000001,-0.3000000000000001 0.6000000000000002,-0.3000000000000001 C16.745180797576722,29.899999999999977 17.345180797577086,29.899999999999977 18.045180797576904,29.799999999999955 L18.045180797576904,29.799999999999955 M17.045180797576904,27.600000000000023 c-3.1,0 -5.7,-2.5 -5.7,-5.7 c0,-3.1 2.5,-5.7 5.7,-5.7 s5.7,2.5 5.7,5.7 c0,0.4 0,0.8 -0.1,1.2 c-0.1,0.3000000000000001 -0.4,0.5 -0.7000000000000002,0.4 c-0.3000000000000001,-0.1 -0.5,-0.4 -0.4,-0.7000000000000002 l0,0 c0.5,-2.4 -1,-4.9 -3.5,-5.4 s-4.9,1 -5.4,3.5 c-0.5,2.4 1,4.9 3.5,5.4 c0.3000000000000001,0.1 0.6000000000000002,0.1 1,0.1 c0.6000000000000002,0 1.2,-0.1 1.8,-0.4 c0.3000000000000001,-0.1 0.6000000000000002,0 0.7000000000000002,0.3000000000000001 s0,0.6000000000000002 -0.3000000000000001,0.7000000000000002 l0,0 C18.545180797576904,27.5 17.845180797577086,27.600000000000023 17.045180797576904,27.600000000000023 "/>
		<path id="Path_1721-2" class="st1" d="M3.9451807975765405,22.700000000000045 c-0.1,0 -0.1,0 -0.2,0 c-3,-1.2 -4.5,-4.5 -3.3,-7.6 c0.7000000000000002,-1.9 2.4,-3.3 4.5,-3.6 c-1,-2.6 -0.6000000000000002,-5.5 1,-7.7 c0.2,-0.3000000000000001 0.5,-0.3000000000000001 0.8,-0.1 c0.3000000000000001,0.2 0.3000000000000001,0.5 0.1,0.8 c-1.4,2 -1.7000000000000002,4.6 -0.8,6.9 l0.2,0.4 c0.1,0.3000000000000001 0,0.6000000000000002 -0.3000000000000001,0.7000000000000002 c-0.1,0 -0.1,0 -0.2,0 h-0.4 c-2.6,0.3000000000000001 -4.4,2.6 -4.2,5.2 c0.2,1.8 1.3,3.2 3,3.9 c0.3000000000000001,0.1 0.4,0.4 0.3000000000000001,0.7000000000000002 C4.4451807975765405,22.600000000000023 4.245180797576722,22.700000000000045 3.9451807975765405,22.700000000000045 "/>
		<path id="Path_1722-2" class="st1" d="M30.245180797576722,23 c-0.3000000000000001,0 -0.6000000000000002,-0.3000000000000001 -0.6000000000000002,-0.6000000000000002 c0,-0.3000000000000001 0.2,-0.5 0.4,-0.6000000000000002 c1.9,-0.4 3.1,-2.2 2.7,-4.1 c-0.3000000000000001,-1.6 -1.7000000000000002,-2.7 -3.3,-2.7 h-0.4 c-0.3000000000000001,0 -0.6000000000000002,-0.3000000000000001 -0.5,-0.6000000000000002 c0,-0.1 0,-0.1 0,-0.2 l0.2,-0.4 c1.2,-3.1 -0.3000000000000001,-6.5 -3.3,-7.7 c-1.6,-0.6000000000000002 -3.3,-0.5 -4.9,0.2 l-0.3000000000000001,0.2 c-0.3000000000000001,0.1 -0.6000000000000002,0 -0.8,-0.2 c0,0 0,0 0,-0.1 l-0.1,-0.3000000000000001 c-1.3,-3.3 -4.9,-5.2 -8.3,-4.3 c-0.1,0 -0.3000000000000001,0.1 -0.4,0.1 c-0.3000000000000001,0.1 -0.6000000000000002,-0.1 -0.7000000000000002,-0.4 s0.1,-0.6000000000000002 0.4,-0.7000000000000002 l0,0 c0.2,0 0.3000000000000001,-0.1 0.5,-0.1 c3.9,-1 8,1 9.6,4.7 c0.9,-0.4 1.9,-0.6000000000000002 2.9,-0.6000000000000002 c3.9,0 7.1,3.2 7.1,7.1 c0,0.8 -0.1,1.5 -0.4,2.3 c2.3,0.2 4.1,2.2 4.1,4.6 c0,2.2 -1.5,4 -3.6,4.5 C30.345180797577086,23 30.345180797577086,23 30.245180797576722,23 "/>
		<path id="Path_1723-2" class="st1" d="M9.145180797577268,2 c0,0.3000000000000001 -0.3000000000000001,0.6000000000000002 -0.6000000000000002,0.6000000000000002 s-0.6000000000000002,-0.3000000000000001 -0.6000000000000002,-0.6000000000000002 s0.3000000000000001,-0.6000000000000002 0.6000000000000002,-0.6000000000000002 l0,0 C8.845180797577086,1.3999999999999773 9.145180797577268,1.6000000000000227 9.145180797577268,2 "/>
		<path id="Path_1724-2" class="st1" d="M23.94518079757654,34.10000000000002 c-0.3000000000000001,0 -0.6000000000000002,-0.3000000000000001 -0.6000000000000002,-0.6000000000000002 c0,-0.2 0.1,-0.4 0.3000000000000001,-0.5 c2.5,-1.5 4.4,-3.7 5.5,-6.4 c0.1,-0.3000000000000001 0.5,-0.4 0.7000000000000002,-0.3000000000000001 c0.3000000000000001,0.1 0.4,0.4 0.3000000000000001,0.7000000000000002 c-1.2,2.9 -3.3,5.3 -6,6.9 C24.145180797577268,34.10000000000002 24.045180797576904,34.10000000000002 23.94518079757654,34.10000000000002 "/>
		<path id="Path_1725-2" class="st1" d="M8.545180797576904,33 c-0.1,0 -0.3000000000000001,0 -0.4,-0.1 c-2.6,-2 -4.3,-4.9 -5,-8.1 c-0.1,-0.3000000000000001 0.1,-0.6000000000000002 0.4,-0.7000000000000002 c0.3000000000000001,-0.1 0.6000000000000002,0.1 0.7000000000000002,0.4 c0.6000000000000002,2.9 2.3,5.6 4.6,7.5 c0.2,0.2 0.3000000000000001,0.6000000000000002 0.1,0.8 C8.845180797577086,32.89999999999998 8.745180797576722,33 8.545180797576904,33 "/>
		<path id="Path_1726-2" class="st1" d="M11.345180797577086,33.700000000000045 c0,0.3000000000000001 -0.3000000000000001,0.6000000000000002 -0.6000000000000002,0.6000000000000002 c-0.3000000000000001,0 -0.6000000000000002,-0.3000000000000001 -0.6000000000000002,-0.6000000000000002 s0.3000000000000001,-0.6000000000000002 0.6000000000000002,-0.6000000000000002 l0,0 C11.145180797577268,33.10000000000002 11.345180797577086,33.39999999999998 11.345180797577086,33.700000000000045 "/>
		<path id="Path_1727-2" class="st1" d="M30.645180797577268,24.600000000000023 c0,0.3000000000000001 -0.3000000000000001,0.6000000000000002 -0.6000000000000002,0.6000000000000002 s-0.6000000000000002,-0.3000000000000001 -0.6000000000000002,-0.6000000000000002 c0,-0.3000000000000001 0.3000000000000001,-0.6000000000000002 0.6000000000000002,-0.6000000000000002 l0,0 C30.345180797577086,24.100000000000023 30.645180797577268,24.299999999999955 30.645180797577268,24.600000000000023 "/>
		<path id="Path_3539" class="st1" d="M21.545180797576904,25.200000000000045 c0,0.3000000000000001 -0.3000000000000001,0.6000000000000002 -0.6000000000000002,0.6000000000000002 c-0.3000000000000001,0 -0.6000000000000002,-0.3000000000000001 -0.6000000000000002,-0.6000000000000002 s0.3000000000000001,-0.6000000000000002 0.6000000000000002,-0.6000000000000002 l0,0 C21.345180797577086,24.600000000000023 21.545180797576904,24.899999999999977 21.545180797576904,25.200000000000045 "/>
		<path id="Path_3540" class="st1" d="M16.045180797576904,23.600000000000023 l-0.2,-0.4 h-1.3 l-0.2,0.4 c0,0.1 -0.1,0.2 -0.2,0.3000000000000001 c0,0.1 -0.1,0.2 -0.1,0.2 c-0.1,0 -0.2,0 -0.2,-0.1 c-0.1,-0.1 -0.1,-0.1 -0.1,-0.2 v-0.1 c0,0 0,-0.1 0.1,-0.2 l0.8,-2.1 l0.1,-0.2 c0,-0.1 0.1,-0.1 0.1,-0.2 s0.1,-0.1 0.1,-0.1 c0.1,0 0.1,-0.1 0.2,-0.1 s0.2,0 0.2,0.1 c0.1,0 0.1,0.1 0.1,0.1 c0,0.1 0.1,0.1 0.1,0.2 c0,0.1 0.1,0.1 0.1,0.3000000000000001 l0.8,2.1 c0.1,0.1 0.1,0.2 0.1,0.3000000000000001 c0,0.1 0,0.2 -0.1,0.2 c-0.1,0.1 -0.1,0.1 -0.2,0.1 h-0.1 c0,0 -0.1,0 -0.1,-0.1 l-0.1,-0.1 C16.045180797576904,23.700000000000045 16.045180797576904,23.700000000000045 16.045180797576904,23.600000000000023 M14.745180797576722,22.700000000000045 h1 l-0.5,-1.3 L14.745180797576722,22.700000000000045 z"/>
		<path id="Path_3541" class="st1" d="M18.245180797576722,22.700000000000045 h-0.6000000000000002 v0.9 c0,0.1 0,0.2 -0.1,0.3000000000000001 c-0.1,0.1 -0.1,0.1 -0.2,0.1 c-0.1,0 -0.2,0 -0.2,-0.1 c-0.1,0 -0.1,-0.1 -0.1,-0.2 v-2.5 c0,-0.1 0,-0.2 0.1,-0.3000000000000001 c0.1,-0.1 0.2,-0.1 0.3000000000000001,-0.1 h0.8 c0.2,0 0.4,0 0.6000000000000002,0.1 c0.1,0 0.2,0.1 0.3000000000000001,0.2 c0.1,0.1 0.2,0.2 0.2,0.3000000000000001 c0.1,0.1 0.1,0.3000000000000001 0.1,0.4 c0,0.3000000000000001 -0.1,0.6000000000000002 -0.3000000000000001,0.8 C18.94518079757654,22.700000000000045 18.645180797577268,22.799999999999955 18.245180797576722,22.700000000000045 M18.145180797577268,21.200000000000045 h-0.4 v1 h0.4 c0.1,0 0.3000000000000001,0 0.4,0 s0.2,-0.1 0.2,-0.2 c0.1,-0.1 0.1,-0.2 0.1,-0.3000000000000001 c0,-0.1 0,-0.3000000000000001 -0.1,-0.4 C18.545180797576904,21.299999999999955 18.345180797577086,21.200000000000045 18.145180797577268,21.200000000000045 "/>
		<path id="Path_3542" class="st1" d="M19.845180797577086,23.700000000000045 v-2.6 c0,-0.1 0,-0.2 0.1,-0.3000000000000001 c0.1,-0.1 0.1,-0.1 0.2,-0.1 s0.2,0 0.2,0.1 c0.1,0.1 0.1,0.2 0.1,0.3000000000000001 v2.6 c0,0.1 0,0.2 -0.1,0.3000000000000001 c-0.1,0.1 -0.1,0.1 -0.2,0.1 s-0.2,0 -0.2,-0.1 S19.845180797577086,23.799999999999955 19.845180797577086,23.700000000000045 "/>
	</g>
	<rect id="Rectangle_1148-2" x="0.1452784538269043" y="0" class="st6" width="33.70000076293945" height="34.70000076293945"/>
</g></g></svg>