<?xml version="1.0" encoding="utf-8"?>
<!-- Generator: Adobe Illustrator 26.0.2, SVG Export Plug-In . SVG Version: 6.00 Build 0)  -->
<svg version="1.1" id="Layer_1" xmlns="http://www.w3.org/2000/svg" xmlns:xlink="http://www.w3.org/1999/xlink" x="0px" y="0px"
	 viewBox="0 0 512 512" style="enable-background:new 0 0 512 512;" xml:space="preserve">
<style type="text/css">
	.st0{fill:#7893C4;}
</style>
<path id="Icon_awesome-database" class="st0" d="M464.9,86.4v42.5c0,37.6-93.3,68-208.4,68s-208.4-30.6-208.4-68V86.4
	c0-37.5,93.3-68,208.4-68S464.9,48.9,464.9,86.4z M464.9,182.1v95.7c0,37.6-93.3,68-208.4,68s-208.4-30.6-208.4-68v-95.7
	c44.8,30.8,126.7,45.2,208.4,45.2S420.1,212.9,464.9,182.1z M464.9,330.9v95.7c0,37.6-93.3,68-208.4,68s-208.4-30.6-208.4-68v-95.7
	c44.8,30.8,126.7,45.2,208.4,45.2S420.1,361.8,464.9,330.9z"/>
</svg>
