<?xml version="1.0" encoding="utf-8"?>
<!-- Generator: Adobe Illustrator 26.0.2, SVG Export Plug-In . SVG Version: 6.00 Build 0)  -->
<svg version="1.1" id="Layer_1" xmlns="http://www.w3.org/2000/svg" xmlns:xlink="http://www.w3.org/1999/xlink" x="0px" y="0px"
	 viewBox="0 0 512 512" style="enable-background:new 0 0 512 512;" xml:space="preserve">
<style type="text/css">
	.st0{fill:#7893C4;}
</style>
<path id="Icon_awesome-calendar-alt" class="st0" d="M44.5,453.4c0,25.1,20.4,45.4,45.4,45.4h333.1c25.1,0,45.4-20.3,45.4-45.4l0,0
	V195.9h-424V453.4z M347.3,267.9c0-6.3,5.1-11.4,11.4-11.4h37.9c6.3,0,11.4,5.1,11.4,11.4v37.9c0,6.3-5.1,11.4-11.4,11.4h-37.9
	c-6.3,0-11.4-5.1-11.4-11.4V267.9z M347.3,389c0-6.3,5.1-11.4,11.4-11.4h37.9c6.3,0,11.4,5.1,11.4,11.4v37.9
	c0,6.3-5.1,11.4-11.4,11.4h-37.9c-6.3,0-11.4-5.1-11.4-11.4V389z M226.2,267.9c0-6.3,5.1-11.4,11.4-11.4h37.9
	c6.3,0,11.4,5.1,11.4,11.4v37.9c0,6.3-5.1,11.4-11.4,11.4h-37.9c-6.3,0-11.4-5.1-11.4-11.4V267.9z M226.2,389
	c0-6.3,5.1-11.4,11.4-11.4h37.9c6.3,0,11.4,5.1,11.4,11.4v37.9c0,6.3-5.1,11.4-11.4,11.4h-37.9c-6.3,0-11.4-5.1-11.4-11.4V389z
	 M105.1,267.9c0-6.3,5.1-11.4,11.4-11.4h37.8c6.3,0,11.4,5.1,11.4,11.4v37.9c0,6.3-5.1,11.4-11.4,11.4h-37.8
	c-6.3,0-11.4-5.1-11.4-11.4L105.1,267.9z M105.1,389c0-6.3,5.1-11.4,11.4-11.4h37.8c6.3,0,11.4,5.1,11.4,11.4v37.9
	c0,6.3-5.1,11.4-11.4,11.4h-37.8c-6.3,0-11.4-5.1-11.4-11.4L105.1,389z M423.1,74.8h-45.4V29.4c0-8.4-6.8-15.1-15.1-15.2h-30.3
	c-8.4,0-15.1,6.8-15.2,15.2v45.4H195.9V29.4c0-8.4-6.8-15.1-15.1-15.2h-30.3c-8.4,0-15.1,6.8-15.2,15.2v45.4H89.9
	c-25.1,0-45.4,20.3-45.4,45.4v45.4h424v-45.4C468.5,95.1,448.2,74.8,423.1,74.8z"/>
</svg>
