<?xml version="1.0" encoding="utf-8"?>
<!-- Generator: Adobe Illustrator 26.0.2, SVG Export Plug-In . SVG Version: 6.00 Build 0)  -->
<svg version="1.1" id="Layer_1" xmlns="http://www.w3.org/2000/svg" xmlns:xlink="http://www.w3.org/1999/xlink" x="0px" y="0px"
	 viewBox="0 0 384 512" style="enable-background:new 0 0 384 512;" xml:space="preserve">
<style type="text/css">
	.st0{fill:#03B1BF;}
</style>
<path id="Icon_awesome-calendar-day" class="st0" d="M11,425c0,21.5,17.4,38.9,38.9,38.9c0,0,0,0,0,0h285.2
	c21.5,0,38.9-17.4,38.9-38.9V204.7H11V425z M62.9,269.5c0-7.2,5.8-13,13-13h77.8c7.2,0,13,5.8,13,13v77.8c0,7.2-5.8,13-13,13H75.8
	c-7.2,0-13-5.8-13-13L62.9,269.5z M335.1,100.9h-38.9V62.1c0-7.2-5.8-13-13-13h-26c-7.2,0-13,5.8-13,13v38.9H140.6V62.1
	c0-7.1-5.7-12.9-12.8-13h-26c-7.2,0-13,5.8-13,13v38.9H49.9c-21.5,0-38.9,17.4-38.9,38.9c0,0,0,0,0,0v38.9h363v-38.9
	C374,118.4,356.6,100.9,335.1,100.9C335.1,100.9,335.1,100.9,335.1,100.9z"/>
</svg>
